<svg xmlns="http://www.w3.org/2000/svg" width="30" height="30" viewBox="0 0 30 30"><path d="M21.26,16.57s-.71,3.95-.8,4.66a17.86,17.86,0,0,0-.24,1.83,13.49,13.49,0,0,1-.09,2.07c-.09.1-.8.52-.89.9s-1.32,2.92-2.83,3.1c-.37.05-.56.52-1.46.24a5.08,5.08,0,0,1-2.11-1c-.19-.33-.9-.42-1.23-.7a5.49,5.49,0,0,1-1-1.89c-.18-.61-.84-.94-.8-1.88a20.88,20.88,0,0,0-.56-3.53l-.52-4.14s.52.05.52.28c0,1.09,1.22,5.51,1.32,6.5.09,1.31.66,1.74,1.69,1.88,1.88.33,1.74.05,2.17-.19a1.62,1.62,0,0,1,1.83.38,17.36,17.36,0,0,0,1.84-.52,1.78,1.78,0,0,0,1.36-1.41c.24-.94.24-2.45.61-2.92s.24-3.62.47-3.67A3.16,3.16,0,0,1,21.26,16.57ZM22.66,11h-.88V1.22A1.21,1.21,0,0,0,20.57,0H9.43A1.21,1.21,0,0,0,8.22,1.22V11H7.34a1.15,1.15,0,0,0-1.15,1.15v.7A1.15,1.15,0,0,0,7.34,14H22.66a1.15,1.15,0,0,0,1.15-1.15v-.7A1.15,1.15,0,0,0,22.66,11Z" /></svg>