<svg xmlns="http://www.w3.org/2000/svg" width="30" height="30" viewBox="0 0 30 30"><path d="M23.31,13.22a.5.5,0,0,1,0-.71L25,10.85a.5.5,0,0,1,.71,0,.5.5,0,0,1,0,.7L24,13.22a.48.48,0,0,1-.7,0Zm3.28,5.17-2-1.29a.5.5,0,0,0-.55.84l2,1.29a.43.43,0,0,0,.27.08.52.52,0,0,0,.42-.22A.51.51,0,0,0,26.59,18.39Zm.92-3.85H25.16a.5.5,0,0,0,0,1h2.35a.5.5,0,0,0,0-1ZM6.16,13.22a.49.49,0,0,0,.35.15.51.51,0,0,0,.36-.15.51.51,0,0,0,0-.71L5.2,10.85a.5.5,0,0,0-.71,0,.5.5,0,0,0,0,.7Zm.08,4a.5.5,0,0,0-.69-.15l-2,1.29a.51.51,0,0,0-.15.7.52.52,0,0,0,.42.22.43.43,0,0,0,.27-.08l2-1.29A.5.5,0,0,0,6.24,17.25ZM5.52,15a.5.5,0,0,0-.5-.5H2.66a.5.5,0,0,0,0,1H5A.5.5,0,0,0,5.52,15ZM25,23c0,2-5,3-10,3S5,25,5,23a1.4,1.4,0,0,1,.53-1,17.69,17.69,0,0,0,2.7-7.65c.08-.48.15-.93.23-1.3a6.66,6.66,0,0,1,4-4.62v-2A2.55,2.55,0,0,1,15,3.93a2.51,2.51,0,0,1,2.53,2.63V8.38a6.62,6.62,0,0,1,4,4.59c.1.4.18.86.25,1.34a16.65,16.65,0,0,0,2.58,7.48l0,0A1.53,1.53,0,0,1,25,23ZM13.43,6.42V8.18A14.14,14.14,0,0,1,15,8.11a13.3,13.3,0,0,1,1.52.08V6.53a1.49,1.49,0,0,0-.4-1.12A1.43,1.43,0,0,0,15,4.93,1.56,1.56,0,0,0,13.43,6.42ZM7.23,21.05A25.12,25.12,0,0,1,15,20a25.44,25.44,0,0,1,7.69,1,20.14,20.14,0,0,1-1.94-6.56,10.73,10.73,0,0,0-.23-1.25,5.65,5.65,0,0,0-3.53-4l-.11,0v0A11.28,11.28,0,0,0,15,9.11a12,12,0,0,0-1.86.12l-.21.06a5.65,5.65,0,0,0-3.47,3.94c-.07.34-.14.78-.21,1.24A20.27,20.27,0,0,1,7.23,21.05ZM24,23c0-.61-2.57-1.73-7.31-2a1.87,1.87,0,0,1,.14.71,1.83,1.83,0,1,1-3.66,0,1.87,1.87,0,0,1,.14-.71c-3.75.18-6.15.92-7,1.53l-.11.16,0,0A.45.45,0,0,0,6,23c0,.68,3.18,2,9,2S24,23.68,24,23ZM15.49,11.27a.41.41,0,0,0-.11-.3.32.32,0,0,0-.27-.13,3.7,3.7,0,0,0-3.7,2.76c-.08.35-.16.75-.24,1.16a33.93,33.93,0,0,1-.78,3.57.4.4,0,0,0,0,.32.33.33,0,0,0,.24.19.4.4,0,0,0,.29,0,.33.33,0,0,0,.19-.24A29.12,29.12,0,0,0,12,14.89a10.14,10.14,0,0,1,.21-1.07,2.9,2.9,0,0,1,2.93-2.15A.39.39,0,0,0,15.49,11.27Z" /></svg>