<svg xmlns="http://www.w3.org/2000/svg" width="30" height="30" viewBox="0 0 30 30"><path d="M27,8H23V4a2,2,0,0,0-2-2H10A2,2,0,0,0,8,4V8H4a2,2,0,0,0-2,2V25a2,2,0,0,0,2,2H27a2,2,0,0,0,2-2V10A2,2,0,0,0,27,8ZM23,9v5.16a.85.85,0,0,1-.84.84h-.32a.85.85,0,0,1-.84-.84V9ZM9,4a1,1,0,0,1,1-1H21a1,1,0,0,1,1,1V8H9ZM8,9h2v5.16a.85.85,0,0,1-.84.84H8.84A.85.85,0,0,1,8,14.16ZM28,25a1,1,0,0,1-1,1H4a1,1,0,0,1-1-1V10A1,1,0,0,1,4,9H7v5.16A1.84,1.84,0,0,0,8.84,16h.32A1.84,1.84,0,0,0,11,14.16V9h9v5.16A1.84,1.84,0,0,0,21.84,16h.32A1.84,1.84,0,0,0,24,14.16V9h3a1,1,0,0,1,1,1Z" /></svg>