<svg xmlns="http://www.w3.org/2000/svg" width="30" height="30" viewBox="0 0 30 30"><path d="M20,9.16V6h4a1,1,0,0,1,1,1v7.08a8.05,8.05,0,0,1,1,.21V7a2,2,0,0,0-2-2H19V2a2,2,0,0,0-2-2H8A2,2,0,0,0,6,2V5H2A2,2,0,0,0,0,7V20a2,2,0,0,0,2,2H17.08A6.63,6.63,0,0,1,17,21H2a1,1,0,0,1-1-1V7A1,1,0,0,1,2,6H5V9.16A1.84,1.84,0,0,0,6.84,11h.32A1.84,1.84,0,0,0,9,9.16V6h7V9.16A1.84,1.84,0,0,0,17.84,11h.32A1.84,1.84,0,0,0,20,9.16Zm-12,0a.85.85,0,0,1-.84.84H6.84A.85.85,0,0,1,6,9.16V6H8ZM9,5H7V2A1,1,0,0,1,8,1h9a1,1,0,0,1,1,1V5H9ZM19,9.16a.85.85,0,0,1-.84.84h-.32A.85.85,0,0,1,17,9.16V6h2Zm8,10.92a.61.61,0,0,1-.13.45l-2.46,3a.59.59,0,0,1-.45.2H23.8a.58.58,0,0,1-.45-.2l-1.62-1.61a.59.59,0,0,1-.2-.45.6.6,0,0,1,.2-.46.34.34,0,0,1,.32-.19h.07a.52.52,0,0,1,.38.19l1.17,1.17,2.07-2.52a.39.39,0,0,1,.39-.2,1.78,1.78,0,0,1,.65.33A.36.36,0,0,1,27,20.08Zm-2.86-4.23a5.39,5.39,0,1,0,5.39,5.39A5.4,5.4,0,0,0,24.11,15.85Zm0,9.78a4.39,4.39,0,1,1,4.39-4.39A4.4,4.4,0,0,1,24.11,25.63Z" /></svg>