<svg xmlns="http://www.w3.org/2000/svg" width="30" height="30" viewBox="0 0 30 30"><path d="M20,9.16V6h4a1,1,0,0,1,1,1v7.08a8.05,8.05,0,0,1,1,.21V7a2,2,0,0,0-2-2H19V2a2,2,0,0,0-2-2H8A2,2,0,0,0,6,2V5H2A2,2,0,0,0,0,7V20a2,2,0,0,0,2,2H17.08A6.63,6.63,0,0,1,17,21H2a1,1,0,0,1-1-1V7A1,1,0,0,1,2,6H5V9.16A1.84,1.84,0,0,0,6.84,11h.32A1.84,1.84,0,0,0,9,9.16V6h7V9.16A1.84,1.84,0,0,0,17.84,11h.32A1.84,1.84,0,0,0,20,9.16Zm-12,0a.85.85,0,0,1-.84.84H6.84A.85.85,0,0,1,6,9.16V6H8ZM9,5H7V2A1,1,0,0,1,8,1h9a1,1,0,0,1,1,1V5H9ZM19,9.16a.85.85,0,0,1-.84.84h-.32A.85.85,0,0,1,17,9.16V6h2Zm5.11,6.69a5.39,5.39,0,1,0,5.39,5.39A5.4,5.4,0,0,0,24.11,15.85Zm0,9.78a4.39,4.39,0,1,1,4.39-4.39A4.4,4.4,0,0,1,24.11,25.63ZM27,21.5a.5.5,0,0,1-.5.5h-2a.47.47,0,0,1-.5-.5V18.2a.47.47,0,0,1,.5-.5.44.44,0,0,1,.5.5V21h1.49A.47.47,0,0,1,27,21.5Z" /></svg>