<svg xmlns="http://www.w3.org/2000/svg" width="30" height="30" viewBox="0 0 30 30"><path d="M25.71,20.35l-5-5L30.48,5.5,26.09,1.11l-9.81,9.81L6.72,1.36a1.5,1.5,0,0,0-2.08,0L1.36,4.64a1.47,1.47,0,0,0,0,2.08l9.56,9.56L8.41,18.79l1.14,1.14-.94-.14-.28,0H8.07a3.55,3.55,0,0,0-2.58,1.1,1.12,1.12,0,0,0-.14.15l-.12.14a3.85,3.85,0,0,0-.26.35,6.93,6.93,0,0,0-.86,2.39L4,24.62c-.39,2-.72,2.63-1.57,3.1l-1.73.93H3.58c3.53,0,5.2-.6,7.13-2.56a3.67,3.67,0,0,0,1-3.18L11.56,22,9.77,20.14l3,3,2.51-2.51,5,5,.34.34,7.31,2-2-7.31ZM10,25.54a8.72,8.72,0,0,1-3.42,2l-.63.23.83-2-2,1.75,1.77-3L4.71,25.92l.12-.78a8.41,8.41,0,0,1,1-3.12l.1-.15,0,0A.93.93,0,0,1,6,21.8a.52.52,0,0,1,.1-.11l.07-.08h0l0-.08a2.48,2.48,0,0,1,1.85-.85,2.54,2.54,0,0,1,1.87.81A3.06,3.06,0,0,1,10,25.54Zm16.14-23,3,3L20,14.6l-3-3ZM10.63,6.68,12,8.05,8.05,12,6.68,10.63ZM6,9.92,4.61,8.55,8.55,4.61,9.92,6ZM2.06,5.35,5.35,2.06a.48.48,0,0,1,.66,0L7.85,3.9l-3.95,4L2.06,6A.47.47,0,0,1,2.06,5.35ZM12.8,21.77l-3-3,1.8-1.8,3,3ZM16,20l-.71-.71-3-3-.7-.71L8.76,12.71l4-4,2.86,2.87.71.7,3,3L20,16l5.31,5.31-4,4Zm10.07,4.91-1.21,1.21-2.32-.62,2.91-2.91ZM.8,19.94c-.52-.76-.62-1-.56-1.18h0c0-.14.14-.25.37-.36a.51.51,0,0,1,.48,0c.5.29.94,1.51,1.27,3.32.13.7.23,1.46.32,2.23,0,.28.06.55.08.82,0,.08,0,.22,0,.33h0A9.63,9.63,0,0,0,.8,19.94Zm4.94-4.41A9.79,9.79,0,0,0,3.91,20l0-.37c.07-.75.16-1.5.27-2.2.29-1.85.72-3.12,1.21-3.42a.53.53,0,0,1,.5,0,.51.51,0,0,1,.35.32.28.28,0,0,1,0,.09C6.3,14.62,6.22,14.77,5.74,15.53Z" /></svg>