<svg xmlns="http://www.w3.org/2000/svg" width="30" height="30" viewBox="0 0 30 30"><path d="M26,0H4A2,2,0,0,0,2,2V28a2,2,0,0,0,2,2H26a2,2,0,0,0,2-2V2A2,2,0,0,0,26,0Zm1,28a1,1,0,0,1-1,1H4a1,1,0,0,1-1-1V2A1,1,0,0,1,4,1H26a1,1,0,0,1,1,1ZM23,3H7A2,2,0,0,0,5,5v7a2,2,0,0,0,2,2H23a2,2,0,0,0,2-2V5A2,2,0,0,0,23,3Zm1,9a1,1,0,0,1-1,1H7a1,1,0,0,1-1-1V5A1,1,0,0,1,7,4H23a1,1,0,0,1,1,1Zm-1,3H7a2,2,0,0,0-2,2v9a2,2,0,0,0,2,2H23a2,2,0,0,0,2-2V17A2,2,0,0,0,23,15ZM6,17a1,1,0,0,1,1-1h8v5H6Zm0,9V22h9v5H7A1,1,0,0,1,6,26Zm18,0a1,1,0,0,1-1,1H16V22h8Zm-8-5V16h7a1,1,0,0,1,1,1v4Zm2-3h4v1H18ZM14,8h3V9H14ZM12,19H11v1H10V19H9V18h1V17h1v1h1Zm10,5H18V23h4Zm-4,2V25h4v1ZM11.22,24.5l.7.7-.72.72-.7-.7-.7.7-.72-.72.7-.7-.7-.7.72-.72.7.7.7-.7.72.72ZM22,6.3V8H21V6.3A.29.29,0,0,0,20.7,6H19.19a.3.3,0,0,0-.3.29V8h-1V6.3A1.32,1.32,0,0,1,19.19,5H20.7A1.31,1.31,0,0,1,22,6.3ZM21,9h1V10.7A1.31,1.31,0,0,1,20.7,12H19.19a1.32,1.32,0,0,1-1.32-1.31V9h1V10.7a.3.3,0,0,0,.3.29H20.7A.29.29,0,0,0,21,10.7Z" /></svg>