<svg xmlns="http://www.w3.org/2000/svg" width="30" height="30" viewBox="0 0 30 30"><path d="M23.5,18A5.5,5.5,0,1,0,29,23.5,5.51,5.51,0,0,0,23.5,18Zm0,10A4.5,4.5,0,1,1,28,23.5,4.51,4.51,0,0,1,23.5,28ZM26,24.5a.5.5,0,0,1-.5.5h-2a.47.47,0,0,1-.5-.5V21.2a.47.47,0,0,1,.5-.5.44.44,0,0,1,.5.5V24h1.48A.47.47,0,0,1,26,24.5ZM3.13,11.5a.5.5,0,0,1,.5-.5H20.37a.5.5,0,0,1,0,1H3.63A.5.5,0,0,1,3.13,11.5ZM20.5,15H3.5a.5.5,0,0,1,0-1h17a.5.5,0,0,1,0,1Zm-17,5H17.56A7,7,0,0,0,17,21H3.5a.5.5,0,0,1,0-1Zm17-3c.28,0,.09.22.09.5a.65.65,0,0,1,0,.2c-.19.1-.37.19-.55.3H3.5a.5.5,0,0,1,0-1ZM2,24a1,1,0,0,1-1-1V6A1,1,0,0,1,2,5H6V6.6C6,7.37,6.45,8,7,8H8c.55,0,1-.63,1-1.4V5h6V6.6c0,.77.45,1.4,1,1.4h1c.55,0,1-.63,1-1.4V5h4a1,1,0,0,1,1,1V16.73c.17,0,.33,0,.5,0s.33,0,.5,0V6a2,2,0,0,0-2-2H18V2.41C18,1.64,17.54,1,17,1H16c-.55,0-1,.63-1,1.4V4H9V2.41C9,1.64,8.54,1,8,1H7c-.55,0-1,.63-1,1.4V4H2A2,2,0,0,0,0,6V23a2,2,0,0,0,2,2H16.62a6.64,6.64,0,0,1-.1-1ZM16,2.4a.82.82,0,0,1,.1-.4h.79a.72.72,0,0,1,.11.41V6.6a.82.82,0,0,1-.1.4h-.8a.82.82,0,0,1-.1-.4Zm-9,0A.82.82,0,0,1,7.1,2h.79A.72.72,0,0,1,8,2.41V6.6a.82.82,0,0,1-.1.4H7.1A.82.82,0,0,1,7,6.6Z" /></svg>