<svg xmlns="http://www.w3.org/2000/svg" width="30" height="30" viewBox="0 0 30 30"><path d="M17,17v2H13V17h4m1-1H12v4h6V16Zm-1,6v2H13V22h4m1-1H12v4h6V21Zm-1-9v2H13V12h4m1-1H12v4h6V11ZM9,17v2H5V17H9m1-1H4v4h6V16ZM9,22v2H5V22H9m1-1H4v4h6V21ZM9,12v2H5V12H9m1-1H4v4h6V11Zm15,6v2H21V17h4m1-1H20v4h6V16Zm-1,6v2H21V22h4m1-1H20v4h6V21Zm-1-9v2H21V12h4m1-1H20v4h6V11Zm1-6H22V3a1,1,0,0,0-1-1H20a1,1,0,0,0-1,1V5H11V3a1,1,0,0,0-1-1H9A1,1,0,0,0,8,3V5H3A2,2,0,0,0,1,7V27a2,2,0,0,0,2,2H27a2,2,0,0,0,2-2V7A2,2,0,0,0,27,5ZM20,3h1V7H20ZM9,3h1V7H9V3ZM28,27a1,1,0,0,1-1,1H3a1,1,0,0,1-1-1V7A1,1,0,0,1,3,6H8V7.58A.42.42,0,0,0,8.42,8h2.16A.42.42,0,0,0,11,7.58V6h8V7.58a.42.42,0,0,0,.42.42h2.16A.42.42,0,0,0,22,7.58V6h5a1,1,0,0,1,1,1Z" /></svg>