<svg xmlns="http://www.w3.org/2000/svg" width="30" height="30" viewBox="0 0 30 30"><path d="M23.5,18A5.5,5.5,0,1,0,29,23.5,5.51,5.51,0,0,0,23.5,18Zm0,10A4.5,4.5,0,1,1,28,23.5,4.51,4.51,0,0,1,23.5,28ZM12.5,8.89a6.61,6.61,0,1,0,6.61,6.61A6.62,6.62,0,0,0,12.5,8.89Zm0,12.22a5.61,5.61,0,1,1,5.61-5.61A5.62,5.62,0,0,1,12.5,21.11ZM13,15h3v1H12V12h1Zm12.77,7.14L24.21,23.7l1.56,1.56-.71.71L23.5,24.41,21.94,26l-.71-.71,1.56-1.56-1.56-1.56.71-.71L23.5,23l1.56-1.57ZM2,24a1,1,0,0,1-1-1V6A1,1,0,0,1,2,5H6V6.6C6,7.37,6.45,8,7,8H8c.55,0,1-.63,1-1.4V5h6V6.6c0,.77.45,1.4,1,1.4h1c.55,0,1-.63,1-1.4V5h4a1,1,0,0,1,1,1V16.73c.17,0,.33,0,.5,0s.33,0,.5,0V6a2,2,0,0,0-2-2H18V2.41C18,1.64,17.54,1,17,1H16c-.55,0-1,.63-1,1.4V4H9V2.41C9,1.64,8.54,1,8,1H7c-.55,0-1,.63-1,1.4V4H2A2,2,0,0,0,0,6V23a2,2,0,0,0,2,2H16.62a6.64,6.64,0,0,1-.1-1ZM16,2.4a.82.82,0,0,1,.1-.4h.79a.72.72,0,0,1,.11.41V6.6a.82.82,0,0,1-.1.4h-.8a.82.82,0,0,1-.1-.4Zm-9,0A.82.82,0,0,1,7.1,2h.79A.72.72,0,0,1,8,2.41V6.6a.82.82,0,0,1-.1.4H7.1A.82.82,0,0,1,7,6.6Z" /></svg>