<svg xmlns="http://www.w3.org/2000/svg" width="30" height="30" viewBox="0 0 30 30"><path d="M17,10H13.07a2,2,0,0,0-2,2V27a2,2,0,0,0,2,2H17a2,2,0,0,0,2-2V12A2,2,0,0,0,17,10Zm-3.93,1H17a1,1,0,0,1,1,1v3.4a2.93,2.93,0,0,1-.41.47l-.06-.09c-.52-1-1-1.86-1.63-1.94a.88.88,0,0,0-.78.33,3.06,3.06,0,0,0-.45,1c-.15.52-.37,1.23-.73,1.38a.89.89,0,0,1-.72-.12,2.32,2.32,0,0,1-1.15-1.16V12A1,1,0,0,1,13.07,11ZM17,28H13.07a1,1,0,0,1-1-1V16.88a2.94,2.94,0,0,0,.71.48,2.17,2.17,0,0,0,1,.27,1.39,1.39,0,0,0,.57-.12c.78-.33,1.06-1.26,1.29-2a5.94,5.94,0,0,1,.21-.6,6.74,6.74,0,0,1,.8,1.32,1,1,0,0,0,.84.63,1,1,0,0,0,.52-.12V27A1,1,0,0,1,17,28ZM7.5,16h-6a.5.5,0,0,1,0-1h6a.5.5,0,0,1,0,1ZM29,15.5a.5.5,0,0,1-.5.5h-6a.5.5,0,0,1,0-1h6A.5.5,0,0,1,29,15.5ZM15,9.08A3.1,3.1,0,0,0,18.1,6c0-1.55-2.42-4.93-2.7-5.31L15,.11l-.4.56c-.28.38-2.7,3.76-2.7,5.31A3.1,3.1,0,0,0,15,9.08Zm0-7.25c.94,1.38,2.1,3.34,2.1,4.15A2.1,2.1,0,0,1,15,8.08,2.07,2.07,0,0,1,14.5,8V7.5h1v-2h-2v1H13A2.25,2.25,0,0,1,12.9,6C12.9,5.17,14.06,3.21,15,1.83ZM9.64,9.48a.5.5,0,0,1-.35.85.47.47,0,0,1-.35-.15L5,6.28a.5.5,0,0,1,0-.71.51.51,0,0,1,.71,0ZM24.89,24.72a.51.51,0,0,1,0,.71.51.51,0,0,1-.36.15.5.5,0,0,1-.35-.15l-3.72-3.72a.5.5,0,0,1,0-.71.48.48,0,0,1,.7,0ZM9.51,21a.51.51,0,0,1,0,.71L5.74,25.43a.51.51,0,0,1-.36.15A.49.49,0,0,1,5,25.43a.5.5,0,0,1,0-.71L8.8,21A.51.51,0,0,1,9.51,21ZM20.63,10.33a.51.51,0,0,1-.36-.15.5.5,0,0,1,0-.7l3.91-3.91a.5.5,0,0,1,.71.71L21,10.18A.49.49,0,0,1,20.63,10.33Z" /></svg>