<svg xmlns="http://www.w3.org/2000/svg" width="30" height="30" viewBox="0 0 30 30"><path d="M14,6.19,8.4,5l-.15,0a.69.69,0,0,0-.67.54l-.74,3.4C5.71,14,6.2,19.18,8.11,19.61l-.49-.11L5.74,28.06l-2.25-.5-.22,1,5.49,1.2.21-1-2.25-.5L8.6,19.71l-.49-.1.26,0c1.88,0,4.32-4.32,5.4-9.23L14.52,7A.68.68,0,0,0,14,6.19ZM7.81,9.09,8.49,6l5,1.1-.68,3.09c0,.1,0,.2-.07.31a3.24,3.24,0,0,0-2.9.25,2.57,2.57,0,0,1-2.34.16C7.57,10.31,7.68,9.7,7.81,9.09Zm.52,9.54h0c-.19,0-.77-.63-1-2.73a19.55,19.55,0,0,1,0-4,3.58,3.58,0,0,0,1.11.18,3.8,3.8,0,0,0,1.82-.49,2.24,2.24,0,0,1,2.17-.15C11.24,15.94,9.19,18.63,8.33,18.63Zm18.72,8.71-2.23.56-2.16-8.49-.49.13c1.9-.49,2.22-5.68.93-10.77L22.24,5.4a.69.69,0,0,0-.66-.52l-.17,0L15.86,6.31a.7.7,0,0,0-.5.84l.86,3.37c1.23,4.83,3.78,9.05,5.66,9.05a1.36,1.36,0,0,0,.29,0l-.48.12,2.16,8.49-2.24.57.25,1L27.3,28.3ZM21.35,6,22.13,9c0,.1,0,.2.07.31a3.24,3.24,0,0,0-2.48,1.53,2.62,2.62,0,0,1-2,1.19c-.19-.57-.36-1.16-.52-1.78L16.41,7.2Zm.53,12.62c-.83,0-2.53-2.13-3.83-5.55a3.57,3.57,0,0,0,2.5-1.6,2.26,2.26,0,0,1,1.86-1.1,21,21,0,0,1,.43,5.48C22.67,17.91,22.11,18.52,21.88,18.57ZM15.5,3.29a.5.5,0,0,1-.5-.5V.34a.5.5,0,1,1,1,0V2.79A.5.5,0,0,1,15.5,3.29Zm2.12.93a.42.42,0,0,1-.17-.34.5.5,0,0,1,.17-.34l1.13-1.18a.47.47,0,0,1,.73,0,.42.42,0,0,1,.17.34.52.52,0,0,1-.17.34L18.29,4.22a.39.39,0,0,1-.33.17A.63.63,0,0,1,17.62,4.22ZM11.53,3.09a.49.49,0,0,1,0-.73.47.47,0,0,1,.73,0l1.13,1.13a.49.49,0,0,1,0,.73.35.35,0,0,1-.34.17.66.66,0,0,1-.34-.17Z" /></svg>