<svg xmlns="http://www.w3.org/2000/svg" width="30" height="30" viewBox="0 0 30 30"><path d="M20,18.93a5.32,5.32,0,1,0,5.22,5.32A5.28,5.28,0,0,0,20,18.93Zm0,9.38a4.13,4.13,0,1,1,4-4.12A4.08,4.08,0,0,1,20,28.31Zm2-5.52-1.37,1.4L22,25.58a.46.46,0,0,1,0,.65.44.44,0,0,1-.64,0L20,24.84l-1.37,1.39a.44.44,0,0,1-.64,0,.46.46,0,0,1,0-.65l1.37-1.39L18,22.79a.46.46,0,0,1,0-.65.43.43,0,0,1,.64,0L20,23.53l1.37-1.39a.43.43,0,0,1,.64,0A.46.46,0,0,1,22,22.79ZM15,11.5a.5.5,0,0,1-.5.5h-8a.5.5,0,0,1,0-1h8A.5.5,0,0,1,15,11.5Zm0,3a.5.5,0,0,1-.5.5h-8a.5.5,0,0,1,0-1h8A.5.5,0,0,1,15,14.5Zm0,3a.5.5,0,0,1-.5.5h-8a.5.5,0,0,1,0-1h8A.5.5,0,0,1,15,17.5Zm-10-6a.5.5,0,0,1-.5.5h-1a.5.5,0,0,1,0-1h1A.5.5,0,0,1,5,11.5Zm0,3a.5.5,0,0,1-.5.5h-1a.5.5,0,0,1,0-1h1A.5.5,0,0,1,5,14.5Zm0,3a.5.5,0,0,1-.5.5h-1a.5.5,0,0,1,0-1h1A.5.5,0,0,1,5,17.5Zm0,3a.5.5,0,0,1-.5.5h-1a.5.5,0,0,1,0-1h1A.5.5,0,0,1,5,20.5Zm9.5-.5a.28.28,0,0,1,.13,0,6.31,6.31,0,0,0-.73,1H6.5a.5.5,0,0,1,0-1ZM2,24a1,1,0,0,1-1-1V7A1,1,0,0,1,2,6H3A2,2,0,0,0,4.93,8h9.6a2,2,0,0,0,1.93-2H17a1,1,0,0,1,1,1V18a5.69,5.69,0,0,1,1-.19V7a2,2,0,0,0-2-2h-.54V5a2,2,0,0,0-1.93-2H12.62V2.19A2.22,2.22,0,0,0,10.45-.08H9A2.23,2.23,0,0,0,6.83,2.19V3H4.93A2,2,0,0,0,3,5V5H2A2,2,0,0,0,0,7V23a2,2,0,0,0,2,2H12.87c0-.12,0-.24,0-.36s0-.43,0-.64ZM4,5a1,1,0,0,1,.93-1h2.9V2.19A1.23,1.23,0,0,1,9,.92h1.44a1.23,1.23,0,0,1,1.17,1.27V4h2.91a1,1,0,0,1,.93,1V6a1,1,0,0,1-.93,1H4.93A1,1,0,0,1,4,6V5Z" /></svg>