<svg xmlns="http://www.w3.org/2000/svg" width="30" height="30" viewBox="0 0 30 30"><path d="M22,10.5a.5.5,0,0,1-.5.5h-9a.5.5,0,0,1,0-1h9A.5.5,0,0,1,22,10.5ZM21.5,14h-9a.5.5,0,0,0,0,1h9a.5.5,0,0,0,0-1Zm0,4h-9a.5.5,0,0,0,0,1h9a.5.5,0,0,0,0-1Zm0,4h-9a.5.5,0,0,0,0,1h9a.5.5,0,0,0,0-1Zm0,4h-9a.5.5,0,0,0,0,1h9a.5.5,0,0,0,0-1Zm-11-16h-2a.5.5,0,0,0,0,1h2a.5.5,0,0,0,0-1Zm0,4h-2a.5.5,0,0,0,0,1h2a.5.5,0,0,0,0-1Zm0,4h-2a.5.5,0,0,0,0,1h2a.5.5,0,0,0,0-1Zm0,4h-2a.5.5,0,0,0,0,1h2a.5.5,0,0,0,0-1Zm0,4h-2a.5.5,0,0,0,0,1h2a.5.5,0,0,0,0-1ZM25,7V28a2,2,0,0,1-2,2H7a2,2,0,0,1-2-2V7A2,2,0,0,1,7,5H8a2,2,0,0,1,2-2h2V2.25A2.25,2.25,0,0,1,14.25,0h1.5A2.25,2.25,0,0,1,18,2.25V3h2a2,2,0,0,1,2,2h1A2,2,0,0,1,25,7ZM9,5V6H9a1,1,0,0,0,1,1H20a1,1,0,0,0,1-1h0V5h0a1,1,0,0,0-1-1H17V2.25A1.25,1.25,0,0,0,15.75,1h-1.5A1.25,1.25,0,0,0,13,2.25V4H10A1,1,0,0,0,9,5ZM24,7a1,1,0,0,0-1-1H22a2,2,0,0,1-2,2H10A2,2,0,0,1,8,6H7A1,1,0,0,0,6,7V28a1,1,0,0,0,1,1H23a1,1,0,0,0,1-1Z" /></svg>