<svg xmlns="http://www.w3.org/2000/svg" width="30" height="30" viewBox="0 0 30 30"><path d="M7,17.17V20H17V17.17a4.16,4.16,0,0,0-3.12-4,2.74,2.74,0,1,0-3.76,0A4.16,4.16,0,0,0,7,17.17Zm5-7.76a1.75,1.75,0,1,1-1.74,1.75A1.74,1.74,0,0,1,12,9.41ZM11.17,14h1.66A3.17,3.17,0,0,1,16,17.17V19H8V17.17A3.17,3.17,0,0,1,11.17,14ZM4.8,24a.83.83,0,0,1-.8-.85V1.85A.83.83,0,0,1,4.8,1h9.79l.41.41V5a2.16,2.16,0,0,0,2,2h3.59l.41.41v10a6.65,6.65,0,0,1,1-.11V7L15,0H4.8A1.83,1.83,0,0,0,3,1.85v21.3A1.83,1.83,0,0,0,4.8,25H16a6.51,6.51,0,0,1-.13-1ZM16,2.41,19.59,6H17a1.17,1.17,0,0,1-1-1ZM25.52,25l1,.25a4.34,4.34,0,0,1-8.29.38L17.43,27,17,26.79l1-1.87a.8.8,0,0,0,0-.15l.13,0,.33-.6L21,25.78l-.27.42-1.59-1A3.34,3.34,0,0,0,25.52,25Zm-3.24-5.44a4.23,4.23,0,0,1,3.94,2.75L27,20.9l.44.24-1,1.87s0,.1,0,.16l-.14,0-.32.59-2.54-1.6.27-.43,1.6,1a3.22,3.22,0,0,0-6.15.13l-1-.27A4.24,4.24,0,0,1,22.28,19.56Z" /></svg>