<svg xmlns="http://www.w3.org/2000/svg" width="30" height="30" viewBox="0 0 30 30"><path d="M17.44,0H5.2A2.2,2.2,0,0,0,3,2.22V28a2.2,2.2,0,0,0,2.2,2.22H23.8A2.2,2.2,0,0,0,26,28V9ZM18,2.41,23.59,8H19.4A1.61,1.61,0,0,1,18,6.6ZM25,28a1.21,1.21,0,0,1-1.2,1.22H5.2A1.21,1.21,0,0,1,4,28V2.22A1.21,1.21,0,0,1,5.2,1H17V6.6A2.57,2.57,0,0,0,19.4,9h5.22l.38.4ZM14.5,17a3.2,3.2,0,1,0-3.19-3.2A3.19,3.19,0,0,0,14.5,17Zm0-5.39a2.2,2.2,0,1,1-2.19,2.19A2.19,2.19,0,0,1,14.5,11.58ZM15.78,18H13.22A5.22,5.22,0,0,0,8,23.22V26H21V23.22A5.22,5.22,0,0,0,15.78,18ZM20,25H9V23.22A4.22,4.22,0,0,1,13.22,19h2.56A4.22,4.22,0,0,1,20,23.22Z" /></svg>