<svg xmlns="http://www.w3.org/2000/svg" width="30" height="30" viewBox="0 0 30 30"><path d="M20.83,14.07a.5.5,0,0,1,0,1H10.06a.5.5,0,0,1,0-1Zm0,3H10.06a.5.5,0,0,0,0,1H20.83a.5.5,0,0,0,0-1Zm0,3H10.06a.5.5,0,0,0,0,1H20.83a.5.5,0,0,0,0-1Zm-5-9.67a1,1,0,0,1-1-.85h-.65A1.55,1.55,0,0,0,15.6,11v.77H16V11a1.45,1.45,0,0,0,1.43-1.25c.1-.77-.38-1.28-1.29-1.51l-.63-.16c-.61-.14-.68-.46-.68-.67a.82.82,0,0,1,.9-.73.81.81,0,0,1,.91.79h.65A1.38,1.38,0,0,0,16,6.08V5.37H15.6v.7a1.42,1.42,0,0,0-1.39,1.35c0,.42.15,1,1.17,1.26l.62.15c.44.09.87.35.82.86A.86.86,0,0,1,15.85,10.4ZM27.39,2.53a.71.71,0,0,1-.32.57A5.36,5.36,0,0,0,24,7h0V25.07h0A3,3,0,0,1,21.06,28H5a5,5,0,0,1-5-5V22H7V7a5.23,5.23,0,0,1,5.21-5H26.35a2.16,2.16,0,0,1,.7.07A.47.47,0,0,1,27.39,2.53ZM16.94,27.07a5.92,5.92,0,0,1-2.79-4.14H.93V23A4.07,4.07,0,0,0,5,27.07H16.94ZM25.18,3H12.12A4.21,4.21,0,0,0,8,7V22H15a5,5,0,0,0,5,5,7,7,0,0,0,1.52-.13A2,2,0,0,0,23,25.07h0V7A5.71,5.71,0,0,1,25.18,3Z" /></svg>