<svg xmlns="http://www.w3.org/2000/svg" width="30" height="30" viewBox="0 0 30 30"><path d="M14.35,10.65a.48.48,0,0,1,0,.7L12,13.71l-1.35-1.36a.49.49,0,0,1,.7-.7l.65.64,1.65-1.64A.48.48,0,0,1,14.35,10.65Zm-.7,4L12,16.29l-.65-.64a.49.49,0,1,0-.7.7L12,17.71l2.35-2.36a.49.49,0,0,0-.7-.7Zm0,4L12,20.29l-.65-.64a.49.49,0,0,0-.7.7L12,21.71l2.35-2.36a.49.49,0,0,0-.7-.7ZM16.5,12h6a.5.5,0,0,0,0-1h-6a.5.5,0,0,0,0,1ZM25,22.94V25h0a3,3,0,0,1-2.94,3H6a5,5,0,0,1-5-5V22H8V7a5.23,5.23,0,0,1,5.21-5H27.35a2.16,2.16,0,0,1,.7.07.47.47,0,0,1,.34.46.71.71,0,0,1-.32.57A5.36,5.36,0,0,0,25,7h0v5.06a5.46,5.46,0,0,1,0,10.88Zm-7.06,4.13a5.92,5.92,0,0,1-2.79-4.14H1.93V23A4.07,4.07,0,0,0,6,27.07H17.94Zm6.11-3.32v-.81A5.46,5.46,0,0,1,19.65,20H16.5a.5.5,0,0,1,0-1h2.75a5.46,5.46,0,0,1,0-3H16.5a.5.5,0,0,1,0-1h3.15a5.46,5.46,0,0,1,4.4-2.94V7a5.64,5.64,0,0,1,2.13-4H13.12A4.21,4.21,0,0,0,9,7V22H16a5,5,0,0,0,5,5,7,7,0,0,0,1.52-.13,2.11,2.11,0,0,0,1.53-2.1v-1Zm5-6.25A4.54,4.54,0,1,0,24.5,22,4.55,4.55,0,0,0,29,17.5Zm-5.89-2.29a.38.38,0,0,0,.38.66,1.88,1.88,0,1,1-.62,2.68l.39-.14-1.22-1.16-.19,1.67.29-.1h0a2.64,2.64,0,1,0,1-3.61Z" /></svg>