<svg xmlns="http://www.w3.org/2000/svg" width="30" height="30" viewBox="0 0 30 30"><path d="M22.71,23.48a.61.61,0,0,1-.13.45l-2.45,3a.59.59,0,0,1-.46.19h-.13a.58.58,0,0,1-.45-.19l-1.62-1.61a.59.59,0,0,1-.19-.46.58.58,0,0,1,.19-.45.37.37,0,0,1,.33-.19h.06a.55.55,0,0,1,.39.19l1.16,1.16L21.48,23a.41.41,0,0,1,.39-.2,1.71,1.71,0,0,1,.65.33A.34.34,0,0,1,22.71,23.48Zm2.53,1.16a5.39,5.39,0,1,1-5.39-5.39A5.39,5.39,0,0,1,25.24,24.64Zm-1,0A4.39,4.39,0,1,0,19.85,29,4.4,4.4,0,0,0,24.24,24.64ZM4,6H15.56c.19,0,.35-.22.35-.5s-.16-.5-.35-.5H4c-.19,0-.35.22-.35.5S3.79,6,4,6ZM15.65,8H3.88c-.19,0-.34.22-.34.5s.15.5.34.5H15.65c.2,0,.35-.22.35-.5S15.85,8,15.65,8Zm0,3H3.88c-.19,0-.34.22-.34.5s.15.5.34.5H15.65c.2,0,.35-.22.35-.5S15.85,11,15.65,11Zm0,3H3.88c-.19,0-.34.22-.34.5s.15.5.34.5H15.65c.2,0,.35-.22.35-.5S15.85,14,15.65,14Zm0,3H3.88c-.19,0-.34.22-.34.5s.15.5.34.5H15.65c.2,0,.35-.22.35-.5S15.85,17,15.65,17ZM2,24a1,1,0,0,1-1-1V2A1,1,0,0,1,2,1H17a1,1,0,0,1,1,1V18a5.55,5.55,0,0,1,1-.21V2a2,2,0,0,0-2-2H2A2,2,0,0,0,0,2V23a2,2,0,0,0,2,2H13c0-.11,0-.22,0-.33s0-.45,0-.67Z" /></svg>