<svg xmlns="http://www.w3.org/2000/svg" width="30" height="30" viewBox="0 0 30 30"><path d="M21,20.5a.51.51,0,0,1-.5.5H11a.5.5,0,1,1,0-1h9.52A.49.49,0,0,1,21,20.5Zm-10.45-6c0,.26.17.5.36.5h6.9c.2,0,.36-.22.36-.5S18,14,17.8,14H10.9C10.7,14,10.54,14.22,10.54,14.5Zm.29-2.5h6c.17,0,.31-.22.31-.5S17,11,16.87,11h-6c-.17,0-.31.22-.31.5S10.67,12,10.83,12Zm0-3h6c.17,0,.31-.22.31-.5S17,8,16.87,8h-6c-.17,0-.31.22-.31.5S10.67,9,10.83,9ZM26.5,17.06l2.19,4-.88.48-2.2-3.95a5.36,5.36,0,0,1-1.61.4V25h0a3,3,0,0,1-2.94,3H5a5,5,0,0,1-5-5V22H7V7a5.23,5.23,0,0,1,5.21-5H26.35a2.16,2.16,0,0,1,.7.07.47.47,0,0,1,.34.46.71.71,0,0,1-.32.57A5.36,5.36,0,0,0,24,7h0v.06a5.46,5.46,0,0,1,2.5,10ZM23.5,8A4.54,4.54,0,1,0,28,12.5,4.55,4.55,0,0,0,23.5,8ZM16.94,27.07a5.92,5.92,0,0,1-2.79-4.14H.93V23A4.07,4.07,0,0,0,5,27.07H16.94Zm6.11-3.32V17.94A5.28,5.28,0,0,1,21,17.33a.51.51,0,0,1,0,.17.49.49,0,0,1-.5.5H11a.51.51,0,0,1-.5-.5A.5.5,0,0,1,11,17h9.44a5.46,5.46,0,0,1,2.64-9.94V7a5.64,5.64,0,0,1,2.13-4H12.12A4.21,4.21,0,0,0,8,7V22H15a5,5,0,0,0,5,5,7,7,0,0,0,1.52-.13,2.11,2.11,0,0,0,1.53-2.1v-1ZM20.5,13a.5.5,0,0,0,1,0A2.5,2.5,0,0,1,24,10.5a.5.5,0,0,0,0-1A3.5,3.5,0,0,0,20.5,13Z" /></svg>