<svg xmlns="http://www.w3.org/2000/svg" width="30" height="30" viewBox="0 0 30 30"><path d="M29.66.88a2.31,2.31,0,0,0-.54-.54A2.05,2.05,0,0,0,28,0H4.63A2,2,0,0,0,3.11.71,1.47,1.47,0,0,1,3,.84a1.88,1.88,0,0,0-.24.44.33.33,0,0,0,0,.06.53.53,0,0,0,0,.12l-.06.29c0,.05,0,.11,0,.16s0,.06,0,.09a1.79,1.79,0,0,0,0,.23s0,.09,0,.13a1.45,1.45,0,0,0,.12.42s0,0,0,0A1.86,1.86,0,0,0,3,3.15l.09.11a2,2,0,0,0,.2.21l.12.1a1.14,1.14,0,0,0,.23.15l.14.08a1.25,1.25,0,0,0,.27.1L4.19,4a2.12,2.12,0,0,0,.44,0H5V28a2,2,0,0,0,2,2H25a2,2,0,0,0,2-2V27h1a2,2,0,0,0,2-2V2A2.05,2.05,0,0,0,29.66.88ZM29,2a1,1,0,1,1-1-1A1,1,0,0,1,29,2ZM4.63,3a1,1,0,0,1,0-2H26.28A2,2,0,0,0,26,2a2,2,0,0,0,.28,1H4.63ZM25,29H7a1,1,0,0,1-1-1V4H26V28A1,1,0,0,1,25,29Zm4-4a1,1,0,0,1-1,1H27V4h1a2,2,0,0,0,1-.27h0ZM16.75,7.37a1.11,1.11,0,0,0-1.85,0l-5.31,9A1.07,1.07,0,0,0,10.52,18H21.13a1.05,1.05,0,0,0,.93-.54,1.07,1.07,0,0,0,0-1.08ZM21.13,17H10.52l-.07-.11,5.31-9-.43-.26.56.26,5.3,9,.43-.25ZM22,20.5a.5.5,0,0,1-.5.5h-11a.5.5,0,0,1,0-1h11A.5.5,0,0,1,22,20.5Zm0,3a.5.5,0,0,1-.5.5h-11a.5.5,0,0,1,0-1h11A.5.5,0,0,1,22,23.5ZM15,10.26h1V14H15ZM15,15h1v1H15Z" /></svg>