<svg xmlns="http://www.w3.org/2000/svg" width="30" height="30" viewBox="0 0 30 30"><path d="M15,1C10,1,5,8,5,14.75,5,22.34,8.92,28.5,15,28.5s10-6.16,10-13.75C25,8,20,1,15,1Zm0,1c3.73,0,7.63,4.76,8.7,10H6.3C7.37,6.76,11.27,2,15,2Zm0,25.5c-4.15,0-7.38-3.4-8.54-8.5H23.54C22.38,24.1,19.15,27.5,15,27.5ZM23.73,18H6.27A19.88,19.88,0,0,1,6,14.75,12.88,12.88,0,0,1,6.13,13H23.87A12.88,12.88,0,0,1,24,14.75,19.88,19.88,0,0,1,23.73,18ZM15,14a1.5,1.5,0,1,0,1.5,1.5A1.5,1.5,0,0,0,15,14Zm0,2a.5.5,0,1,1,.5-.5A.5.5,0,0,1,15,16Zm6-2a1.5,1.5,0,1,0,1.5,1.5A1.5,1.5,0,0,0,21,14Zm0,2a.5.5,0,0,1,0-1,.5.5,0,1,1,0,1Zm-12-2a1.5,1.5,0,1,0,1.5,1.5A1.5,1.5,0,0,0,9.05,14Zm0,2a.5.5,0,1,1,.5-.5A.5.5,0,0,1,9.05,16Z" /></svg>