<svg xmlns="http://www.w3.org/2000/svg" width="30" height="30" viewBox="0 0 30 30"><path d="M19.42,17.13l8.09,8.09a3.73,3.73,0,0,1-2.27.78H4.76a4.87,4.87,0,0,1-2.39-.66l8.47-8.47,4.34,3h0a.57.57,0,0,0,.25.08h0a.51.51,0,0,0,.26-.09h0Zm8.47-9.3A3.83,3.83,0,0,0,25.24,7H4.76C3.51,7,2.87,7,2,8a2.87,2.87,0,0,0-1,2.64V22.26a3.94,3.94,0,0,0,.65,2.39L10,16.29,3.05,11.48a.5.5,0,1,1,.57-.82l11.84,8.19,10.91-8.18a.5.5,0,0,1,.7.1.51.51,0,0,1-.1.7l-6.74,5,8,8A3.73,3.73,0,0,0,29,22.24V10.61A3.91,3.91,0,0,0,27.89,7.83Z" /></svg>