<?xml version="1.0" encoding="utf-8"?>
<!-- Generator: Adobe Illustrator 23.0.1, SVG Export Plug-In . SVG Version: 6.00 Build 0)  -->
<svg version="1.1" id="Layer_1" xmlns="http://www.w3.org/2000/svg" xmlns:xlink="http://www.w3.org/1999/xlink" x="0px" y="0px"
	 viewBox="0 0 30 30" style="enable-background:new 0 0 30 30;" xml:space="preserve">
<style type="text/css">
	.st0{fill:#555555;}
</style>
<path class="st0" d="M4.4,5.2L3.7,4.8L2.9,5.2l0.1-0.8L2.5,3.8l0.8-0.1l0.4-0.8l0.4,0.8l0.8,0.1L4.3,4.4L4.4,5.2z M27.1,7l0.6,0.6
	l0.1-0.8l0.8-0.4L27.9,6l-0.1-0.8l-0.6,0.6l-0.8-0.1l0.4,0.8l-0.4,0.8L27.1,7z M28.3,22.8l-0.8,0.3l-0.7-0.5l0,0.9l-0.7,0.5l0.8,0.3
	l0.3,0.8l0.5-0.7l0.9,0L28,23.6L28.3,22.8z M2.5,18.5L1.8,19L1,18.8l0.3,0.8l-0.5,0.7l0.9,0l0.5,0.7l0.3-0.8l0.8-0.3l-0.7-0.5
	L2.5,18.5z M10.1,26.8l-0.2-0.4l-0.2,0.4l-0.5,0.1l0.3,0.3l-0.1,0.5l0.4-0.2l0.4,0.2l-0.1-0.5l0.3-0.3L10.1,26.8z M26.2,20.5
	c0.1-0.2-0.1-0.6-0.4-0.7L17.9,16h5.8c0.2,0,0.4-0.3,0.4-0.6s-0.2-0.6-0.4-0.6h-5.5l8.1-3.5c0.3-0.1,0.5-0.5,0.4-0.8
	c-0.1-0.3-0.5-0.4-0.8-0.3l-8,3.5c0-0.1-0.1-0.1-0.1-0.2l3-3c0.1-0.1,0.1-0.4,0-0.5c-0.2-0.2-0.4-0.2-0.5,0l-2.9,2.9
	c0,0,0-0.1-0.1-0.1l2.5-7.7c0.1-0.3-0.1-0.7-0.4-0.8c-0.3-0.1-0.7,0.1-0.8,0.4L16,12.1c0,0,0,0,0,0V6c0-0.3-0.2-0.5-0.5-0.5
	S15,5.7,15,6v5.8l-2.9-8.1c-0.1-0.4-0.5-0.6-0.8-0.5s-0.4,0.5-0.3,0.8l2.8,8c-0.2,0.1-0.3,0.1-0.5,0.2L9.3,8.3
	c-0.2-0.2-0.5-0.2-0.7,0S8.4,8.8,8.6,9l3.6,3.6l-7-3.3c-0.3-0.2-0.7,0-0.9,0.4c-0.2,0.4,0,0.8,0.3,0.9l7.5,3.5
	C12,14.2,12,14.4,12,14.6H4.9c-0.4,0-0.7,0.2-0.7,0.5s0.3,0.5,0.7,0.5H12c0,0.1,0.1,0.2,0.1,0.4l-3.7,1.6c-0.2,0.1-0.3,0.4-0.1,0.6
	s0.4,0.4,0.5,0.3l3.8-1.6c0,0.1,0.1,0.1,0.1,0.2l-6.1,6.1c-0.3,0.3-0.3,0.7-0.1,0.9s0.6,0.2,0.9-0.1l6.1-6.1L11.1,25
	c-0.1,0.3,0.1,0.7,0.4,0.8c0.3,0.1,0.7,0,0.8-0.4l2.3-7.1v6.1c0,0.3,0.2,0.5,0.5,0.5s0.5-0.2,0.5-0.5v-6.3l2.6,7.3
	c0.1,0.3,0.5,0.5,0.8,0.3c0.4-0.1,0.6-0.5,0.4-0.8L17,17.8l4.4,4.4c0.2,0.2,0.5,0.2,0.7,0s0.2-0.5,0-0.7L17.6,17l7.8,3.6
	C25.7,20.8,26.1,20.7,26.2,20.5z M20.5,2C20.8,2,21,1.7,21,1.5C21,1.2,20.8,1,20.5,1C20.3,1,20,1.2,20,1.5C20,1.7,20.3,2,20.5,2z
	 M23.4,27.1c-0.3,0-0.5,0.2-0.5,0.5c0,0.3,0.2,0.5,0.5,0.5c0.3,0,0.5-0.2,0.5-0.5C23.9,27.3,23.6,27.1,23.4,27.1z M2.5,27.1
	c-0.3,0-0.5,0.2-0.5,0.5C2,27.8,2.2,28,2.5,28s0.5-0.2,0.5-0.5C2.9,27.3,2.7,27.1,2.5,27.1z M1.5,11.9c0.3,0,0.5-0.2,0.5-0.5
	S1.8,11,1.5,11C1.2,11,1,11.2,1,11.4S1.2,11.9,1.5,11.9z"/>
</svg>
