<svg xmlns="http://www.w3.org/2000/svg" width="30" height="30" viewBox="0 0 30 30"><path d="M25.17,5.25c-2.55,2.29-5.43,1.13-8.48-.09C14.11,4.12,11.46,3.07,9,4.1A3,3,0,0,0,3,4.33,2.93,2.93,0,0,0,4,6.55a2,2,0,0,0,0,.24V28.21A1.8,1.8,0,0,0,5.79,30h.42A1.8,1.8,0,0,0,8,28.21v-11c2.51-2.1,5.33-1,8.31.22a15.48,15.48,0,0,0,5.53,1.49,5.73,5.73,0,0,0,4-1.58l.17-.15V4.5ZM6,2.35a2,2,0,1,1-2,2A2,2,0,0,1,6,2.35ZM7,28.21a.8.8,0,0,1-.79.79H5.79A.8.8,0,0,1,5,28.21V7.13a3,3,0,0,0,1,.19,3,3,0,0,0,1-.19V28.21ZM25,16.76c-2.51,2.1-5.33,1-8.31-.24A15.67,15.67,0,0,0,11.16,15,5.65,5.65,0,0,0,8,16V6.53a3,3,0,0,0,.81-1.24c2.3-1.29,4.84-.28,7.5.79,2.91,1.17,5.91,2.38,8.69.56Z" /></svg>