<svg xmlns="http://www.w3.org/2000/svg" width="30" height="30" viewBox="0 0 30 30"><path d="M26,26V24H24V17h2.5a.5.5,0,0,0,0-1H24v-.79A8.12,8.12,0,0,0,23.9,14h1.6a.5.5,0,0,0,0-1H23.69A8.1,8.1,0,0,0,17.5,7.25V5.86A2.21,2.21,0,0,0,16,3.69V.5a.5.5,0,0,0-1,0V3.69a2.21,2.21,0,0,0-1.5,2.17V7.5A8.09,8.09,0,0,0,8.25,13H5.5a.5.5,0,0,0,0,1H8a8.12,8.12,0,0,0-.1,1.21V16H4.5a.5.5,0,0,0,0,1H7.94v7H5v2H3v4H28V26ZM14.5,5.86a1.33,1.33,0,0,1,.57-1.12.49.49,0,0,0,.86,0,1.33,1.33,0,0,1,.57,1.12V7.13c-.18,0-.35,0-.53,0a8,8,0,0,0-1.47.15ZM16,8.1A7.05,7.05,0,0,1,22.65,13H9.29A7.05,7.05,0,0,1,16,8.1Zm-7,7.11A6.89,6.89,0,0,1,9.05,14H22.89A6.89,6.89,0,0,1,23,15.21V16H8.94Zm0,1.79H11v6.5a.5.5,0,0,0,1,0V17h2v6.5a.5.5,0,0,0,1,0V17h2v6.5a.5.5,0,0,0,1,0V17h2v6.5a.5.5,0,0,0,1,0V17h2v7H8.94ZM27,29H4V27H6V25H25v2h2Z" /></svg>