<svg xmlns="http://www.w3.org/2000/svg" width="30" height="30" viewBox="0 0 30 30"><path d="M29.08,9.12,15.6,3.27a1.48,1.48,0,0,0-1.2,0L.92,9.12a1.5,1.5,0,0,0,0,2.76L5,13.65V23h.1a5,5,0,0,1,9.8,0h.2a5,5,0,0,1,9.8,0H25V13.65l2-.87V16a1,1,0,0,0-1,1v2a1,1,0,0,0,1,1v1.5a.5.5,0,0,0,1,0V20a1,1,0,0,0,1-1V17a1,1,0,0,0-1-1V12.5a.35.35,0,0,0,0-.14l1.11-.48a1.5,1.5,0,0,0,0-2.76ZM24,19.53a6,6,0,0,0-9,1.16,6,6,0,0,0-9-1.16V14.09l8.4,3.64a1.45,1.45,0,0,0,1.2,0L24,14.09ZM28.69,11l-4.35,1.89L24,13h0L15.2,16.82a.55.55,0,0,1-.4,0L6,13H6l-.35-.15L1.31,11a.5.5,0,0,1,0-.92L14.8,4.18a.52.52,0,0,1,.4,0L28.69,10a.5.5,0,0,1,0,.92Z" /></svg>