<svg xmlns="http://www.w3.org/2000/svg" width="30" height="30" viewBox="0 0 30 30"><path d="M8,24a1,1,0,0,1-1-1V11H22v6a6.63,6.63,0,0,1,1,.08v-6.5l3.14,3.27.72-.7L23,9.13v-6A1.17,1.17,0,0,0,21.83,2H20.17A1.17,1.17,0,0,0,19,3.17V5L14.86.65,14.5.29l-.36.36-12,12.5.72.7L6,10.58V23a2,2,0,0,0,2,2h7.08A6.63,6.63,0,0,1,15,24ZM20,3.17A.18.18,0,0,1,20.17,3h1.66a.18.18,0,0,1,.17.17V8.09L20,6ZM6.55,10l8-8.28,8,8.28ZM25,23.08a.61.61,0,0,1-.13.45l-2.46,3a.59.59,0,0,1-.45.2H21.8a.58.58,0,0,1-.45-.2l-1.62-1.61a.59.59,0,0,1-.2-.45.6.6,0,0,1,.2-.46.34.34,0,0,1,.32-.19h.07a.52.52,0,0,1,.38.19l1.17,1.17,2.07-2.52a.39.39,0,0,1,.39-.2,1.78,1.78,0,0,1,.65.33A.36.36,0,0,1,25,23.08Zm-2.72-4.23a5.39,5.39,0,1,0,5.39,5.39A5.4,5.4,0,0,0,22.25,18.85Zm0,9.78a4.39,4.39,0,1,1,4.39-4.39A4.4,4.4,0,0,1,22.25,28.63Z" /></svg>