<svg xmlns="http://www.w3.org/2000/svg" width="30" height="30" viewBox="0 0 30 30"><path d="M20,18.17a4.18,4.18,0,0,0-3.3-4.08,2.74,2.74,0,1,0-3.4,0A4.18,4.18,0,0,0,10,18.17V21H20Zm-5-8A1.75,1.75,0,1,1,13.26,12,1.75,1.75,0,0,1,15,10.2ZM19,20H11V18.17A3.17,3.17,0,0,1,14.17,15h1.66A3.17,3.17,0,0,1,19,18.17Zm-.5,3.5a.5.5,0,0,1-.5.5H12a.5.5,0,0,1,0-1h6A.5.5,0,0,1,18.5,23.5Zm0,2a.5.5,0,0,1-.5.5H12a.5.5,0,0,1,0-1h6A.5.5,0,0,1,18.5,25.5ZM9.5,23a.5.5,0,1,0,.5.5A.5.5,0,0,0,9.5,23Zm0,.5Zm11-.5a.5.5,0,1,0,.5.5A.5.5,0,0,0,20.5,23Zm0,.5ZM9.5,25a.5.5,0,1,0,.5.5A.5.5,0,0,0,9.5,25Zm0,.5Zm11-.5a.5.5,0,1,0,.5.5A.5.5,0,0,0,20.5,25Zm0,.5ZM22,4H17V2.37A1.37,1.37,0,0,0,15.63,1H14.37A1.37,1.37,0,0,0,13,2.37V4H8A2,2,0,0,0,6,6V27a2,2,0,0,0,2,2H22a2,2,0,0,0,2-2V6A2,2,0,0,0,22,4ZM14,2.37A.38.38,0,0,1,14.37,2h1.26a.38.38,0,0,1,.37.37V5.63a.38.38,0,0,1-.37.37H14.37A.38.38,0,0,1,14,5.63ZM23,27a1,1,0,0,1-1,1H8a1,1,0,0,1-1-1V6A1,1,0,0,1,8,5h5v.63A1.37,1.37,0,0,0,14.37,7h1.26A1.37,1.37,0,0,0,17,5.63V5h5a1,1,0,0,1,1,1Z" /></svg>