<svg xmlns="http://www.w3.org/2000/svg" width="30" height="30" viewBox="0 0 30 30"><path d="M15,13.48a4,4,0,1,0-4-4.05A4.05,4.05,0,0,0,15,13.48Zm0-7.09a3,3,0,1,1-3,3A3,3,0,0,1,15,6.39Zm-1.29,17h0A1.56,1.56,0,0,0,15,24.1a1.59,1.59,0,0,0,1.29-.67c1.14-1.66,2.12-3.06,3-4.25C23.09,13.71,24,12.41,24,9.43a9,9,0,0,0-18,0c0,3,.91,4.28,4.75,9.75C11.59,20.37,12.57,21.77,13.71,23.43ZM15,1.43a8,8,0,0,1,8,8c0,2.66-.79,3.79-4.57,9.18-.84,1.19-1.82,2.59-3,4.25a.57.57,0,0,1-.92,0c-1.15-1.66-2.13-3.06-3-4.25C7.79,13.22,7,12.09,7,9.43A8,8,0,0,1,15,1.43Zm13.46,28.9L21.37,28,15,30,8,28,.89,30.33,6.52,18H9v1H7.16L2.74,28.67,8,27l7,2,6.39-2,5.22,1.69L22.18,19H21V18h1.83Z" /></svg>