<svg xmlns="http://www.w3.org/2000/svg" width="30" height="30" viewBox="0 0 30 30"><path d="M7.28,13.31a8.77,8.77,0,0,0-2.1.26.47.47,0,0,0-.31.23.38.38,0,0,0,0,.33,4.86,4.86,0,0,0,4.37,2.7A5.85,5.85,0,0,0,12.18,16a.35.35,0,0,0,.14-.53A6.4,6.4,0,0,0,7.28,13.31Zm2,2.69a3.6,3.6,0,0,1-3.07-1.77c.26,0,.67-.07,1.11-.1a5,5,0,0,1,3.75,1.48A4.24,4.24,0,0,1,9.28,16Zm20.3-5.39a27.1,27.1,0,0,0-4.86-.4c-2.95,0-7,.43-9.73,2.54-2.76-2.08-6.78-2.54-9.72-2.54a30.83,30.83,0,0,0-4.86.4.4.4,0,0,0-.4.46c1.38,5.85,3.88,8.72,7.62,8.72a14,14,0,0,0,4.87-1.16A8.93,8.93,0,0,1,15,17.94a8.93,8.93,0,0,1,2.45.69,15.08,15.08,0,0,0,5,1.16c3.75,0,6.25-2.87,7.63-8.72C30.07,10.87,29.85,10.67,29.58,10.61ZM22.44,19A13.94,13.94,0,0,1,18,17.88,8.88,8.88,0,0,0,15,17.09a9.44,9.44,0,0,0-3,.79A13.14,13.14,0,0,1,7.59,19c-3,0-5.09-2.5-6.38-7.63A26.58,26.58,0,0,1,5.31,11c2.86,0,6.78.46,9.28,2.59a.68.68,0,0,0,.85,0C17.94,11.5,21.86,11,24.72,11a31,31,0,0,1,4.1.29C27.57,16.46,25.48,19,22.44,19Zm-4.68-3.42a.34.34,0,0,0,.13.53,6.69,6.69,0,0,0,2.95.76,4.93,4.93,0,0,0,4.37-2.67.47.47,0,0,0,0-.33.5.5,0,0,0-.31-.23,8.87,8.87,0,0,0-2.1-.26A6.24,6.24,0,0,0,17.76,15.54Zm3.08.46a5,5,0,0,1-1.79-.39,5.15,5.15,0,0,1,3.75-1.48,7.3,7.3,0,0,1,1.11.1A3.7,3.7,0,0,1,20.84,16Z" /></svg>