<svg xmlns="http://www.w3.org/2000/svg" width="30" height="30" viewBox="0 0 30 30"><path d="M21.09,12.22,23,9.08V2.16A1.16,1.16,0,0,0,21.84,1H8.16A1.16,1.16,0,0,0,7,2.16V9.08l1.91,3.14a9.5,9.5,0,1,0,12.18,0ZM8,8.8V2.16A.16.16,0,0,1,8.16,2H21.84a.16.16,0,0,1,.16.16V8.8l-1.71,2.81a9.5,9.5,0,0,0-10.58,0ZM15,28A8.49,8.49,0,0,1,9.44,13.08a9.24,9.24,0,0,1,.79-.61,8.46,8.46,0,0,1,9.53,0h0a6.76,6.76,0,0,1,.8.61h0A8.49,8.49,0,0,1,15,28Zm5.19-9.09-3.14,2.46,1.16,3.55-3.21-2-3.21,2L13,21.37,9.81,18.91h4L15,15.08l1.16,3.83ZM13,3.67V8a.5.5,0,0,1-1,0V3.67a.5.5,0,0,1,1,0ZM17.08,8V3.67a.5.5,0,0,1,.5-.5.5.5,0,0,1,.5.5V8a.5.5,0,0,1-.5.5A.5.5,0,0,1,17.08,8Z" /></svg>