<svg xmlns="http://www.w3.org/2000/svg" width="30" height="30" viewBox="0 0 30 30"><path d="M12.06,16.72v-.61a1.44,1.44,0,0,1-.93-.42,1.47,1.47,0,0,1-.34-1h.6a.93.93,0,0,0,.23.69.89.89,0,0,0,.66.24,1,1,0,0,0,.66-.2.69.69,0,0,0,.24-.55.67.67,0,0,0-.21-.5,1.68,1.68,0,0,0-.69-.36,2.09,2.09,0,0,1-1-.55A1.18,1.18,0,0,1,11,12.6a1.26,1.26,0,0,1,.31-.86,1.34,1.34,0,0,1,.84-.4v-.7h.48v.71a1.25,1.25,0,0,1,.83.45,1.6,1.6,0,0,1,.3,1h-.59a1.14,1.14,0,0,0-.21-.72.72.72,0,0,0-.58-.26.8.8,0,0,0-.58.19.73.73,0,0,0-.2.55.67.67,0,0,0,.21.52,2,2,0,0,0,.7.36,2.71,2.71,0,0,1,.76.35,1.11,1.11,0,0,1,.4.44,1.22,1.22,0,0,1,.13.59,1.21,1.21,0,0,1-.32.87,1.44,1.44,0,0,1-.91.39v.61ZM3,15.4V12.24A4.29,4.29,0,0,0,5.52,10H19.26A4.25,4.25,0,0,0,22,12.31V14.4a6.89,6.89,0,0,1,1-.33V11.46A3.3,3.3,0,0,1,20,9H4.83A3.28,3.28,0,0,1,2,11.44V16.2A3.27,3.27,0,0,1,4.89,19H18a8.49,8.49,0,0,1,.36-1H5.67A4.26,4.26,0,0,0,3,15.4Zm27,5.1A5.5,5.5,0,1,1,24.5,15,5.51,5.51,0,0,1,30,20.5Zm-1,0A4.5,4.5,0,1,0,24.5,25,4.51,4.51,0,0,0,29,20.5ZM24,22h1V18H24Zm0,2h1V23H24ZM2,20a1,1,0,0,1-1-1V9A1,1,0,0,1,2,8H23a1,1,0,0,1,1,1v4.89a5.79,5.79,0,0,1,.72,0l.28,0V9a2,2,0,0,0-2-2H2A2,2,0,0,0,0,9V19a2,2,0,0,0,2,2H17.73a.76.76,0,0,1,0-.15,6,6,0,0,1,.06-.85Z" /></svg>