<svg xmlns="http://www.w3.org/2000/svg" width="30" height="30" viewBox="0 0 30 30"><path d="M13.5,13c-.86,0-1.5,1.07-1.5,2.5s.64,2.5,1.5,2.5S15,16.93,15,15.5,14.36,13,13.5,13Zm0,4c-.12,0-.5-.53-.5-1.5s.38-1.5.5-1.5.5.53.5,1.5S13.62,17,13.5,17ZM28,9H27a2,2,0,0,0-2-2H24a2,2,0,0,0-2-2H2A2,2,0,0,0,0,7v9a2,2,0,0,0,2,2H3a2,2,0,0,0,2,2H6a2,2,0,0,0,2,2H28a2,2,0,0,0,2-2V11A2,2,0,0,0,28,9ZM25,8a1,1,0,0,1,1,1H21L19.27,8ZM15,19H11.54A4.2,4.2,0,0,0,9,16.4V14.24A4.22,4.22,0,0,0,11.4,12H15v7Zm5,2H16V10h4Zm1-9h3.4A4.14,4.14,0,0,0,27,14.31v2A4.17,4.17,0,0,0,24.26,19H21V12Zm1-6a1,1,0,0,1,1,1H17.5L15.73,6ZM13.7,6l3.54,2h-2L11.72,6ZM3,9v.13a3.07,3.07,0,0,1-1,.31V14.2a2.85,2.85,0,0,1,1,.31V17H2a1,1,0,0,1-1-1V7A1,1,0,0,1,2,6H9.69l1.77,1H5A2,2,0,0,0,3,9Zm3,2v.13a3.07,3.07,0,0,1-1,.31V16.2a2.85,2.85,0,0,1,1,.31V19H5a1,1,0,0,1-1-1V9A1,1,0,0,1,5,8h8.23L15,9H8A2,2,0,0,0,6,11ZM8,21a1,1,0,0,1-1-1V11a1,1,0,0,1,1-1h7v1H10.69A3.18,3.18,0,0,1,8,13.45v3.74A3.2,3.2,0,0,1,10.76,20H15v1Zm21-1a1,1,0,0,1-1,1H21V20h4a3.19,3.19,0,0,1,3-2.83v-3.7A3.15,3.15,0,0,1,25.11,11H21V10h7a1,1,0,0,1,1,1Zm-6.5-2c.86,0,1.5-1.07,1.5-2.5S23.36,13,22.5,13,21,14.07,21,15.5,21.64,18,22.5,18Zm0-4c.12,0,.5.53.5,1.5s-.38,1.5-.5,1.5-.5-.53-.5-1.5S22.38,14,22.5,14Z" /></svg>