<svg xmlns="http://www.w3.org/2000/svg" width="30" height="30" viewBox="0 0 30 30"><path d="M28,7H2A2,2,0,0,0,0,9V21a2,2,0,0,0,2,2H28a2,2,0,0,0,2-2V9A2,2,0,0,0,28,7Zm1,14a1,1,0,0,1-1,1H2a1,1,0,0,1-1-1V9A1,1,0,0,1,2,8H28a1,1,0,0,1,1,1Zm-7.5-9c-1.12,0-2,1.32-2,3s.88,3,2,3,2-1.32,2-3S22.62,12,21.5,12Zm0,5c-.47,0-1-.86-1-2s.53-2,1-2,1,.86,1,2S22,17,21.5,17ZM9.05,12.06c-1.12,0-2,1.31-2,3s.88,3,2,3,2-1.32,2-3S10.18,12.06,9.05,12.06Zm0,5c-.47,0-1-.86-1-2s.53-2,1-2,1,.85,1,2S9.53,17.06,9.05,17.06Zm7.61-1.2a1.54,1.54,0,0,1,.16.73,1.42,1.42,0,0,1-.4,1.06,1.73,1.73,0,0,1-1.11.48v.74h-.58v-.74a1.74,1.74,0,0,1-1.14-.52,1.77,1.77,0,0,1-.41-1.23h.72a1.17,1.17,0,0,0,.29.84,1.1,1.1,0,0,0,.81.29,1.21,1.21,0,0,0,.8-.24.84.84,0,0,0,.3-.68.79.79,0,0,0-.26-.6,2.2,2.2,0,0,0-.85-.45,2.8,2.8,0,0,1-1.21-.66,1.48,1.48,0,0,1-.38-1,1.51,1.51,0,0,1,.37-1.05,1.65,1.65,0,0,1,1-.49v-.85h.58v.86a1.48,1.48,0,0,1,1,.55,2,2,0,0,1,.37,1.26h-.72a1.4,1.4,0,0,0-.26-.88.88.88,0,0,0-.71-.32,1,1,0,0,0-.71.24.91.91,0,0,0-.25.67.84.84,0,0,0,.26.64,2.62,2.62,0,0,0,.86.43,3.73,3.73,0,0,1,.93.42A1.65,1.65,0,0,1,16.66,15.86ZM24.24,9H5.5A4,4,0,0,1,2,11.92v5.73A4,4,0,0,1,5.58,21H24.16A4,4,0,0,1,28,17.62V12A4,4,0,0,1,24.24,9ZM27,16.75A5,5,0,0,0,23.37,20h-17A5,5,0,0,0,3,16.82V12.74A5.06,5.06,0,0,0,6.2,10H23.54A5,5,0,0,0,27,12.82Z" /></svg>