<svg xmlns="http://www.w3.org/2000/svg" width="30" height="30" viewBox="0 0 30 30"><path d="M5,4H4V3H6V7H5V4Zm.67,10v1h1V14H7V13H4v1H5.67ZM6,17H7V16H5.5V15h-1v1H4v1H6Zm-.83,6h-1v1h2v.5h-1v1h1V26h-2v1h3V23h-2ZM1,5A4.65,4.65,0,0,1,9.22,2H16l3,3L16,8H9.22A4.65,4.65,0,0,1,1,5Zm9,2h5.59l2-2L15.53,3H10v.28A4.71,4.71,0,0,1,10.34,5,4.71,4.71,0,0,1,10,6.72ZM2,5A3.67,3.67,0,1,0,5.67,1.33,3.68,3.68,0,0,0,2,5ZM1,15a4.65,4.65,0,0,1,8.22-3H21.91l3,3-3,3H9.22A4.65,4.65,0,0,1,1,15Zm9,2H21.5l2-2-2.06-2H10v.28a4.52,4.52,0,0,1,0,3.44ZM2,15a3.67,3.67,0,1,0,3.67-3.67A3.68,3.68,0,0,0,2,15ZM29,25l-3,3H9.22a4.67,4.67,0,1,1,0-6H26ZM9.34,25a3.67,3.67,0,1,0-3.67,3.67A3.68,3.68,0,0,0,9.34,25Zm18.25,0-2.06-2H10v.28a4.52,4.52,0,0,1,0,3.44V27H25.59Z" /></svg>