<svg xmlns="http://www.w3.org/2000/svg" width="30" height="30" viewBox="0 0 30 30"><path d="M10,11H20a2,2,0,0,0,2-2V4a2,2,0,0,0-2-2H10A2,2,0,0,0,8,4V9A2,2,0,0,0,10,11ZM9,4a1,1,0,0,1,1-1H20a1,1,0,0,1,1,1V9a1,1,0,0,1-1,1H10A1,1,0,0,1,9,9Zm8.4,19H13.6A1.6,1.6,0,0,0,12,24.6v3.8A1.6,1.6,0,0,0,13.6,30h3.8A1.6,1.6,0,0,0,19,28.4V24.6A1.6,1.6,0,0,0,17.4,23Zm.6,5.4a.6.6,0,0,1-.6.6H13.6a.6.6,0,0,1-.6-.6V24.6a.6.6,0,0,1,.6-.6h3.8a.6.6,0,0,1,.6.6ZM28.4,23H24.6A1.6,1.6,0,0,0,23,24.6v3.8A1.6,1.6,0,0,0,24.6,30h3.8A1.6,1.6,0,0,0,30,28.4V24.6A1.6,1.6,0,0,0,28.4,23Zm.6,5.4a.6.6,0,0,1-.6.6H24.6a.6.6,0,0,1-.6-.6V24.6a.6.6,0,0,1,.6-.6h3.8a.6.6,0,0,1,.6.6ZM5.4,23H1.6A1.6,1.6,0,0,0,0,24.6v3.8A1.6,1.6,0,0,0,1.6,30H5.4A1.6,1.6,0,0,0,7,28.4V24.6A1.6,1.6,0,0,0,5.4,23ZM6,28.4a.6.6,0,0,1-.6.6H1.6a.6.6,0,0,1-.6-.6V24.6a.6.6,0,0,1,.6-.6H5.4a.6.6,0,0,1,.6.6ZM3,21.5v-5A.51.51,0,0,1,3.5,16H15V12.5a.51.51,0,0,1,1,0V16H26.5a.51.51,0,0,1,.51.51v5a.51.51,0,0,1-1,0V17H16V21.5a.51.51,0,0,1-1,0V17H4V21.5a.51.51,0,1,1-1,0Zm7.51-16A.5.5,0,0,1,11,5h8a.5.5,0,0,1,0,1H11A.5.5,0,0,1,10.5,5.5Zm8,2A.5.5,0,0,1,18,8H12a.5.5,0,0,1,0-1h6A.5.5,0,0,1,18.5,7.5ZM17,26.5a.5.5,0,0,1-.5.5h-2a.5.5,0,0,1,0-1h2A.5.5,0,0,1,17,26.5Zm11,0a.5.5,0,0,1-.5.5h-2a.5.5,0,0,1,0-1h2A.5.5,0,0,1,28,26.5Zm-23,0a.5.5,0,0,1-.5.5h-2a.5.5,0,0,1,0-1h2A.5.5,0,0,1,5,26.5Z" /></svg>