<svg xmlns="http://www.w3.org/2000/svg" width="30" height="30" viewBox="0 0 30 30"><path d="M8.18,13.64ZM10.64,7a.83.83,0,1,0-.83-.83A.83.83,0,0,0,10.64,7ZM1.13,21.26a.83.83,0,1,0,.83.83A.84.84,0,0,0,1.13,21.26Zm.53-5.17a.83.83,0,0,0-.83-.83.87.87,0,0,0-.83.8.83.83,0,0,0,.83.83A.82.82,0,0,0,1.66,16.09ZM24.81,5.4A.83.83,0,1,0,24,4.57.83.83,0,0,0,24.81,5.4Zm-7.46.44A.83.83,0,1,0,16.52,5,.83.83,0,0,0,17.35,5.84ZM22.45,12a1.34,1.34,0,0,1,.05.6v0a.43.43,0,0,0,.41.41.41.41,0,0,0,.4-.41,4.87,4.87,0,0,0-.1-.75l0-.11c-.28-1.13-.32-1.85.33-2.24.3-.18.53,0,1.15.85.41.52.81,1.07,1.38,1.14a1.07,1.07,0,0,0,.84-.28c1-.83.36-1.89-.12-2.66-.18-.29-.48-.83-.41-1a2,2,0,0,1,.52.27,1.88,1.88,0,0,0,2.26.19,2,2,0,0,0,.79-1.37A4.22,4.22,0,0,0,29,3.83a.3.3,0,0,0-.23-.16.39.39,0,0,0-.32.07.3.3,0,0,0-.16.23.46.46,0,0,0,.07.33,3.48,3.48,0,0,1,.75,2.28,1.17,1.17,0,0,1-.48.85c-.39.3-.76.16-1.34-.23-.34-.21-1.1-.73-1.59,0s.05,1.27.39,1.82c.47.86.69,1.29.28,1.64a.34.34,0,0,1-.21.09c-.21,0-.48-.39-.74-.73l-.11-.14c-.49-.67-1.18-1.57-2.13-1-1.24.74-.94,2.13-.75,3.05ZM17.79,9a.83.83,0,1,0,.83-.83A.83.83,0,0,0,17.79,9Zm4.92,13.75a.83.83,0,1,0,.83.83A.82.82,0,0,0,22.71,22.78Zm4.91,1.5a.83.83,0,1,0,.83.83A.83.83,0,0,0,27.62,24.28Zm.56-8.47a16,16,0,0,0-6.93.63,12.78,12.78,0,0,1,.93,1.47c.76,1.43.88,2.49.32,3.05a1.07,1.07,0,0,1-.58.32l-.06,0L17.77,23.1c-2.86,1.23-6.41,2.78-7.13,3.08a12.68,12.68,0,0,1-3.86,1.2,1,1,0,0,1-.64-.17l0,0c-.57-.49-.22-1.73.84-4.48L7,22.55l4.54-11.88,0,0h0a1.69,1.69,0,0,1,.23-.36,1.18,1.18,0,0,1,.94-.35,4.9,4.9,0,0,1,2.29.78c0-2.4-.3-3.3-.49-3.64s-.57-.63-.87-.6c-.53.09-1.13,1-1.36,1.91a.31.31,0,0,1-.16.24.39.39,0,0,1-.31.08.37.37,0,0,1-.25-.16.41.41,0,0,1-.07-.32c.28-1.11,1.06-2.33,2-2.51a1.62,1.62,0,0,1,1.65,1c.45.76.64,2.28.57,4.5A19.64,19.64,0,0,1,19,13.81c.69.74,1.25,1.38,1.73,2A17.08,17.08,0,0,1,28.25,15a.37.37,0,0,1,.27.12.45.45,0,0,1,.09.32.35.35,0,0,1-.13.27A.32.32,0,0,1,28.18,15.81Zm-12.77,1a2.43,2.43,0,0,0,.26.29l.28.3.48.44c.14.14.3.26.44.4A13.25,13.25,0,0,1,20,16.5c-.55-.65-1-1.17-1.54-1.68a23.9,23.9,0,0,0-2.61-2.26C15.71,14.2,15.56,15.58,15.41,16.76ZM14.65,16c.21-1.75.31-3,.35-3.92a5.16,5.16,0,0,0-2.26-.9.75.75,0,0,0-.39.12C11.93,11.73,12.69,13.66,14.65,16Zm5.73,5.26a15,15,0,0,1-5-3.53,7.76,7.76,0,0,1-.71-.7,14.46,14.46,0,0,1-2.89-4.15L9.35,18.92c-.74,1.88-1.39,3.51-1.57,4l-.09.19a14.47,14.47,0,0,0-1,3.42l0,0c.09,0,.67.1,3.67-1.1C11.35,25.08,17.74,22.37,20.38,21.23Zm.11-4.08a12.65,12.65,0,0,0-3,1.55C19.09,20.08,20.66,21,21.56,21a.48.48,0,0,0,.39-.11c.18-.19.16-.88-.47-2.1C21.23,18.3,20.89,17.77,20.49,17.15Zm8.68.37a.83.83,0,1,0,.83.83A.82.82,0,0,0,29.17,17.52ZM10.76,18.77a.83.83,0,1,0,.83.83A.83.83,0,0,0,10.76,18.77Zm-4-2.71a.83.83,0,1,0,.83.83A.83.83,0,0,0,6.76,16.06Zm18.35,2.56a.83.83,0,1,0,.83.83A.83.83,0,0,0,25.11,18.62ZM7.5,10.11l.09,0c.66-.12,1.39-.26,1.62,0s-.37,1.35-.71,1.8v0a3.08,3.08,0,0,0-.7,1.34.42.42,0,0,0,.38.43.39.39,0,0,0,.37-.36,3.13,3.13,0,0,1,.53-1c.62-.92,1.23-2,.62-2.77-.47-.57-1.37-.41-2.25-.25l-.1,0c-.8.16-1.61.32-1.82-.07,0-.06,0-.07,0-.09v0c.08-.19.68-.4,1.07-.55l.1,0C7.43,8.25,8.21,8,8.18,7.28S7.31,6,6.52,5.52l0,0a9.82,9.82,0,0,1-1-.61A.29.29,0,0,1,5.4,4.6c0-.3.59-.81,1.56-1.23a.39.39,0,0,0,.18-.52.41.41,0,0,0-.2-.21.48.48,0,0,0-.29,0c-1.2.55-1.91,1.2-2,1.87a1,1,0,0,0,.41,1c.22.17.49.35.76.53l.27.17c.46.27,1.29.74,1.34,1.13,0,.11-.54.28-.78.37l-.18.07C5.84,8,5,8.31,4.84,8.87a.94.94,0,0,0,.07.78C5.33,10.55,6.48,10.32,7.5,10.11Z" /></svg>