<svg xmlns="http://www.w3.org/2000/svg" width="30" height="30" viewBox="0 0 30 30"><path d="M28.38,20.89A17.44,17.44,0,0,1,22.54,20a1.44,1.44,0,0,0-.6-.13,1.51,1.51,0,0,0-1.1.5L17.24,24A25.37,25.37,0,0,1,6.46,13l3.68-3.59a1.69,1.69,0,0,0,.45-1.75,21.84,21.84,0,0,1-.89-6A1.63,1.63,0,0,0,8.08,0H2.33A1.63,1.63,0,0,0,.71,1.66C.71,17.3,13.11,30,28.38,30A1.63,1.63,0,0,0,30,28.34V22.55A1.63,1.63,0,0,0,28.38,20.89ZM29,28.34a.63.63,0,0,1-.62.66C13.68,29,1.71,16.73,1.71,1.66A.63.63,0,0,1,2.33,1H8.08a.64.64,0,0,1,.62.66A22.91,22.91,0,0,0,9.64,8a.67.67,0,0,1-.19.72L5.76,12.26l-.52.51.33.65A26.15,26.15,0,0,0,16.77,24.9l.66.35.53-.53L21.55,21a.59.59,0,0,1,.39-.2.48.48,0,0,1,.2,0l0,0h0a18.28,18.28,0,0,0,6.17,1,.63.63,0,0,1,.62.66Z" /></svg>