<svg xmlns="http://www.w3.org/2000/svg" width="30" height="30" viewBox="0 0 30 30"><path d="M27,8H18.34C21.79,6.62,26.53,4.07,21,2a7.62,7.62,0,0,0-2.62-.56,3,3,0,0,0-3,2.58,2.94,2.94,0,0,0-3-2.58A7.67,7.67,0,0,0,9.66,2c-5.52,2.07-.79,4.62,2.67,6H3a2,2,0,0,0-2,2v7a2,2,0,0,0,2,2v9a2,2,0,0,0,2,2H25a2,2,0,0,0,2-2V19a2,2,0,0,0,2-2V10A2,2,0,0,0,27,8ZM16.8,3.1a1.83,1.83,0,0,1,1.58-.66,6.74,6.74,0,0,1,2.27.5c1.56.58,1.89,1.08,1.88,1.22,0,.74-2.64,2.34-6.26,3.55C16.07,6.3,16,4.16,16.8,3.1ZM8.13,4.16c0-.14.32-.64,1.89-1.22a6.69,6.69,0,0,1,2.27-.5,1.81,1.81,0,0,1,1.57.66c.83,1.06.74,3.18.53,4.61C10.78,6.5,8.16,4.9,8.13,4.16ZM2,17V10A1,1,0,0,1,3,9H15v9H3v0A1,1,0,0,1,2,17ZM5,29a1,1,0,0,1-1-1V19H15V29Zm21-1a1,1,0,0,1-1,1H16V19H26Zm2-11a1,1,0,0,1-1,1v0H16V9H27a1,1,0,0,1,1,1Z" /></svg>