<svg xmlns="http://www.w3.org/2000/svg" width="30" height="30" viewBox="0 0 30 30"><path d="M20.21,1.73a.73.73,0,0,1,.69.49l2.53,7.61L15.68,27.42a1.16,1.16,0,0,1-1.08.7,1.1,1.1,0,0,1-.47-.1l-9-3.95a1.18,1.18,0,0,1-.61-1.55L12.29,5l.09,0,7.54-3.13a.72.72,0,0,1,.29-.06m0-1a1.76,1.76,0,0,0-.7.15L12,4l-.46.17L3.64,22.11A2.17,2.17,0,0,0,4.75,25l9,4a2.22,2.22,0,0,0,.87.18,2.18,2.18,0,0,0,2-1.3L24.5,9.88l-2.65-8A1.73,1.73,0,0,0,20.21.73ZM19.34,4a1.09,1.09,0,0,0-1.43.56A1.07,1.07,0,0,0,18.46,6a1.08,1.08,0,0,0,1.44-.55A1.1,1.1,0,0,0,19.34,4Zm-5.46,9.7a2.19,2.19,0,0,1-.48.7,1.78,1.78,0,0,1-.69.43,1.9,1.9,0,0,1-1.54-.07,2.1,2.1,0,0,1-.67-.46,2,2,0,0,1-.41-.62,2,2,0,0,1-.14-.8,2.35,2.35,0,0,1,.66-1.52,2,2,0,0,1,.63-.43,2,2,0,0,1,.77-.15,2.32,2.32,0,0,1,.84.19,2.25,2.25,0,0,1,.7.49,1.79,1.79,0,0,1,.41.64,1.9,1.9,0,0,1,.12.76A2.15,2.15,0,0,1,13.88,13.73Zm-.71-.27a1.75,1.75,0,0,0,.17-.63,1.24,1.24,0,0,0-.08-.58,1,1,0,0,0-.25-.39,1.11,1.11,0,0,0-.41-.28,1.41,1.41,0,0,0-.48-.12,1.21,1.21,0,0,0-.46.08,1.28,1.28,0,0,0-.46.32,1.72,1.72,0,0,0-.36.53,2,2,0,0,0-.16.61,1.36,1.36,0,0,0,.1.6A1.19,1.19,0,0,0,11,14a1.27,1.27,0,0,0,.39.26,1.41,1.41,0,0,0,.47.11,1,1,0,0,0,.44-.06,1.37,1.37,0,0,0,.49-.31A1.53,1.53,0,0,0,13.17,13.46Zm4.56-.05c-.6.37-1.24.79-2,1.24l-1.87,1.23c-.89.58-1.69,1.12-2.41,1.6l-1.23.83-.34-.56,1.22-.8,2.41-1.57,1.87-1.23,1.95-1.3Zm0,5.44a2,2,0,0,1-.48.7,1.7,1.7,0,0,1-.69.44,2.14,2.14,0,0,1-.74.13,2.31,2.31,0,0,1-1.47-.66A1.91,1.91,0,0,1,13.81,18a2.34,2.34,0,0,1,.2-.84,2.2,2.2,0,0,1,.46-.68,2,2,0,0,1,.63-.43,1.92,1.92,0,0,1,.77-.15,2.32,2.32,0,0,1,.84.19,2.1,2.1,0,0,1,.7.49,1.79,1.79,0,0,1,.41.64,1.87,1.87,0,0,1,.12.76A2.24,2.24,0,0,1,17.74,18.85ZM17,18.59A1.74,1.74,0,0,0,17.2,18a1.22,1.22,0,0,0-.08-.57,1.14,1.14,0,0,0-.25-.39,1.2,1.2,0,0,0-.41-.28,1.41,1.41,0,0,0-.48-.12,1.21,1.21,0,0,0-.46.08,1.17,1.17,0,0,0-.46.32,1.62,1.62,0,0,0-.36.52,1.83,1.83,0,0,0-.16.62,1.36,1.36,0,0,0,.1.6,1.19,1.19,0,0,0,.25.38,1.48,1.48,0,0,0,.39.26,1.41,1.41,0,0,0,.46.11.93.93,0,0,0,.45-.07,1.44,1.44,0,0,0,.49-.3A1.64,1.64,0,0,0,17,18.59Z" /></svg>