<svg xmlns="http://www.w3.org/2000/svg" width="30" height="30" viewBox="0 0 30 30"><path d="M24.79,3.77,15,.21,5.21,3.77,0,12.8,1.81,23.06l8,6.7H20.21l8-6.7L30,12.8Zm-.67.8,4.38,7.59L14.6,6.27l5.46-3.18ZM13.5,7.25l8.29,13.2-6.12-.95-9-1.93ZM5,18.23,4,19.49l.27-1.42L6.62,5.57l6.07,1.12ZM14.75,7.4l12.81,5.42L22.29,19.4ZM15,1.25l1.51.55-2.72-.1Zm3.5,1.61L13.68,5.68,11.81,2.6Zm-7.72-.07L12.3,5.3h0l.23.37L6.13,4.48ZM1.7,16.8,1,13,5.78,4.74,3.47,16.9Zm.13.74,1.31,1.09-.58,3Zm.88,5,0-.28,2.26-2.35,4.19,8Zm2.94-4.17,9.84,2.09,5.17.8L10.23,27.94Zm14.2,10.41H10.73l10.94-7,5.2,1.11ZM27.39,22l-4.8-1.37,6.26-7.83L29,13Z" /></svg>