<svg xmlns="http://www.w3.org/2000/svg" width="30" height="30" viewBox="0 0 30 30"><path d="M22.57,4l1.68,1-.5.87L21.37,4.44H9.18a3.76,3.76,0,0,0-4,3.47,3.76,3.76,0,0,0,4,3.46H21.63a1.75,1.75,0,0,1,1.62,1.84A1.74,1.74,0,0,1,21.63,15H9.18a3.76,3.76,0,0,0-4,3.47,3.76,3.76,0,0,0,4,3.47H21.63a1.85,1.85,0,0,1,0,3.67H6.56a3.77,3.77,0,0,0-4,3.47h-1a4.76,4.76,0,0,1,5-4.47H21.62c.34,0,.63-.38.63-.83S22,23,21.62,23H9.18a4.75,4.75,0,0,1-5-4.47,4.76,4.76,0,0,1,5-4.47H21.62c.34,0,.63-.38.63-.83s-.29-.84-.63-.84H9.18a4.75,4.75,0,0,1-5-4.46,4.75,4.75,0,0,1,5-4.47H21.35l3.4-1.56.42.91Z" /></svg>