<svg xmlns="http://www.w3.org/2000/svg" width="30" height="30" viewBox="0 0 30 30"><path d="M16,19.49a2.62,2.62,0,0,1-1.83-.76h0a2.61,2.61,0,0,1-.75-2.07l-5-7.34,7.37,5A2.6,2.6,0,1,1,16,19.49Zm-11-2L.76,17.33l.06-.88.41-.06-.4,0L1,14.92a14.2,14.2,0,0,1,.58-2.29A15.29,15.29,0,0,1,2.85,9.87,15.08,15.08,0,0,1,5,7a13.74,13.74,0,0,1,1.44-1.3c.21-.17.44-.34.67-.5l.13-.09.29-.2.13-.09a4.87,4.87,0,0,1,.45-.27A14.6,14.6,0,0,1,12,3a14.23,14.23,0,0,1,2.11-.39h.09c.33,0,.66-.06,1-.06a4.82,4.82,0,0,1,.54,0l.86,0a6.33,6.33,0,0,1,.73.06c.33,0,.65.08,1,.14h.09a14.4,14.4,0,0,1,2.05.54,14,14,0,0,1,3.62,1.84l.4.29.12.09.26.2.13.12c.2.17.4.33.59.52A12.55,12.55,0,0,1,26.8,7.66a13.55,13.55,0,0,1,1.81,2.79,13.39,13.39,0,0,1,1,2.61,12.3,12.3,0,0,1,.37,2.09l0,.79c0,.23,0,.43,0,.59V17l-.81,0,0-.47c0-.15,0-.33,0-.53L29,15.28a11.72,11.72,0,0,0-.49-1.9,13.08,13.08,0,0,0-1.07-2.31,12.8,12.8,0,0,0-1.82-2.35,12.13,12.13,0,0,0-1.2-1.08c-.17-.14-.34-.26-.51-.38l-.17-.12A1.64,1.64,0,0,0,23.51,7l-.14-.09c-.11-.08-.23-.15-.35-.22A12.64,12.64,0,0,0,19.8,5.36,14.11,14.11,0,0,0,18,5.05c-.32,0-.6,0-.87,0-4.55-.08-6,1.23-7,1.93a2.3,2.3,0,0,0-.34.25l-.52.42a5.82,5.82,0,0,0-.45.4A12.25,12.25,0,0,0,7.76,9.2a11.89,11.89,0,0,0-1.57,2.47,12.24,12.24,0,0,0-1.14,4.17l0,.87v.22Z" /></svg>