<svg xmlns="http://www.w3.org/2000/svg" width="30" height="30" viewBox="0 0 30 30"><path d="M13.42,12.52a3.32,3.32,0,1,0-3,.05,5.28,5.28,0,0,0-4.19,4.92h1c0-2.27,2.15-4.12,4.8-4.12s4.79,1.85,4.79,4.12h1A5.3,5.3,0,0,0,13.42,12.52ZM9.57,9.59a2.32,2.32,0,1,1,2.32,2.32A2.32,2.32,0,0,1,9.57,9.59Zm19,13.71-6.29-4.45h0a11.81,11.81,0,0,0,1.59-5.92,12,12,0,1,0-4.56,9.36h0L25.93,27a2.17,2.17,0,0,0,1.3.42,2.56,2.56,0,0,0,.39,0,2.27,2.27,0,0,0,.93-4.08Zm-16.62.55A10.93,10.93,0,1,1,22.85,12.93,10.94,10.94,0,0,1,11.93,23.85Zm16.34,2a1.27,1.27,0,0,1-1.76.3l-6.44-4.56h0a11.68,11.68,0,0,0,1.66-1.92h0L28,24.11A1.28,1.28,0,0,1,28.27,25.88Z" /></svg>