<svg xmlns="http://www.w3.org/2000/svg" width="30" height="30" viewBox="0 0 30 30"><path d="M22.1,9.24s.21,1.69.35,3.21A12,12,0,0,0,17,15.25V7.13c1.51.14,3.16.35,3.16.35S16.06.4,15,.4,9.84,7.48,9.84,7.48s1.65-.21,3.16-.35v8.12a12,12,0,0,0-6-2.91c.15-1.49.35-3.1.35-3.1S.26,13.34.26,14.4s7.09,5.16,7.09,5.16S7.14,17.93,7,16.43a8,8,0,0,1,6,7.74V30h4V24.17a8,8,0,0,1,5.43-7.57c-.14,1.45-.33,3-.33,3s7.08-4.1,7.08-5.16S22.1,9.24,22.1,9.24Zm1.22,8.42c0-.31.07-.64.1-1l.15-1.55-1.47.5A9,9,0,0,0,16,24.17V29H14V24.17a9,9,0,0,0-6.75-8.71l-1.38-.35L6,16.52c0,.39.07.78.11,1.15a35,35,0,0,1-4.69-3.26,35.52,35.52,0,0,1,4.69-3.27c0,.36-.08.74-.11,1.11l-.09.92.92.16A11,11,0,0,1,12.33,16L14,17.49V6l-1.09.11-1.18.11A34.57,34.57,0,0,1,15,1.57a35.41,35.41,0,0,1,3.26,4.68l-1.17-.11L16,6V17.49L17.67,16a11,11,0,0,1,5-2.56l.87-.19-.09-.88c0-.41-.08-.83-.12-1.23A34.83,34.83,0,0,1,28,14.4,35,35,0,0,1,23.32,17.66Z" /></svg>