<svg xmlns="http://www.w3.org/2000/svg" width="30" height="30" viewBox="0 0 30 30"><path d="M27.92,8.4l-1.15-.14a.21.21,0,0,1-.18-.16l-.07-.25a.23.23,0,0,1,.08-.23l.93-.7a1.23,1.23,0,0,0,.32-1.59l-.38-.66a1.24,1.24,0,0,0-1.54-.52l-1.07.46a.23.23,0,0,1-.24-.05l-.18-.18a.23.23,0,0,1-.05-.24l.46-1.07a1.25,1.25,0,0,0-.52-1.54l-.66-.38a1.23,1.23,0,0,0-1.59.32l-.7.93a.26.26,0,0,1-.11.07h-.12l-.25-.07a.21.21,0,0,1-.16-.18L20.6,1.07A1.23,1.23,0,0,0,19.39,0h-.78A1.23,1.23,0,0,0,17.4,1.07l-.14,1.16a.21.21,0,0,1-.16.18l-.25.07a.23.23,0,0,1-.23-.08l-.7-.93a1.23,1.23,0,0,0-1.59-.32l-.66.38a1.25,1.25,0,0,0-.52,1.54l.46,1.07a.23.23,0,0,1,0,.24l-.18.18a.23.23,0,0,1-.24.05l-1.07-.46a1.24,1.24,0,0,0-1.54.52l-.38.66a1.23,1.23,0,0,0,.32,1.59l.93.7a.23.23,0,0,1,.08.23l-.07.25a.21.21,0,0,1-.18.16l-1.15.14A1.23,1.23,0,0,0,9,9.62v.76a1.23,1.23,0,0,0,1.08,1.22l1.15.14a.21.21,0,0,1,.18.16l.07.25a.23.23,0,0,1-.08.23l-.93.7A1.17,1.17,0,0,0,10,14H9.69a1.08,1.08,0,0,0-1.06.93l-.16,1-.26,0-.56-.73a1.06,1.06,0,0,0-1.38-.28l-.54.31a1.07,1.07,0,0,0-.45,1.33l.35.93-.21.15-.86-.36a1.08,1.08,0,0,0-1.34.45l-.3.54a1.06,1.06,0,0,0,.28,1.38l.76.62-.11.25-.92.11A1.08,1.08,0,0,0,2,21.69v.62a1.08,1.08,0,0,0,.93,1.06l1,.16,0,.26-.73.56a1.06,1.06,0,0,0-.28,1.38l.31.54a1.07,1.07,0,0,0,1.33.45l.93-.35.15.21-.36.86a1.09,1.09,0,0,0,.45,1.34l.54.3a1.06,1.06,0,0,0,1.38-.28L8.27,28l.25.11.11.92A1.08,1.08,0,0,0,9.69,30h.62a1.08,1.08,0,0,0,1.06-.93l.16-1,.26,0,.56.73a1.06,1.06,0,0,0,1.38.28l.54-.31a1.07,1.07,0,0,0,.45-1.33l-.35-.93.21-.15.86.36a1.08,1.08,0,0,0,1.34-.45l.3-.54a1.06,1.06,0,0,0-.28-1.38L16,23.73l.11-.25.92-.11A1.08,1.08,0,0,0,18,22.31v-.62a1.08,1.08,0,0,0-.93-1.06h0l-1-.16,0-.26.73-.56a1.06,1.06,0,0,0,.28-1.38l-.31-.54a.88.88,0,0,0-.12-.15.21.21,0,0,1,.2-.06l.25.07a.21.21,0,0,1,.16.18l.14,1.17A1.23,1.23,0,0,0,18.61,20h.78a1.23,1.23,0,0,0,1.21-1.06l.14-1.17a.21.21,0,0,1,.16-.18l.25-.07L21,17l.26.49a.26.26,0,0,1,.11.07l.7.93a1.23,1.23,0,0,0,1.59.32l.66-.38a1.24,1.24,0,0,0,.52-1.54l-.46-1.07a.23.23,0,0,1,.05-.24l.18-.18a.23.23,0,0,1,.24,0l1.07.46a1.25,1.25,0,0,0,1.54-.52l.38-.66a1.23,1.23,0,0,0-.32-1.59l-.93-.7a.23.23,0,0,1-.08-.23l.07-.25a.21.21,0,0,1,.18-.16l1.15-.14A1.23,1.23,0,0,0,29,10.38V9.62A1.23,1.23,0,0,0,27.92,8.4Zm-12.46,11a1.06,1.06,0,0,0-.38,1.14l0,.17a1.07,1.07,0,0,0,.9.79l.92.12.06-.5-.06,1.24-.92.12a1.06,1.06,0,0,0-.9.79l0,.17a1.06,1.06,0,0,0,.38,1.14l.75.64-.38.56L15,25.43a1.06,1.06,0,0,0-1.17.24l-.13.12A1.08,1.08,0,0,0,13.43,27l.34.94-.62.29-.56-.74a1.13,1.13,0,0,0-.51-.37,1.06,1.06,0,0,0-.31-.05,1.12,1.12,0,0,0-.32,0l-.17,0a1.07,1.07,0,0,0-.79.9l-.18,1-.68-.06L9.51,28a1.07,1.07,0,0,0-.79-.91l-.17,0a1,1,0,0,0-.29,0,1.06,1.06,0,0,0-.85.42l-.64.75-.56-.38L6.57,27a1.06,1.06,0,0,0-.24-1.17l-.12-.13A1.08,1.08,0,0,0,5,25.43l-.94.34-.29-.62.74-.56a1.06,1.06,0,0,0,.38-1.14l0-.17A1.06,1.06,0,0,0,4,22.49l-1-.18.06-.68L4,21.51a1.07,1.07,0,0,0,.91-.79l0-.17a1.06,1.06,0,0,0-.38-1.14l-.75-.64.38-.56.86.36a1.06,1.06,0,0,0,1.17-.24l.13-.12A1.08,1.08,0,0,0,6.57,17l-.34-.94.62-.29.56.74a1.06,1.06,0,0,0,1.14.38l.17,0a1.07,1.07,0,0,0,.79-.9l.18-1h.39l.29.06.12.91a1.07,1.07,0,0,0,.79.91l.17,0a1.17,1.17,0,0,0,.32,0,.81.81,0,0,0,.31-.06,1,1,0,0,0,.51-.36l.64-.76.32.22-.4.93a1.24,1.24,0,0,0,.52,1.54l.66.38a1.23,1.23,0,0,0,1.59-.32l.08-.11.2.43Zm-3.79-3.48.09,0,0,.05ZM28,10.38a.24.24,0,0,1-.2.23l-1.15.14a1.22,1.22,0,0,0-1,.91l-.06.21a1.23,1.23,0,0,0,.44,1.3l.92.71a.22.22,0,0,1,.06.29l-.38.66a.21.21,0,0,1-.28.09l-1.07-.45a1.23,1.23,0,0,0-1.35.28l-.15.15a1.23,1.23,0,0,0-.28,1.35l.45,1.07a.23.23,0,0,1-.09.29l-.66.37a.22.22,0,0,1-.29-.06L22.17,17a1.13,1.13,0,0,0-.58-.42,1,1,0,0,0-.35-.06,1.5,1.5,0,0,0-.37,0l-.21.06a1.19,1.19,0,0,0-.91,1l-.15,1.16a.21.21,0,0,1-.21.19h-.78a.21.21,0,0,1-.21-.19l-.15-1.16a1.19,1.19,0,0,0-.91-1l-.21-.06a1.4,1.4,0,0,0-.34,0,1.2,1.2,0,0,0-1,.49l-.19.24-.2,0-.93.35-.15-.21.36-.86a1.09,1.09,0,0,0-.12-1,1.2,1.2,0,0,0-.35-.64l-.15-.16a1.25,1.25,0,0,0-1.35-.27l-1.07.45a.22.22,0,0,1-.29-.09l-.14-.25,0,0L11,14.17a.23.23,0,0,1,.06-.3l.92-.7a1.23,1.23,0,0,0,.44-1.3l-.06-.21a1.22,1.22,0,0,0-1-.91l-1.15-.14a.24.24,0,0,1-.2-.23V9.62a.24.24,0,0,1,.2-.23l1.15-.14a1.22,1.22,0,0,0,1-.91l.06-.21A1.23,1.23,0,0,0,12,6.83l-.92-.7a.23.23,0,0,1-.06-.3l.38-.66a.21.21,0,0,1,.28-.09l1.07.45a1.25,1.25,0,0,0,1.35-.27l.15-.16a1.23,1.23,0,0,0,.28-1.35l-.45-1.07a.23.23,0,0,1,.09-.29L14.83,2a.22.22,0,0,1,.29.06l.71.92a1.19,1.19,0,0,0,1.29.44l.22-.06a1.2,1.2,0,0,0,.91-1l.15-1.16A.21.21,0,0,1,18.61,1h.78a.21.21,0,0,1,.21.19l.15,1.16a1.2,1.2,0,0,0,.91,1l.22.06a1.53,1.53,0,0,0,.36,0,1,1,0,0,0,.35-.06A1.13,1.13,0,0,0,22.17,3l.71-.92A.21.21,0,0,1,23.17,2l.66.37a.23.23,0,0,1,.09.29l-.45,1.07a1.23,1.23,0,0,0,.28,1.35l.15.16a1.25,1.25,0,0,0,1.35.27l1.07-.45a.22.22,0,0,1,.29.09l.37.66a.23.23,0,0,1-.06.3l-.92.7a1.23,1.23,0,0,0-.44,1.3l.06.21a1.22,1.22,0,0,0,1,.91l1.15.14a.24.24,0,0,1,.2.23ZM19,5a5,5,0,1,0,5,5A5,5,0,0,0,19,5Zm0,9a4,4,0,1,1,4-4A4,4,0,0,1,19,14Zm-9,4a4,4,0,1,0,4,4A4,4,0,0,0,10,18Zm0,7a3,3,0,1,1,3-3A3,3,0,0,1,10,25Z" /></svg>