<svg xmlns="http://www.w3.org/2000/svg" width="30" height="30" viewBox="0 0 30 30">
  <title>ps_netperform</title>
  <path d="M26.46,5H2.78A3.31,3.31,0,0,0,0,7.85V21.16A3.2,3.2,0,0,0,2.77,23.9l8.19,0v4l8.62-4h6.88A2.88,2.88,0,0,0,29,21.16V7.85C29,6.59,27.78,5,26.46,5ZM28,21.16c0,.74-.79,1.84-1.5,1.84H19l-7,3.69V23L2.78,22.9A2.23,2.23,0,0,1,1,21.16V7.85A2.44,2.44,0,0,1,2.78,5.92H26.46c.71,0,1.5,1.18,1.5,1.93ZM25.86,12l-3.32,2.47L23.76,18l-3.39-2L17,18l1.23-3.57L14.88,12h4.26l1.23-3.84L21.6,12Zm-20,0a3,3,0,1,1,3,3A3,3,0,0,1,5.85,12ZM15,19.92H3c0-2.71,2.75-4.56,5.84-4.56S15,17.21,15,19.92Z" fill="#555"/>
</svg>
