<svg xmlns="http://www.w3.org/2000/svg" width="30" height="30" viewBox="0 0 30 30"><path d="M25.4,11.74a1.73,1.73,0,0,0,.09-.56,2,2,0,0,0-2-2,2,2,0,0,0-1.19.39,9.23,9.23,0,0,0-15.49,1c-.16,0-.31,0-.47,0A6.31,6.31,0,1,0,9.24,22.35,9.24,9.24,0,0,0,22,20.86a5.06,5.06,0,1,0,3.44-9.12Zm-.46,9.09a4,4,0,0,1-2.39-.78l-.76-.56-.6.73A8.24,8.24,0,0,1,9.84,21.55l-.5-.38-.57.29a5.2,5.2,0,0,1-2.47.62,5.31,5.31,0,0,1,0-10.61l.39,0,.64,0L7.64,11a8.23,8.23,0,0,1,13.81-.87l.59.8.8-.58a1.07,1.07,0,0,1,.61-.2,1,1,0,0,1,1,1,.88.88,0,0,1,0,.29l-.33,1.16,1.2.11a4.05,4.05,0,0,1-.37,8.09Zm-5.57-6.46-6.69,7.35h-.82l2.47-5.2H9.21v-.74l7.93-7.93.25.74-4.13,5.62,5-.17C20.36,14,19.37,14.37,19.37,14.37Z" /></svg>