<svg xmlns="http://www.w3.org/2000/svg" width="30" height="30" viewBox="0 0 30 30"><path d="M24,7v3.93l-.18,0a5.41,5.41,0,0,1-1.05.1,4.62,4.62,0,0,1-1.41-.21c-1.82-.56-2.78-2.2-2.88-4.85H23V0H7V6h3.78a6.73,6.73,0,0,1-.19,2.18,3.74,3.74,0,0,1-4,2.9c-.17,0-.36,0-.54,0V7H0V23H6V19.17l.49,0A5.17,5.17,0,0,1,8,19.38c1.82.58,2.75,2.13,2.78,4.62H7v6H23V24H18.82a6.21,6.21,0,0,1,.46-1.91c.8-1.81,2.39-2.73,4.72-2.73V23h6V7ZM5,11v7.68l-.06,0,0,0,0,0V22H1V8H5ZM8,5V1H22V5H8ZM22,25v4H8V25H22Zm2-6.64c-2.85,0-4.72,1.25-5.63,3.33A7.16,7.16,0,0,0,17.8,24h-6c0-3-1.32-4.9-3.47-5.57a5.88,5.88,0,0,0-1.84-.28l-.49,0V12.06l.54,0a4.72,4.72,0,0,0,5-3.64A7.55,7.55,0,0,0,11.78,6h5.7c.12,3.21,1.43,5.14,3.58,5.81a6,6,0,0,0,1.71.25A7.12,7.12,0,0,0,24,12ZM29,22H25V8h4Z" /></svg>