<svg xmlns="http://www.w3.org/2000/svg" width="30" height="30" viewBox="0 0 30 30"><path d="M23.56,15a1.95,1.95,0,1,1-1.94-1.95A2,2,0,0,1,23.56,15ZM28,9V21a3,3,0,0,1-3,3H21.35l-6.22,6.22L8.91,24H5a3,3,0,0,1-3-3V9A3,3,0,0,1,5,6H6.61V5.71A5.39,5.39,0,0,1,12,.34h5.82a5.35,5.35,0,0,1,3.8,1.59,5.3,5.3,0,0,1,1.57,3.81V6H25A3,3,0,0,1,28,9ZM7.61,6H22.18V5.74a4.4,4.4,0,0,0-4.37-4.39H12A4.39,4.39,0,0,0,7.61,5.71ZM27,9a2,2,0,0,0-2-2H5A2,2,0,0,0,3,9V21a2,2,0,0,0,2,2H9.33l5.8,5.8,5.8-5.8H25a2,2,0,0,0,2-2ZM8.65,13.05A2,2,0,1,0,10.59,15,2,2,0,0,0,8.65,13.05Zm6.48,0A2,2,0,1,0,17.07,15,2,2,0,0,0,15.13,13.05Z" /></svg>