<svg xmlns="http://www.w3.org/2000/svg" width="30" height="30" viewBox="0 0 30 30"><path d="M15,7.5A3.47,3.47,0,1,1,11.54,11,3.46,3.46,0,0,1,15,7.5ZM15,15c-3.59,0-6.49,2.54-6.49,5.67h13C21.49,17.53,18.59,15,15,15ZM23.1,1.33a.5.5,0,0,0-.5.5.5.5,0,0,0,.5.5A4.81,4.81,0,0,1,28,7V24.31A4.77,4.77,0,0,1,23.17,29H6.83A4.77,4.77,0,0,1,2,24.31V7a4.81,4.81,0,0,1,4.9-4.7.5.5,0,0,0,.5-.5.5.5,0,0,0-.5-.5A5.81,5.81,0,0,0,1,7V24.31A5.76,5.76,0,0,0,6.83,30H23.17A5.76,5.76,0,0,0,29,24.31V7A5.81,5.81,0,0,0,23.1,1.33ZM20.33,0H9.67L8.75,4.88h12.5Z" /></svg>