<svg xmlns="http://www.w3.org/2000/svg" width="30" height="30" viewBox="0 0 30 30"><path d="M28.58,6.69c-.19,0-4.85-.77-12.33.94A56.49,56.49,0,0,1,1.54,8.76L1,8.72V24.81l.41.07a23.07,23.07,0,0,0,4,.28,45.24,45.24,0,0,0,10.79-1.4c8.48-2.1,12.11-1,12.18-1L29,23V6.76Zm-.58,15c-1.42-.26-5.21-.59-12.08,1.11A39.65,39.65,0,0,1,2,24V9.79A57.45,57.45,0,0,0,16.47,8.6,37,37,0,0,1,28,7.62Zm-22.22-6a.53.53,0,0,1-.58-.5.5.5,0,0,1,.5-.5h.08a36.67,36.67,0,0,0,9.29-1.23l1.18-.26a.5.5,0,0,1,.6.38.49.49,0,0,1-.38.59l-1.19.27A37.57,37.57,0,0,1,5.78,15.69Zm11.41,1.37a.5.5,0,0,1-.39.59c-1.15.23-2.14.46-3.07.67a29.11,29.11,0,0,1-7.47,1H6a.5.5,0,0,1-.5-.5.51.51,0,0,1,.5-.5h.22a28.67,28.67,0,0,0,7.26-1c.93-.22,1.93-.45,3.09-.68A.5.5,0,0,1,17.19,17.06Zm6.59-2.19a1.12,1.12,0,0,1,.21.7,1.32,1.32,0,0,1-.42,1,2,2,0,0,1-1.17.52v1.35h-.73V17.1a3.35,3.35,0,0,1-1.76-.72l.48-.73a4.15,4.15,0,0,0,.8.43,2.3,2.3,0,0,0,.88.17,1.12,1.12,0,0,0,.67-.17.51.51,0,0,0,.22-.44.46.46,0,0,0-.21-.39,2.21,2.21,0,0,0-.51-.29l-.67-.27a3.48,3.48,0,0,1-.67-.33,1.66,1.66,0,0,1-.52-.46,1.08,1.08,0,0,1-.21-.68,1.27,1.27,0,0,1,.4-1,2,2,0,0,1,1.1-.46V10.57h.73v1.2a2.19,2.19,0,0,1,.83.24,2.92,2.92,0,0,1,.63.48l-.53.62a3.82,3.82,0,0,0-.61-.37,1.67,1.67,0,0,0-.71-.13,1,1,0,0,0-.6.16.48.48,0,0,0-.22.43.41.41,0,0,0,.21.35,2.68,2.68,0,0,0,.51.26l.68.26a3.45,3.45,0,0,1,.67.32A1.72,1.72,0,0,1,23.78,14.87Z" /></svg>