<svg xmlns="http://www.w3.org/2000/svg" width="30" height="30" viewBox="0 0 30 30"><path d="M17.31,15a2.2,2.2,0,0,0,4.29,0h6.9a.5.5,0,0,0,0-1H21.6a2.2,2.2,0,0,0-4.29,0H12.49l3.15-5H25a2.05,2.05,0,1,0,0-1H16.27l1.62-2.57A1.48,1.48,0,0,0,16.37,4h-15A1.48,1.48,0,0,0-.15,5.43L6,14.78v8A2.33,2.33,0,0,0,8.39,25H9.61A2.33,2.33,0,0,0,12,22.74V21H23a2,2,0,0,0,4,0H28.5a.5.5,0,0,0,0-1H27a2,2,0,0,0-4,0H12V15Zm1.17-1a1.11,1.11,0,0,1,1-.6,1.09,1.09,0,0,1,1,.6s0,.31,0,.5,0,.5,0,.5a1.09,1.09,0,0,1-1,.6,1.11,1.11,0,0,1-1-.6s0-.31,0-.5S18.48,14,18.48,14ZM27,7.5a1,1,0,1,1-1,1A1,1,0,0,1,27,7.5Zm-2,12a1,1,0,1,1-1,1A1,1,0,0,1,25,19.5ZM11.15,14.25,11,14.5v8.24A1.33,1.33,0,0,1,9.61,24H8.39A1.33,1.33,0,0,1,7,22.74V14.48l-.16-.25-5.93-9A.54.54,0,0,1,1.37,5h15a.54.54,0,0,1,.46.24Z" /></svg>