<svg xmlns="http://www.w3.org/2000/svg" width="30" height="30" viewBox="0 0 30 30"><path d="M16.15,17.93a.55.55,0,0,1-.15-.36V9.5a.5.5,0,0,1,1,0v7.86l3.68,3.54a.5.5,0,0,1,0,.71.48.48,0,0,1-.36.15.45.45,0,0,1-.34-.14ZM11.48,6.55a1.45,1.45,0,0,0,1.66-1.18,1.44,1.44,0,1,0-1.66,1.18Zm5.4-3.17a.5.5,0,0,0-.5.5.5.5,0,0,0,.5.5A12.27,12.27,0,1,1,4.64,17.29l3.55,3.55a.51.51,0,0,0,.36.15.49.49,0,0,0,.35-.15.5.5,0,0,0,0-.71L4.81,16h0a.54.54,0,0,0-.36-.14A.52.52,0,0,0,4.1,16h0L4,16.19a.46.46,0,0,0-.31.31L0,20.13a.51.51,0,0,0,0,.71A.5.5,0,0,0,.35,21a.51.51,0,0,0,.36-.15l3-3A13.27,13.27,0,1,0,16.88,3.38ZM5.41,13a1.44,1.44,0,0,0,.48-2.83,1.45,1.45,0,0,0-1.66,1.18A1.44,1.44,0,0,0,5.41,13Zm2.3-3.77A1.43,1.43,0,0,0,9.36,8.06,1.45,1.45,0,0,0,8.18,6.4a1.43,1.43,0,0,0-.47,2.83Z" /></svg>