<svg xmlns="http://www.w3.org/2000/svg" width="30" height="30" viewBox="0 0 30 30"><path d="M27.37,11a63.87,63.87,0,0,0-1.06-7,.76.76,0,0,0-.77-.56C21,3.5,17.11,2,15.77.2a.84.84,0,0,0-.7-.49h0a.71.71,0,0,0-.56.35C13.24,1.88,9.17,3.5,4.53,3.5H4.39a.68.68,0,0,0-.7.56,63.87,63.87,0,0,0-1.06,7c-.35,3.86-.42,8.29,1.13,11.24,1.12,2.11,3.86,3.86,6.32,5.2a34.1,34.1,0,0,0,4.5,2.11,1,1,0,0,0,.42.14,1,1,0,0,0,.42-.14,35.49,35.49,0,0,0,4.43-2.11c2.46-1.34,5.2-3.09,6.39-5.2C27.79,19.31,27.72,14.88,27.37,11Zm-2,10.75c-.86,1.51-2.82,3.08-6,4.82a35.4,35.4,0,0,1-4.25,2l-.07,0,0,0-.08,0-.09,0a34.27,34.27,0,0,1-4.27-2C9.39,25.94,5.83,24,4.64,21.8c-1.51-2.9-1.3-7.49-1-10.69a62.68,62.68,0,0,1,1-6.61C9.06,4.48,13.34,3,15.09.94,16.8,3,21,4.47,25.38,4.5a62.73,62.73,0,0,1,1,6.61C26.66,14.31,26.87,18.9,25.37,21.77Zm-6.56-9.42h-.3V9.78a1.73,1.73,0,0,0-1.73-1.73H13.22a1.73,1.73,0,0,0-1.73,1.73v2.57h-.3a2.21,2.21,0,0,0-2.28,2.14v5.32A2.21,2.21,0,0,0,11.19,22h7.62a2.21,2.21,0,0,0,2.28-2.14V14.49A2.21,2.21,0,0,0,18.81,12.35ZM12.49,9.78a.73.73,0,0,1,.73-.73h3.56a.73.73,0,0,1,.73.73v2.57h-5Zm7.6,10A1.21,1.21,0,0,1,18.81,21H11.19a1.21,1.21,0,0,1-1.28-1.14V14.49a1.21,1.21,0,0,1,1.28-1.14h7.62a1.21,1.21,0,0,1,1.28,1.14Z" /></svg>