<svg xmlns="http://www.w3.org/2000/svg" width="30" height="30" viewBox="0 0 30 30"><path d="M22.9,7.42a4.9,4.9,0,0,0-1.43.21,6.05,6.05,0,0,0-1.6-.21,6.16,6.16,0,0,0-2.48.52L17,7.7V2.44l-4.74.64.52,2.05.44,2.78-.38.25a6.19,6.19,0,0,0-2.93-.74,5.88,5.88,0,0,0-1.68.24,4.82,4.82,0,0,0-1.51-.24c-3.8,0-6.91,4.51-6.91,10.07S2.92,27.56,6.72,27.56A5,5,0,0,0,9,27a6,6,0,0,0,.95.07,6.13,6.13,0,0,0,2.89-.72,5,5,0,0,0,2.57.72,5,5,0,0,0,2.12-.48,6.21,6.21,0,0,0,2.38.48,7.37,7.37,0,0,0,.82-.05,5,5,0,0,0,2.21.52c3.81,0,6.85-4.51,6.91-10.07S26.71,7.42,22.9,7.42ZM16,3.68V7.47a4.12,4.12,0,0,0-.7,0,5.07,5.07,0,0,0-1.24.15l-.4-2.48L13.42,4ZM6.54,26.45c-3.16,0-5.79-4-5.79-9,0-4.73,2.38-8.65,5.43-8.94-2.42,1.64-4.06,4.92-4.06,8.7,0,4.19,2,7.75,4.85,9.18ZM9.74,26c-3.58,0-6.51-3.92-6.51-8.73S6.16,8.53,9.74,8.53a5,5,0,0,1,1.84.35,11.26,11.26,0,0,0-3.24,8.37,11.28,11.28,0,0,0,3.26,8.37A5.17,5.17,0,0,1,9.74,26Zm5.46,0C12,26,9.46,22.06,9.46,17.25c0-3.83,1.64-7.1,3.91-8.27a4.21,4.21,0,0,1,1.13-.39,4,4,0,0,1,.7-.06h.29a3.77,3.77,0,0,1,1.27.32,5.28,5.28,0,0,1,.53.27c2.13,1.28,3.65,4.44,3.65,8.12C20.94,22.06,18.36,26,15.2,26Zm5.47-.11,0,0a2.79,2.79,0,0,1-.39.1,4.08,4.08,0,0,1-.61,0,4.56,4.56,0,0,1-1.11-.13c2.09-1.68,3.53-4.89,3.53-8.6s-1.43-6.9-3.52-8.58a5,5,0,0,1,1.16-.14c3.57,0,6.5,3.92,6.5,8.72C26.19,21.58,23.77,25.2,20.67,25.87Zm2,.58h-.3c2.84-1.42,4.88-5,4.88-9.19a10.5,10.5,0,0,0-4-8.68c2.91.44,5.24,4.29,5.24,8.92C28.52,22.41,25.88,26.45,22.72,26.45Z" /></svg>