<svg xmlns="http://www.w3.org/2000/svg" width="30" height="30" viewBox="0 0 30 30"><path d="M13.69,10.87,14,9,12.66,7.69l1.87-.27.83-1.69.84,1.69,1.87.27L16.71,9,17,10.87,15.36,10ZM15,15a6,6,0,1,1,6-6A6,6,0,0,1,15,15Zm0-1a5,5,0,1,0-5-5A5,5,0,0,0,15,14Zm8.25,15.17-4.45-3.4-2.34,4.57-1.54-9.71-2,9.61-2.63-5.15L5.75,28l.54-1.42c1.35-3.55,3.38-9,4.07-11.08a8,8,0,1,1,9.31,0c.36,1.78,2.07,8.18,3.19,12.26ZM11,14.73l.51.33a7.21,7.21,0,0,0,2.67.89A7.55,7.55,0,0,0,15,16l.38,0a6.87,6.87,0,0,0,3.26-1,3.53,3.53,0,0,0,.32-.21,7,7,0,1,0-8,0Zm3.48,3.1L14.33,17a8,8,0,0,1-3.1-.92c-.46,1.46-1.46,4.21-3.47,9.48l2.93-1.87,1.84,3.59Zm7,8.75c-1.68-6.17-2.44-9.1-2.72-10.53a8.15,8.15,0,0,1-3.11.92l-.18.88L17,27.16l1.49-2.92Z" /></svg>