<svg xmlns="http://www.w3.org/2000/svg" width="30" height="30" viewBox="0 0 30 30"><path d="M8.12,12.15l-.57,3.2,3.23.41,1.42,2.92,2.85-1.57,2.87,1.53L19.3,15.7l3.23-.45-.62-3.2L24.26,9.8,21.88,7.57l.57-3.2L19.22,4,17.8,1,15,2.6,12.08,1.08,10.7,4l-3.23.45.62,3.19L5.74,9.92Zm1-4.67L8.65,5.32,10.83,5l.54-.07.23-.49.94-2,1.94,1,.48.25.47-.26,1.93-1.06,1,2,.24.49L19.1,5l2.18.28L20.9,7.4l-.1.53.4.37,1.6,1.51-1.58,1.52-.39.38.1.53.42,2.16-2.18.31-.54.07-.23.49-.94,2-1.94-1L15,16l-.47.26L12.64,17.3l-1-2-.24-.49-.54-.07-2.18-.27.38-2.17.1-.53-.4-.37L7.2,9.91,8.78,8.38,9.17,8Zm7,11.58-1.7,5.87a3.86,3.86,0,0,1-2.76,2.67L6.91,28.8,9.26,17.26l1,.2-2,10,3.2-.81a2.87,2.87,0,0,0,2-2l1.7-5.88Zm8.31,9.63-5.3-.52a3.22,3.22,0,0,1-2.7-2.05L15.58,24l.93-.36.84,2.14a2.23,2.23,0,0,0,1.87,1.41l3.75.37-3.44-10,.94-.32ZM15,14.86a5,5,0,1,0-5-5A5,5,0,0,0,15,14.86Zm0-9a4,4,0,1,1-4,4A4,4,0,0,1,15,5.86Z" /></svg>