<svg xmlns="http://www.w3.org/2000/svg" width="30" height="30" viewBox="0 0 30 30"><title>s-AK</title><path d="M2.55,19.07l-.85-.89,1,0,.26.61ZM.79,13.58l-.06-.09-.14-.12.2.26Zm1,.26L.94,13l-.41.09-.32-.44L0,13.17l.21.2.26-.2H.53l.32.41-.06.11.3.15.11.26Zm7.9,11.6h.23v-.15H9.83ZM8.57,24.29l-.06.06h.3l-.09-.06ZM7,25.38v-.09H6.87Zm4-1-.09.06H11l.06-.12Zm-.15.06v-.12l-.23.29Zm-3.58.73v.15h.24l-.09-.15Zm-1,.71v-.09l-.11-.12m5-1.23.14.09v-.09l-.11-.06Zm-4.26,2.2.09-.06-.09-.12Zm-.12-.29v.11h.12v-.11Zm0-.27-.14.27.14-.15Zm-.58.12,0,.38.41-.38-.09-.06ZM4,10l-.2.2.26-.2ZM28.91,22.65l.33.5v-.71l-.41-.29-.3.79.38.12Zm-1,.53.05-.24.39.09-1.47-.85,0,.23h.2l.3.38-.06.36.29-.12,0,.53.38-.09.8.62-.3-.83Zm-1-.3.26-.23-.06-.24-.2.15Zm.35-.79.23.06v-.24l-.14.09Zm1.47,1.26h.06v-.2l-.3-.12Zm-1.12-1.06.53.12L28,22.15h-.29V22Zm.53,1.65v.12l.21.08-.09-.2Zm-1-2.53.09.44h.15l.08-.2Zm.09,2.06-.09.2.18.09.06-.29Zm.7.15v.2h0l.15-.06Zm-.61-.74-.09.06h-.15l.06.12.18-.12Zm-.24.59.06,0-.06-.09Zm.3.15.05.14.15-.09-.12-.11Zm.35.44.5.23-.5-.47Zm1.76-.44.44-.44-.44-1.47L28,21.44l-1.85-2.08L24.33,18l-.67.32-.12.71-.09,0-.11.14.7.33-.12-.47.33.12.08.74.33-.15L25,20l-.71-1.59.86,1.32h.23l.26.18.12-.56V20l.24-.09.23.44v-.21l.56.36-.09.11-.41-.17-.06.06.56.23v.09l-.09.17-.2,0v.15l.61-.06.38.5,1,.35V22l-.27.08v0L28,21.91l-.21-.11.44.35h0l.11.8.61-1,.65,1,.09-.15ZM6.22,20.94l-.29.24.15-.06Zm5.23-.49h.12V20.3l-.12.09Zm3.73-2.09v-.18h-.12v.09ZM27.3,23.44h.09l.06-.09H27.3ZM5.72,14l-.08.12.2,0V14Zm-1-4.14L5,9.7l.06,0Zm18.61,9.45,0,0,0,0Zm6.25,3.67h0l-.15.24Zm-.24.68v-.18l-.17.18Zm-12-5.17-.15.18h.15ZM29,23.18l-.12,0,.06.41.18-.3ZM15.82,18H15.7l.12.09ZM6.46,25.14l.12.38.11-.38.74-.06.06-.29h.08v.26l.27-.26-.35-.15.2-.23,1.47-.65v-.58l1.67-1,.82-1.06-.73-.44.59-.88.14.15.41-.36-.29-.52H12l.14.08.09-.08,1.23-1.5.45.09.49-.47-.49.61.7.27-1-.12-.61.41-.27,1.44,0,.12L13,20l.24-.15-.18.41-.35.09.09.35.5-.09.2-.5.47-.14v-.24l.21.18v-.44l.12.38.08-.65.12.44.56-.23v-.44l.29-.24h-.5l.15-.11.21-.12-.44-.29.58-.71v.62l.15-.41.23.29.65-.35-.29.35h.44l-.3.21.36-.12-.12.14.5,0-.09.2-.09.09.41.18.38-.68-.08.73.55.24,1.79-.24.15-.23.09.23,0,.15.73.09.53-.65.47.3-.2.35-.21-.56-.15.71,2.73,1.32.33-.47-.56-.5-.38.17v-.32l-.27.32-1.61-1.43V17.8l-1.26.27L17.55,5.18l-1.11-.47-.91.38-2.26-.55-.79.17-.71-.12.29,0L12,4.12,11,4.24l-.41-.53-.44.53-.12-.15.26-.38L10,3.39l-.7.73-1.15.21.44.21L8.28,5l-.21-.27.15-.32-1.12.5.09-.27-1,1.59L4.76,6.3l-.3.64L5.58,8.2,5.72,9h.8v.12l-.06.23.5.06-.09.56.7-.06v.35l-.79-.15-.32-.76.12,1L7,10.23l.08.32-1.52-.09-.27-.23.36-.53v0h-.3l-.75.18,0,0-.09,0-.06,0,.12.29L4,10.08l-.31.2,0,0-.24.18.08,0-.28.17H2.85l.44.44.67.36-.47-.06v.17l.21.36,0,.49,1.82.5,0-.35.14.5,1.06-.79.21.41L6.52,13l.44.82-.38.44-.65-.12-1.09.71.09-.29-.35-.09v.23l-.5.21.12.59-.33-.15-.44.88H3.05l.24,1,.29-.33.38-.2-.14.15H3.73l0,.05H3.58l0,.21-.12,0,.39.2-.27.27H3.7l.59.15.2-.12-.12.2L4.7,18,4,18.07,4,17.89l-.2-.17-.12-.15L3.23,18l1.14,1.17.71-.12,0-.41.59-.52-.44.52.38,1.24-.24.23.12.3h.18l-.09.41-.47.2.38.12,1.06-.62,1,1.09.33-1.09.23.21.06.2L8,20.77l-.17.09.17.47,1.06-.68L9,21.18l-.47.62.33.26-.33,0,0,.85-.67.24-.33.76-.17-.18-1.26.79v.74m5.49-1.67.08.14.33-.2-.21-.09Zm.67-2.56.18-.09h-.09v0Zm0,.35-.15.15.09.09.06-.21ZM12,21.8l.08.05v.06l-.38.18.09.06h-.09l-.11,0,.26.07-.06-.1.29.2.62-.5-.59-.2Zm.58-3.12-.14.27h.06l.2-.18ZM12.77,22v-.09l-.06.15Zm.94-1.79h.09v-.06h-.09Zm-.3.18h.06l.09-.09-.09-.09Zm-1.17,2-.06.06.15,0v0Zm-.56.09-.17-.09-.06.06.23.15Zm.18,0-.21-.12.21.27-.35.32-.33-.23.18.7-.06-.09-.12-.11v-.21H11l0-.06L11,22.79l-.44.39.38.76.12-.38h.26l-.26.53.73-.91.41.08L12,23l.53-.09Zm.09-.56,0,.06h.08L12,21.85Zm3.31-3.67v.18l.06-.09ZM12,22.29l-.15,0,0,0Zm0,.12h.08l0-.06H12Zm14.5.62.14,0,0-.12h-.11Zm-.33-1.23.47,1.08,0-1-.23-.26Zm1.35,1.46h-.11l.11.09Zm-2-2-.38-.09.26.82.38.06.38.65L26,22Zm1.29.17.38.27-.06-.44h-.73l.32.82.41-.09Zm0,1.5h.09l-.09-.06Zm-2-1.53.15.44.21-.05L25,21.41Zm-8.24-3-.12.12.14-.14Zm.29-.27-.27.25.27-.16ZM15.21,18l0,.12,0,.09,0-.09Zm1.08.62v.26l.27-.2v-.06l-.12.06Zm7.87,2.29v-.3L24,20.45Zm1.52-.94-.1,0-.07-.09h-.09l-.08,0-.18,0L25.89,21l-.09.59.47-.62-.67-.88.67.5Zm-1.43.94.55.41.15-.09-.29-.41.85.29-.21-.41-.76-.2.7.11v-.35l-.58.24-.09-.3-.24.3-.17-.24,0,.09.41.38-.29-.12Z"/></svg>