<svg xmlns="http://www.w3.org/2000/svg" width="30" height="30" viewBox="0 0 30 30"><title>s-AR</title><path d="M29.89,6.91l-1.49.75.25.6-.17.39.1.39L28,9.33l0,.46-.5.67L27.73,12l-.21.21h-.36l-.32.64-.56.35.21.68-1.1.67-.07.67h-.5l-.28.71v1.67l-.53.32-.39,0v.71h-.43l-.21.64-.68.32.54.46-.07.46-1.28.43.42.39-.28.42.21.46-1.1,1,.47.39-.08.35-.46.14.68.71v.75l-.32.35.42.39.11.89-.43.25v.81H2.87V24L2,23.72.74,23.9l0-.18H.46l-.35-.53.63-13L0,1.81,13.3,2H27.06l.53.88v.64L26.21,4.82l-.5,1,4-.18.25.78-.43-.1-.24.28Z"/></svg>