<svg xmlns="http://www.w3.org/2000/svg" width="30" height="30" viewBox="0 0 30 30"><title>s-CA</title><path d="M14,25.48l-.69.22-.4-.33.33,0,.68,0Zm-1.88.07.25.44.36-.22-.07-.22Zm-.55-.07.37.07v-.07l-.22-.11ZM14,27.87l.36.14V27.9l-.22,0Zm2.67.61.37.76.29,0-.55-.8Zm10.59-.72.55.25,0,.76-7,1.23-.29-.43.29.07-.07-.22-.33.15-.22-1.3-.65-.87-1.69-1.16-.69,0-.33-.87-.79.07-.87-.29-.47-.54-.87-.43-2.35-.15L11,23.86v-2l-.68-.18v-.65l-1-.76-.61-1-.94-.94-.22-1,.29-.07L8,16.59l-.36-.4H7.1l-.47-.54-.54-1.26v-.84l.33-.1,0,.65.65.47h.26L7,13.7l-.33-.25-.21-.55.07-.14.36,0,.18,0H8.22l.08-.22L8,12.72l.18-.32-.58.32-.28-.32L7,12.72l-.57-.36-.33,0,.18.79-.18.18-1-.79-.18.29.07-.76.37.32-.69-1.12L3.13,9.76V9.22l-.26-.87.15-1L2.58,6.4l-.94-.8,0-.61.25-.87.23-.23.42-2.12L2.26,1,2.08.65l0-.65H12.23l0,3.47.11,6.11L26.8,21.65l.9,1.59.69.43-1,1.23.07,1.34-.54.43Zm-18.36-15-.43-.33,0,0Zm7.74,14.49.47.44h.29l-.07-.29Z"/></svg>