<svg xmlns="http://www.w3.org/2000/svg" width="30" height="30" viewBox="0 0 30 30"><title>s-CT</title><path d="M30,15.2l-.14,2.23-.36.47-.22,1.39-.48.17.22-.33-.39-.2H27.41l-1.12.53-.72-.72-.39.86-1.29-.31-.14.56-.41-.22-1,.58-.89-.55V18.9l-.75-.36.64.87-.2.44.28.2-.33.25-1.31-.2-.84.62-.2-.23-.3.11-1-.39-.89.23-.45.28-.78-.23-1,.2h-1.2l-.31-.39-.08-.62-1.51,1.79-.64.14-1.11.86-.45.2-.33-.39-.7.47-.2-.11-.5.61-.53-.16-.92.47-2,1.25-.47,0-.28.55L3,25.18l-.89.47-.28-.28-.7.36L0,23.78l3.79-2.23-1-1.62L3.93,4.27l7.53.33,2.82.17.08.5L15,5.21l0-.44,14.75.05Z"/></svg>