<svg xmlns="http://www.w3.org/2000/svg" width="30" height="30" viewBox="0 0 30 30"><title>s-FL</title><path d="M23.88,24v0l-.07,0v-.18ZM23,30l.37-.15-.23,0Zm-.26,0-.07,0H23v-.15ZM23.22,24l.15-.07h-.23Zm.7,5.31v.18l.15-.15,0,0Zm0,.22-.26,0-.22.33.52-.29-.11-.19Zm-2.25-8.48-.14-.77-.3,0,.33.7ZM24.1,24H24l-.11,0,.18.15ZM29,16.92,29.41,18l-.74-2.36L28.3,15ZM9.36,6.41l.3.22.14-.22Zm.44.26.22.15.26-.11L11.43,6l-1.26.63ZM24.1,29.48l.11,0v-.15H24.1ZM11.72,6l.18-.19L11.5,6ZM17.8,9.07v0h.11l0-.14Zm3.06,11.16.11-.18-.11-.22Zm.29.7.19.34.48.11-.33-.11Zm-1.91-4.05.37.48v0l-.26-.44Zm6.63,9.62h-.15v.15h.12ZM28.3,14.93l-.62-1.63v-.81l.26-.29-.31-.55-.14,1.65Zm-.66-3.36h-.05l0,.08ZM25.72,26.43h-.18l.15.07ZM8.73,6.19l.12.22-.34-.84ZM29.26,18h0l0,.08Zm-10-7.23v.12h.11ZM29.48,24.47v-.62L29,25.14l-.15,1.17-.4.56.1.24.15-.21v-.29l.48-.3-.48.89-.84,1h-.12l.81-1.08-.18-.24-.22,0,.18.08,0,.22-.22-.11,0-.22-.88.4-.63-.14-.85.36-.33-.29-.14-.33.29-.44.18.22.36.22.27-.08-1-.59-.14-.81-.7-1.21-.12-.06.12.17h-.34v-.15l.1-.07-.87-.41-.44.15.37-.33L23,23.37l-.22-.56V23l-.26-1.65-.11-.26v.26l-.48-.11.85-1-.45.22-.14.48h-.48l-.08-1.65.52-.41-.81.29-.48-.47.48,1.1-.63-.18-1-2.07,0-.51-.48-.33-.15-.23.3.23-.11-.12h.37l-.22-.18.29,0h-.07l.88-1.25-.15-.48h-.18v.48h-.3l0-.63-.59-.25v.22h.15l-.23.14.56.3-.37.74-.59-.56.29.48v.22l-.48-.95.78-2.55.18-1.21-.29-.37.29,0v-.47l-.33-.41L18.94,9h-1l-.7-1.15-.7-.51.07-.59L16,6.41l-.52-.92-1.33-.81-.62.15-.15-.22-.81.29.22.26L12.38,5l0,.15.44.18v.15l-.08.08-.51-.08-1.51.7L10.76,6l-.59.3-1.32.14L9,5.82l-.14-.33L7.59,4.24l.77.54,0-.54L8,4.39,7.41,4l.73-.33L8,3.5l-.51.22L7.26,3.5l-.33.19.33.07.15.48L6.08,3.5,4.31,2.87,5,3l.25-.22.19.26V2.8l.51.26-.14-.44-.3-.19-.74.22V2.43l-.36,0L4,2.87l.26,0H4.13L1.4,3.06H1.22L1.7,3l1.14-.39-.48-.33.18-.23-.22-.25-.18.66L1.7,2l.14.48L1.36,3l-1,.26L1,2.47.74,2.21l.18-.74L.07.63.18,0,10.32.44l.48,1.29,10.35.92.34.92.44,0V1.81l.26-.23,2.17.48v.81l-.29-.44V2.8l.44.3.55,3.09,1.29,3.36,1.14,1.84.1.18h-.13l0,.22,0,.63v.87l1.07,2.48.14.81.56,1.36-.45-.14.7.48.45,1.47ZM2.13,3l1.35-.14-.13,0Zm6.6,1.76-.32.1.07,0Zm17.84,6,.59,1.88.28.65L27.05,12l.41-.41H27l0-.66ZM27.49,19l-.18-.55L26.79,18l-1.1,1.1.81.89.66.33Zm-8.25-8h.11v-.07h-.11Zm8.25,17.36.15-.15-.18.15Zm-.66.48v-.15l-.26.19Zm-1.44.48.33,0,.15,0v-.11Zm.92-.15,0-.26-.48.41Zm-1.95,0,.19.41,0,0-.07-.22Zm5.05-4.35h.07v-.18h0Zm-.18,1.26.09-.15-.06.07Zm.14-.22,0-.08-.09.15Z"/></svg>