<svg xmlns="http://www.w3.org/2000/svg" width="30" height="30" viewBox="0 0 30 30"><title>s-GA</title><path d="M24.21,26.73l.43-.51-.23,1v.43Zm1.87-8.07V17.45l-.31-1-1.13-.86v-.81L24,12.86l-1.29-.7-.11-.51-.43-.2.08-.35-.47-.31v-.7L20.4,9.23l-.47-1.09L18.33,6.9l-.82-1.33-.82-1.83-.89-.27-.7-.7-.9-.71.16-.7L15.45.23,2.24,0,4,13.29l.43,1.83.7,1.48-.11.54.5.43-.74.7-.7,2.22.55,1.8-.43,2.29.43.63.07.74.71,1.67L20,28.75,20.4,30l.7,0,.23-1.32-.15-1,.35-.54,2.61.7-.16-.9.23,0-.07-.43.27-.31L24.1,26l.31-.2-.31-.43.46.43.08-.7-.19.35-.24-.35.2.08v-.59l.15,0,.28.47.54-.7-.31-.43-.86-.31,1.17.2-.31-.59.31.23.59-1-.7.35.11-.27-.31-.12.7-.31-.23-.27.43.47.11-.71v-.19l0,.19-.51.12.23-.31L25.34,21l1,.15.39-.58-.63-.12.28-.19-.16-.16.78.2.23-.2L27,19.91l.19-.23.2.11.35-.31Z"/></svg>