<svg xmlns="http://www.w3.org/2000/svg" width="30" height="30" viewBox="0 0 30 30"><title>s-IA</title><path d="M30,14.32l-.16,1.3-.56.49-.13.94-.39.42-1.27.59L26,18.29l-.32,1.23.68.62.16.88-.68.85L25.54,23l-1.17.69.16,1.1-.55,0-1.17-1.3-10.87.32-8.36-.26V23.1l-.39-.45.19-1-.26-1.08.17-.68L3,19.65,3.25,19l-.48-.13.29-.81-.39-.13v-.36l-.49-.1.16-1.69L2,15.23v-.56l-.85-1.23L.94,11.55l-.35-.16-.2-.91L0,9.92.88,7.58.72,7,.33,6.87.55,6,.33,5.24l12.49.16L24.6,5.27l.32.91.52.26-.42,1,.52,2.34.33.39,1.46.33.33.94v.29l.91.59.19.75,1.14.84Z"/></svg>