<svg xmlns="http://www.w3.org/2000/svg" width="30" height="30" viewBox="0 0 30 30"><title>s-IL</title><path d="M22.67,21.44l.07.34-.48.22-.45,1-.33-.15-.26.41.34.34-.41.4.29.08-.4.15V25h-.23l.23.37h-.23l.23.33-.48.7.29.78-1.66.56.14,1.63-.33.11-2-.85-.77.85.22.48h-.19l-.44-.56-.19.08.15.33-.52-.29-.44-1.15.22-.67L14.78,27v-.78L13,24.67l-.82-.34-1-1.11,0-.63L12,21l.19-1.18L11,19.19l-.67.4L10,19.41l-.45-2L7.19,15l-.45-1.55L6.67,12l.14-.52.45-.19,0-1,1-.52.93-1.59L9,7.44l-.48-.63.29-1,1.37-.07,1-.52,1.07-1.59.15-1.45-1-.78L11.44.81,10.67,0,22,.19v1.4l1.23,2.74,0,12.86-.41.14L23,18l-.37.48.63.89.11,1Z"/></svg>