<svg xmlns="http://www.w3.org/2000/svg" width="30" height="30" viewBox="0 0 30 30"><title>s-IN</title><path d="M24.91,21.7l-.08.71H24l-1.41.78-.48-.3L21,23l.22,1.22-.59.71-.44.07-.37,1.11-.67.33-.37-.14-.48.81-.15,1.15-.7.52L16.17,28l-.15-.7L15.39,27l.41.3-.6.37L15,27.33l0,.6-.37.18,0,.85-.41.15-.22.48-.18-.18,0-.22L13.09,29l-.22-.56L11.69,29l-.63,1-.23-.37-1.55-.82L8.39,29l-.22-.41,0,.6L8,29.63H7.69v-.52l-.75.08-.66-.26-.11.18.11.52L6,30l-.85-.22.4-.15-.48-.48L5.57,29V27.89L6,27.7l-.37-.14.56-.49-.34-.48.34-.52.22.15.22-.29.11.14.52-1,0-.26.71-.22,0-.59,1-1.37-.22-.93.11-.63L8,19.89l.37-.67-.07-.89.52-.26L9.2.19l.41.4L9.8.41l0,.4.74.15L11.94.59,13.06,0,24.65,0V.41l.07,19.74-.33.26.33.63-.33.52Z"/></svg>