<svg xmlns="http://www.w3.org/2000/svg" width="30" height="30" viewBox="0 0 30 30"><title>s-KY</title><path d="M0,20.73H.34v.34H0ZM29.32,16.3l-1.07-1.19-1-1.66.25-.43-.05-.87-.88-.74-.25-.82-.57.14-.45.48-.62.09-.85-.51-.73.34-.57-.57-1.38-.31-.34-1-.48-.37L19.55,9l-.34-.37-.54.46.2.39-.2.28.37.12-.17.56-.45-.08-1,.48-.26-.26-.73.12.11.82-.65.45-.31.73-.7.17-.4,1.22-.48.25-.76-.45-.12-.45-.36-.2.14.25h-.43l0,.34-.31.14v.46l-.39.45-.71-.71-.82.34-.39.59-1.08-.76-.62.17L8,14.18v.57l-.2.14-.11-.37-.45.14-.48-.31.06.45-.17.26-.34-.12-.51.68.25.85-1.63.42-.06.43.22.84-.22.31-1.53-.81-.73.16-.45.51.17.57L1.75,20l-.34.76-.59-.31-.25.65,5.5.29L6,20.4l.93.31,16.22.53,2.4-.84.25-.51.74-.29.73-1.13,1.24-.73L30,16.47Z"/></svg>