<svg xmlns="http://www.w3.org/2000/svg" width="30" height="30" viewBox="0 0 30 30"><title>s-LA</title><path d="M18.76,27.82l.7-.24-.13.1-.47.14Zm7.65-7.48-.07.06.07,0Zm-8.66,7.34.2.07h.2L18,27.68Zm9.8-6-.23,0v.1h.23ZM11.41,24.23l1.14.74h.24l.47-.71-1.21-.4ZM27,22.58l.37.24v-.37l-.34.1Zm1.71,1.51-.24.34.1-.07Zm-.77.61H28v-.17l-.3.24ZM27,21.85h0l.17-.21.14-.23Zm.6-.81.24-.17-.24-.2-.16-.1.4-.4-1,.7.57,0Zm-5,3.79.61.2-.07-.2-.54-.17Zm3.7-2,.16.2v-.2l-.23-.24-.1.44ZM30,21.28l-.37-.44.37.8-.24,1.11.24-.3,0-.67Zm-.57,2,.16-.3,0-.13-.34.5Zm-.57,3.12-.64-.1.2-.27-.5-.5-.31.24-.16-.24-.61-.1.2-.2H25.94l0-.44L25,24.46l-.43-.7.8.07-.5-.57,1.24.5-.2-.37h-.37l0-.3.3-.2.27-.47.43.43.41-.17-.21-.3.24-.33h-.37l.13-.2-.2.13-.13-.2.33-.14-.46-.2.46-.47-.3.07-.33-.2-.51.44-.16.77-.41.13-.3-.33.1-.21-.67,0-.13-.4L24.3,21l.43.1.4-.71L25,20.27h-.23l.2.13-.37.27v-.44l-.3.44-.54-.27-.61.64-.9.2-1.38-.37-.3-.43.17-.44L22,18.83l.77.16.44.61,1.37.2.21.43.67-.13v.17l.37-.24-.27-.16-.64-1.48-.74-.81-.3-.73.6-2.08-10.94.13.47-.44-.43-1.34.67-.13.17-.81-.17-.6.54-.47.4-1.71,1.44-1.25V7.28l.37,0,.64-1-1-1.07V4.46l-.41-.57.57-.37-.57-.33.51-1-.51-.33,0-.27H.13L0,8.26l1.17,1.4,0,1.35.53.47-.13.26.57.68-.13.37.4.8.3.1-.07.57.31.37-.41.2.24.4-.24.91-1,1.61.2.64-.27.67.2.67L1.68,21l-.47.57.2.6-.24.4-.5.1-.07.21.27.53.74-.33L2.42,23,4.6,23l2.88,1.17,2.29.44,1.47-.34.2-.27-.43.1-.2-.47.23-.2-.44.17-.16-.44.37-.06v.23l.9-.64h.74l0,.71,1.27-.2v.67h.47v.74l.81-.17v.27l.77.27.17-.88H16l-.13.94.83.84v.47l-.16.1-.1-.57-.31,0,0-.24-.4.41-.27-.14.1.34.2.23,1.21.41.37-.24.07.34.73.3.24-.4.33.13-.16.3.27.1.6-.4,0,.2.14-.7.23.1-.1-.57.67.13.2-.47.37.77.27-.43.3.47.2-.2.11,1.17.73-.44.37-.53h-.2l-.07-.34.47-.13L23,25.78v-.61l-1-.57.17-.44.27.37.16-.1,1,.54L24,25l0-.2h.27l-.14.27.4.07.1.4-.43.3H25l.37-.17.14.58h.87l-.2.06.64,1,.33-.27v-.43l.14.33.13-.16-.74,1.57.61-.84.26-.13v-.27l.74.67-.06-.27.16-.33.14.13,0-.37.14.27.3-.43-.44,0,.47-.13Zm-5.71,0v.14l.44-.24-.14-.13Zm-2.42-.1h-.1l0,.24,0-.1Zm.54,1.34.34-.13-.17-.1Zm2.35-1.54,0,.07.14-.14h0Zm-3.32,1.41.3.13h.3l-.27-.1Z"/></svg>