<svg xmlns="http://www.w3.org/2000/svg" width="30" height="30" viewBox="0 0 30 30"><title>s-MA</title><path d="M25.59,22.13l.07.74-.07.07-.39-.35Zm3.44.32.14.3-.37.72.51-.44-.21.44-1.64.3,1.46.35.83-.21-.47-1.29Zm-4.48-.27.3-.19-.13-.3-.35.28.07-.32-.56.2-.78.95-.72.21.56.46.85-.46,1.34-.07-.07-.6Zm4.69-1.43.18-.05.33-.9-.14-.25Zm.37-3.44.39.18L29.45,16l-.65-.79L28,14.63h-.56l-.21.32.6.49.14-.42.56.16.32,1.74.23-.54.42.28-.28.07.25,1-.25.28-1.85.78-.74.12.44-.19L26,18.6l-.83-.53-.23-.23-.14-1.36-.62-.21-.67-.62h.28l.13-.6.28.55-.21.05.42-.05L23.1,13.15l-1.29-.92.27.65-.8.2,0-.39-.32-.09.12-.3-.4.07-.07-.28.26-.09-.32-.21.13-.14.42.14-.14-.25.35.25,0-.87.6.06-.23-.41.65-.32-.12-.3-.3.16.14-.3,1.48-.56.9-.6L24.14,8l-.46.3v.41l-.16-.23L23,8.42l-.09-.2.23-.05-.72-.42V7.38l.49.37L22.64,7,22,6.53h.43l0-.62L22,6l-.51-.14-1.2.74-.55,0-.51.71L18.37,8,2.28,7.25,0,14.75.25,15l5.66.35v.28l.34-.05.07-.23,11.38.23.14,1.32.25.11.14,1.25.76.8.14-.25h.39l.51-.78-.65,1.38.49.16L20,21.28l.19-.16L20,20.91l.32.11.14-.32.16.32-.3.23.3,0,.77-.26.39-1.13.51.44-.05-.41.37-.33.3.14.23-.48h.21V18.6l.5.35.07-.28.19.16-.26.53.05,1.13-.32.56,1.52-.35.72-.9.23.25,1.08-.37,0,.44.76-.57,2-.19L29.93,18h-.44Z"/></svg>