<svg xmlns="http://www.w3.org/2000/svg" width="30" height="30" viewBox="0 0 30 30"><title>s-MD</title><path d="M23.46,20.71h-.34L23,20.55l.33-.13Zm0,1.5-.32.19.29.15.1-.34-.26-.44Zm5.91-3.55-.31-.16h.47l0-.2.18-.08-4.2.08L24.84,7.37,1.76,7.21H.18L0,11.65l1.35-.83L2.67,9.45,3,9.32l.54.23,1.07-1L4.9,8l.21.26L5,8.54,6.15,9h.73l.26-.26L7,8.54l.34-.13-.18-.18L8.2,8.1l.62-.57.29,0,1.14.86.78,0,.1.21-.28.16.15.38L11.13,9l.11.37h.33l-.23.44.39.23-.05.55,1.24.52.63.46.07.29-.36.47.42.62,1.19.31.26.54.88.42.44-.52.91,1-.78.73.05.72L16,16.4l-.18.49-.37.16.08.23-.41.16-.21.78.21.72.57-.05.28-.67.18.44.29-.57,1,1.63.31.11,0-.21-.26-.81.37.32.36,1h1l.73,1,0-.28.29.21,0-.63.31.89.7.46-.1-.9-.44-.71.05-.54h-.52L20,19.1l-.72-.47-.42-1-.05-1.2L19.15,18l1.3,1.27.47-.1-.08-.52L20,17.57V16.06l-.28-.36.47-.73h-.37l-.07-.36.44-.13-.44-.54.67.26-.86-1.09.19-.16.57.7.39-.21L20,12.87l.65.18-.29-.93-.18.13-.91-.88.29-.16,1,.6.26-.26-.39-.18-.26-.47.49.47-.18-.5.42,0,.26-.36-.5-.34.6,0,.26.73.23-.26-.15-.31.18-.86.18,1,1-.83-.37-.31.26-.57.6-.06.34-.31-.47,1.17,1.17-1-.37.62.34.44-.62-.13-.55.7,1.17.21-1.87.08-.36.41-.62,1.41.36,1,.26-.75L23,12.4l-.7.73v.47l-.47.05-.52-.26-.21,1.25.21.13-.05-.44.57-.5.44.26v.37l.18-.16v.18l.29.16-.47.54.21.21.26-.21,0,.34-.44,0L21.57,15l-.47,1.35.28-.1.19-.83V16l.39-.45.12.71.19-.26.13.41.31-.08-.29.29.44-.05.11.31.36.18.44-.49-.08.39-.52.33-.77-.23v-.29l-.83.11.2.23-.23.31.57-.2.16.1-.47.44-.08.47-.18-.29-.26.26.7,1.33.1-.71,1.22,1.41v-.68l.26-.41.21-.11,0,.16-.31.36.28.52.73-1.4-.31,1.24.54.32-.72.33-.06.5,1-.18.16,0-.57.52.72-.21-.93,1.09.29-.05-.08.55.54-.34.94,0,.15-.26,1.64-.28.18-.52.52-.29.21-1.06L29,19.9l-.1.26.26-.1.36-.7.13-.23L29.38,19Zm.52-.44-.21,1,.13-.08.16-.88Zm-1.27,3.55.39-.31.65-1.94-.6,1.16Z"/></svg>