<svg xmlns="http://www.w3.org/2000/svg" width="30" height="30" viewBox="0 0 30 30"><title>s-ME</title><path d="M17,22.15l-.18.14.18.36h-.4l.19-.8Zm-1.27,1.23.36.15.11-.33L15.62,23Zm2.51-2.54-.33.76.51.55L18.6,22l-.15-.4H19l.11-.29-.51-.62Zm6.4-3.31.11.43-.15-.4-.43.51-.22-.69.4.15v-.4l.29.07.11-.22-.62-1.34-.54-.15-.3.29-.65-.69.15-.8-.37-.76.37-.33v-.36l-.84-.19L20.85,12,21,10.65l-.22-8.1-.95-.95L18.45.65l-.58.51L17.44,1l-1.79.91-.29-.29L15,1.27,14.85.18,14,0,10.31,5.13l-.26,1.92-.54.48L9,8.47,9.15,9l-.3.44,0,.65.22.37-.73.87v.54l-.91.4-.65,1,.4.69-.37.11-.47-.25-.44,1.31-.43-.8L5,14.62l.22,13.16.69,1.06-.07.54.33.62.18-.18L6.6,30l.73-1.74,1.05-.8-.22-.11.19-.47L9,26.62v-.37L8.6,26,8.85,26l.3-.69,1-.62-.14.19.29-.15-.4.69.47-.54-.25.69.58-.48v-.4L11,25.82l.22-.29L11,23.82l-.21.18,0-.15.51-.54,0,2,.3-.62-.19.14-.11-.4.66-.94L11.8,24l.11.22-.11.43.29.08V25l0-.91.32-.51,0,.89.16.39.66-1.53v.54h.4l-.15.22.48-.43-.19.54.37-.11v-.36l.69-.4,0-.55.62-1.27-.25-.65.9-.4v-.62l.26.22L16,21l.4-.26.22.22-.55.29-.07.36.4-.07,1,.58-.18-1.16.4-.07.11.14-.11-.65h.25L18,21l.25-.48.44.15-.08-.55.4.4.08-.4.11.48.1-.26.22.15.29,1,.4-.54-.29-.48.29-.18.19.62.14-.58,0,.62.32-1.24L21,19.6v.47l.32-.47,0,.69.25-.47.37.25.14-.8.59.26,0-.37.18.44.26-.25L23,18.84l.4-.11.19.62.07-.19.43,0L25,18ZM12.38,24.84l0-.39,0-.05Z"/></svg>