<svg xmlns="http://www.w3.org/2000/svg" width="30" height="30" viewBox="0 0 30 30"><title>s-MI</title><path d="M12.48,9.37V8.15l-.41,1.22-2,2.59v.41l-.41-.56.3-.88H9.22l.26-1.56-1.07-.7V8L7,7.48,5.78,7.37l-.89-.52L1.3,5.63.93,4.74.26,4.48,2.63,3.19,3.93,3,5,2.37l.52-.15L6.7,1.15V1.7h.15l.41.11-.15.41.26.26L7.26,3.67l.26-.48.89-.56-.52.63.67-.37L9.7,3l.56.37L11.19,5l.55.15.74-.26.41.48.41-.22.4.37,1.82-1.33h2.26l2-.52-.26,1.48.82.22.63-.22.26.37L22,5.15l.63,1.29-.22.15.74.26L23,7.11l.66.48v.15l-2.11-.15-.26.15-.4-.26-.3.93-1-.82-1.85-.33-.41.48-.93.15-.14.26L15.15,8l-.41.67L14.19,9l-.38.74-.37-.22.37-.67.26.15V8.41H13.3l-.41.66Zm9.37-1.63.07,0,.08,0ZM7.26,2.11l.26.37L8.3,1.3,9.22.67,9,.41l1-.15L9.63,0,8,.26l-1.15.89v.41l.67.25ZM22.89,6.44l-.15-.25-.11-.3-.11.3Zm-9-1.18-.37-.37.14.37Zm8.81.63-.11-.52L22.74,5l-.22-.11-.26.37.37.63Zm-.82,1.89-.22.11h.41Zm3.19-.19-.74-.48.11.26-.78.37L24.85,8Zm-8.92,4.89v-.26l-.26-.15v.41Zm10.92,15.3v-.56l-.15.56ZM15.67,12.89l.14-.11-.14-.15-.15.15Zm13,5.92L28.3,18l-.78-.52L26.33,18l-.52.37h.26l-.55,1.07-.26-.15-.52.67-.93-.52.3-1.44.89-.41.26-1.07.67-.37.14-2.38-.66-1,.11-.41.55.26-.4-1.3-2.11-1.07h-.67l-.37-.63-1.08-.26-.66-.56-1,.15.15.11-.56.56v.63l.3.41.37.11-1.59.66-.15,1.45-.48,1.3.15-1.3-.41,1.18-.15-.37.26-1.89-.93,1.34L16.3,13l-.49.4-.14.75-.67.4.15,1.6-1.08,1.44.41,1.44-.41.93.67,2,.41-.15-.3.26.3,1.19.11,1.55-.67,2.26-1,2-.78.67h8V30l5.15-.26,1-1.55-.15-.41.3-1,.93-.62v-.78l.4-.3-.14-.26.63-.11v.67l.4-.41.41-2.11ZM17.37,9.7l.41.15L17.93,9h-.3Zm-.67,1.23v-.15l-.14-.11-.12-.15ZM18,8.67l-.11-.11h-.15l.15.25Zm3.66.4H22l-.15-.4h-.66Z"/></svg>