<svg xmlns="http://www.w3.org/2000/svg" width="30" height="30" viewBox="0 0 30 30"><title>s-MN</title><path d="M9.65.81,9.2,1V0l.52,0L9.8.33Zm9.15,16v-3H19l.44-.74,2-1.63,2.3-2.59L28,6.78l-.78-.11-.44.14-.74-.59L24,6.52l-.48-.78-1.3.93H21.09l-.37-.19L20.57,6l-.85-.26-.29-.56-.71.11-.07.41-.22.11L18,4.78l-.7-.08.18-.4-1-.37-1-.12L14.76,4l-.19.3-.88,0-.41-.55L10.8,3.26,10.46,3V2.52H10L9.54,2l-1,.48-.11-.66L2,1.56l.37,1.85L2.17,4V6L3,8.74l-.07,3.11.18.37L3,13.67l.67,2.52L3.5,17.78,2.46,19l.52.81.52.26.3.45-.37,9.26,9.63.22,9.74,0-.23-2-.37-.6-1-.29-1.63-1.82L18.83,25l-.33-.52-.7-.19-.86-.81.23-.82L17,22l.19-.33V21l.29-.77-.29-.71-.48,0-.12-.63.78-1.07Z"/></svg>