<svg xmlns="http://www.w3.org/2000/svg" width="30" height="30" viewBox="0 0 30 30"><title>s-MO</title><path d="M30,23l0,1.29-.37,1.05-.76-.29-.46,1-.13-.59H28l.2,1-.5.33.37.39-.66.07.39.69-.53.86-3.07,0,.3-.76,1.12-1,0-.5-.47-.73L4,25.47,4.82,9.88l-1-.4-.23-1-.93-1L3.3,6.44h.5V5.91l-.33-.43-.66.17-1.39-1L1.19,3.37.4,2.87.26,1.68,0,1.42l0-.3,7.8.56H18l1.32,1.43L19,4.3l.3,1.81.4.89,2.58,2.61.36,1.62.4.66.36,0,.49-.43,1.39.83L24.15,15.1l.07.73L25.31,17l.89.37L28.05,19v.72l.5.9-.5.79.76,1.26.43.26-.13-.43.26-.1.37.63Z"/></svg>