<svg xmlns="http://www.w3.org/2000/svg" width="30" height="30" viewBox="0 0 30 30"><title>s-MS</title><path d="M19.93,30l.26-.11L20,30Zm-.63,0,.14-.26v-.07l-.48.14Zm3.29,0,.22-.11-.29,0Zm-1.52-.29v.07l1.15.11-.81-.18Zm3.37-29L24,.11h-.85L13.11,0l.19.56-.93.59-.18.59-.41,0-.15,1.85-.48.3H10.7l-.07.51h-.19l-.33.49-.37.33.33.59-1.14.41.26.41L9.07,7l.08.45-1,.81.4.22-.11.37-.29.08.55.63-.37.92.37.26.15.71-.45.33v.78l.49.33-.49,1,.45.45-.52.37.37.48-.11.63,1.11.93L9,17.74l-.41.07.11.75L7.3,19.67l-.52,1.59-.52.44.22.52L6.26,23l-.67.19L6,24.52l-.44.26L15.74,25l-.55,1.89.25.74.71.7L16.7,30h.63l.11-.33.6-.37-.23-.23.19-.22.48.41,2-.59-.59-.08.3-.18.92.59.82-.26.66.52L23,29l-.44-9.52Z"/></svg>