<svg xmlns="http://www.w3.org/2000/svg" width="30" height="30" viewBox="0 0 30 30"><title>s-NC</title><path d="M26.33,17.25l.12.15h-.07l-.33-.23Zm1.42-1.33.09-.15-.09.06Zm-2.58,1.25-.64.23.92-.23h.45l-.18-.05Zm1.33.36.42-.73.61-.75-.65.7Zm2.62-5.93-.09,0,.69,1L29,11.17l-.31-.77-.3-.92.25,1Zm-.77-1.93-.05-.19H28l.09.19Zm-7,11,.18.05.14-.33-.25.16Zm8.43-6.12v0Zm-1.91,1-.08.17.24-.17Zm1.48-3.18L29.28,12,29,12l.25.4Zm.6,1-.28-.78.18.88-.07,1.07.05-.15Zm-.28,1.5.1-.3-.74.47Zm-1-2.88h-.25l.1.23-.23-.18-.18.15-.09,1L27.65,13,28,13l-.33-.38h.23v-.77l-.78.05.08.17-.56-.22-1,.17.11-.22-.25-.5,0-.8.2.14-.11.43.11.55.34.18.93-.38-.55-.5.83.48-.23-.53.43.38.35-.15-.46-.63.93.6-.2-.57.6.92L28.3,10v.25l-.18-.15V10l-.2-.18V9.48l-13.75.19-5-.42L9,10.3l-.61.15-.59.83-.5-.23-1.21.78-.24-.43L5.3,12,5,11.83l-.38.65-.6.12-1.15.75-1.32.13-.43.37-.23.6-.75.13L0,15.6l4.15.13L6.62,15l4.46.38v.32l.42-.2.47.7,0,.5,3.83.18,3.72,3.87.65-.37,1.15.25.32-.48-.09-.77.2.37-.06.68.66-1.6.62-.61.28-.11-.36.29-.2.23.38-.35.6-.28-.29.06.14-.06-.22-.37.22-.16L23.38,17l.37.42-.22.22.25.13.6-.5v-.33l.15.33.64-.22h.68l-.27-.11.32-.17.18.37,0-.47.38.33.78-.95-.3-.25.12.2-.45.17,0-.55-.12.43L26.28,16l.1.22-.3-.22-.41.35L25,16l-.45-.7,1,.65.75-.56,0-.25-.38.06.65-.45-1.65-.61-.32-.42,1.54.53L26,13.75l.6-.08-.38.18.33.43.23-.3.19.47.06-.22.67.22.43-.28.45-1,.14.28L29,13.2v-.78l-.41-.59Zm-.56,3.55.35-.22L29,15l-.7.38Z"/></svg>