<svg xmlns="http://www.w3.org/2000/svg" width="30" height="30" viewBox="0 0 30 30"><title>s-NJ</title><path d="M20.93,19.34,21.5,17l-.32,2.34Zm.67-2.75,0-.06L21.5,17ZM19.73,22.2l.88-1.27.32-1.31-1.55,2.86ZM21.6,7.8l.32-.92.56-1.55.32-1L15.28,0,14.4.28l-.67.6-.64,1.91-.88,1-1,.88.56,1.31-.28,1H11l-.36.6V9.67l.92.32.67,1.55h.32l.25.6L15,14.68l-.24.32-1.63.88-1.55,1.31h-.28l.28.6-.56.63-1.66.32L8.44,19,7.2,21.53l.25.67v.6H7.2v.28L8.75,25,9,24.67l.28.6H10l.67.95.36.67.84-.31.39.31h.88l.32,1-.63.91V30l.63-.25,1-.7v-.29l.88-.91-.56-.32h.56l.32-1,.92-1H15.6l.35-.35h.57l.63-.88v.28l-.28.6,1.31-.6-.36-.6h-.38V23.4h.74V22.2h.28l.56.6-.28-.6,1.55-1.87v-1l.64-1.55-.32-.32.32-.28-.32-.32.57-.28v-.71l.38.65,0-.26V15.6l.56-2.47V11.54l-.24.28-1.31-.6H20l-.6-.28V10l.6-1.2.63-1v.6ZM18.18,24.07l-.74-.28.38.28ZM19,23.4h-.56l-.28.67h.28Z"/></svg>