<svg xmlns="http://www.w3.org/2000/svg" width="30" height="30" viewBox="0 0 30 30"><title>s-NY</title><path d="M22.13,23.93l-3-1.83-.17-.34-1-.37-.25-.54,0-1.09L17,19.48l-.31-.63L0,18.19l.09-1.34,2.39-1.42.46-.69.6-.31-.15-1,.2-.37-.65-.28,0-.92,2.62-.45,2.31.34.6.51.83-.2,1.45.32.11-.29.83-.14L12.8,11l.57.05.32-.34,0-.37-.09.09-.28-1.06.22-.25.06.25.6-.77-.54.12L14,8.36l-.31-.15-.34.23L13.15,8,15,6.73l.57-1.06L17.2,4.31l1.45-.72h5.42v.29l0,1.71.29.85L24.18,7.5l-.4.91.29,1.4-.2.88.06.2.4-.25.14.37.08,4.05-.88,3.33-.17,4.08.28.34-.94.6.32.52-.66.62.06.23-.46.06-.31.51.48-1.57L22,22.3l-.2.26Zm-8-16.83-.2.06,0,.08.34-.08Zm.43-.17.17-.14-.45.14.05.23ZM29.46,22.47l.2-.2-.34.14.08.06ZM3.17,13l0,.31.17.14.23-.28ZM30,23.41l-1,.37-.26-.28,0,.2-.52,0-.51.66h-.66l1.43-1.2-.37-.06-1.06.86L25.18,24l-.4.29-.71-.2.14.25-.28-.25-.15.28-.51,0-.11.4-.26-.31-.06.37-.08-.09V25L22.1,25l-.46.65.15.37.48-.11-.08-.2.28-.11.29.2-.66.28L23.41,26l-.51-.11L27,24.78l-.34.2Zm-5.62,2.23-.88.2.63-.06.62-.23ZM13.63,8.58V8.41l-.26.37.2-.17ZM24.55,25.75l.55-.11L26.49,25l-1.94.71Zm-3.68.66.69-.43v-.29l-.43.06Z"/></svg>