<svg xmlns="http://www.w3.org/2000/svg" width="30" height="30" viewBox="0 0 30 30"><title>s-OH</title><path d="M28.38,12.52l-.16.92.16.52-.8,2-.08,1.28h-.32l.08.44-.44.84L27,19l-.2.84-2.24,2-.92.44-.36-.52H23l-.6.52-.16.6h-.64l-.48.84v.6l-.44.12.32.4.12.8-.44-.08-.44.68-.32-1L19.54,25l-.36.16-1,1.8.24,1.44-.76.2-.28,1.2L15.62,30,15,29l-.84-.48-.52-1.32-.84.28-.8.84-1,.08L10.62,28l-1-.44-.68.24-.16.36H8.3L7.3,27l-.68-.16-.72.08-.84-.44-.6-1.64-1-.76-1.12.2-.6-.6-.68.4L1.82,2.32l8.4-.08,2.36.92.6.68.64,0,.24-.44,1,.68-2.24.36.84.32.8-.36,1.16.36-.48-.52.84.68.6.12,2.64-1L21,4.2l2.4-2L28.62,0l.28,11.16-1,.52Z"/></svg>