<svg xmlns="http://www.w3.org/2000/svg" width="30" height="30" viewBox="0 0 30 30"><title>s-OR</title><path d="M29.61,6.32,28.86,6l-.48-.83-7.63.22-.31.31-1.76.13-2.32,1H15l-1,.48-.92,0-.48-.39L10.75,6.8l-1.67.79L7.41,7.06,6.93,5l-.79-.62H5.83l-.44.18L5,4.47,4.69,4,4,4.25l-.26-.08-.31,0,.13.13L2.94,4l.17,1-.22.44,0,.92L3,6.84l.22-.09-.31.57.31.4L3,7.81l-.09-.35L2.85,8,3,8.16l-.31.39,0,.92-.39,1.67v1l.17.13H2.37l-.18.83.22.26-.17-.08-.18.61-.44,3.07.17-.11-.21.42L1.1,18.55,1.62,18l.13.57-.26-.22L1.14,19l0-.4-.18.13L.57,20.26,0,21.32l.57,1L.39,23.86.61,25l.53.62,14.17.3,13.46-.21-.48-9.43.31-1-.14-.44.31-.35L28.42,14l-.79,0-.09-.57.57-1.8.66-.87v-.57L30,7.24ZM1.81,16.8l.08-.05.22.18ZM3.6,4.65l-.05-.31.13.13Z"/></svg>