<svg xmlns="http://www.w3.org/2000/svg" width="30" height="30" viewBox="0 0 30 30"><title>s-RI</title><path d="M12.84,28.59l.45.92-.61.41-.76.08-.3-.27-.11-.41.22-.76.65-.34v-.88l.46.15ZM16,11.73l.64-.6.57.19.46.45.61-1.21L18,10.14l-.57-.65V6.87l.49.91.42,1.6.53.46.69.38.22-1.14.38.19-.6,2.24.22.87.84-.19.65-.53.11-1.07-.76-1.32-1.4-1.11-.54-.57.16-3.18-1-.19L17.51,0,6.84.19l0,17.13-.3,3.45-.3.15-.35.76-.3,2.51,2.24-.42,4.41-1.55,1.17-.08,1.22.42.26-.12L16.56,19l0-.65,0-1.75L16,15.34l.87-1.29.15-.64-.42-1.33ZM17.32,17l.3.31-.46.45,0,1.22.19.23.6-.65.35-2v-1l-.54-.3Zm6.91-2.35-.31-.5.31-1.82-1.67-.61-.34,1.11-.08,1.48.42,2.84-.15.61L22.78,19l1.6-1.52Zm-3.91,0-.76.91v.72l-.42.87.42.92-1.07.6-.15.73.23.15.65-.57.49.15L20.66,18l.83.27-.11-.35.11-3.76.38-1.82-1.25,1.07Z"/></svg>