<svg xmlns="http://www.w3.org/2000/svg" width="30" height="30" viewBox="0 0 30 30"><title>s-SC</title><path d="M25.15,19.32l.12-.12v.12l-.12.28ZM30,12.9,23.11,6.14l-7-.19,0-1-.9-1.13-.72.34-.07-.65L6.17,3.07l-.09-.13-.26.32L4.26,3.6,3.85,4l-2.28.5L.31,5.82,0,6.67l1.16.78.75.88,1.16.31.78,2.16.72.91.22.66,1.88,1.44.6,1.25.72.28.78.79.06.84.53.44-.06.35.47.37.06.41,1.57.91.12.84.6,1.38v.88l1.31,1.09.44,1.26-.19,1,.54.78h.47l.72.41.65-1.63.07.31-.28.72.9-.78L16,24.9l-.44-1.7.47.38.19,1,.5.44V23.83h.16L17,25.3l1.09-.47.22-.65-.72.47.56-.54-.84-.25.72-.15-1.32-.13,0-.19h.91l-.06-.34,1,.66.19-.44.22.37.78-.59-.34-.5L20,23,21,22.67,21,22.39l.47-.06.47-.38.06-.28-.66-.31h.25l-.12-.54h.34l-.09.41.53.31,1.51-1.22.12-.15-.25.15-.12-.15.25-.6.4-.19.19.35.66-.16.12-.37.47-.35-.28-.37.41.25v-.32l.31.19.22-.31-.72-.88.44-.84.22-.25-.47,1,.34.12.19.6.31-1.51,1.19-1.75,1.1-1L30,13.22,29.81,13Z"/></svg>