<svg xmlns="http://www.w3.org/2000/svg" width="30" height="30" viewBox="0 0 30 30"><title>TX</title><path d="M22.27,23.65l-.32.68-.13.33-.36.81.36-1.14Zm.29-.65-.22.65.32-.45V23Zm-1.1,2.57-.06.06.06.85.68,1.91-.58-2.85Zm1.2-2.5.33-.36.71-.36-.81.36ZM29.51,16,30,14.69l-.91-1.39v-.56l-.55-.48-.26-4.19-.78.1-1.95-1-.26.29-.48-.1-.46.2-.29-.1L23.18,8l-.71-.42-.33.13-.32-.23-.49.62-.13-.52-.52.32-.52-.45-.55.26L19.19,7l-.88.29L18.12,7l-1.24-.2-.52-.55-.09.13h-.49l-.84-.48L14.9.8H8.44l-.36,12L0,12.52.13,13,2.76,15.8l1,.61,1.08,2.7,2.5,1.69.55.13.68-.75.39-1.37.65-.06.19-.26.39.16,1.69.1.23.55.26-.06,1.3,1.23.94,2.24.48.49.59,1,.78.39L16.59,26l.59.68.32,1.08.65.06,1.59.72,1.27.06.74.58.07-.29.45-.22-.13-.17-.09.1.06-.23-.29,0-.68-1.88.19-.2L21.14,26l.26-.71h-.78l.29-.07-.29-.45.35.45.3-.32-.13.39.26-.1.42-1-.68-.52.81.1.39-.75-.29.3-.1-.39.39-.23.13.29.13-.06.29-.3,0-.55.32.33.52-.3-.32,0,.16-.19-.36-.52.42.13-.06.29.16-.16,0-.13-.13-.26.1,0,.1.23.42-.13.13.13-.19.13.52-.23-.52.55,1.13-.71-.48.16v0l1.2-.59.58-.58v-.33l.65-.42v.1l-.55.58.71-.68h-.16L27,19.24l-.32-.81.39.09.29-.22-.13.61.84-.16v.06L27.5,19l-.1.39,1.56-1,.46-.13-.2-.36.49-.65ZM24,22.06l.2-.13-.36.16Z"/></svg>