<svg xmlns="http://www.w3.org/2000/svg" width="30" height="30" viewBox="0 0 30 30"><title>USA</title><path d="M18.13,20.75l.1.08,0,.05h-.06l-.08-.05ZM25,23.51l.06,0h0Zm.08-.14.08.11v-.05l0,0Zm-.15.19H25v0h0Zm2-7.84,0,0,0,0h0Zm-2.49,6.41.07.1,0-.1ZM20,20.51v-.13L20,20.3Zm-1.09.64v0l-.08,0ZM29.1,10.63l-.08,0,.13,0,0-.08Zm.08-2h.05v0l-.08,0Zm.05-.1.08,0v0h-.08Zm-.56,2.17h.06l.1,0,0-.06Zm-1.59,4.43.08.29-.1.1.1,0,0-.11,0-.16Zm.08-2.63,0-.08-.08.08Zm-.23,3.18.08-.08,0-.08-.13.08ZM1.72,17.39h0l.1.05,0,0ZM2.15,7.08,2.07,7l0,.06.08,0ZM2,6.6l0,.08,0,0L2,6.55l-.05.08.05,0Zm.11.18L2,6.89,2,7v.11l0-.14L2,6.89h.11ZM1.91,6.7l0-.07V6.7l0,0Zm13.75.67V7.29l-.1-.06,0,.16Zm5.89,1.56-.11-.08V8.9L21.39,9l.13,0Zm-1.67-.16v.06h.05ZM18.66,8l.16-.1,0-.11L18.58,8l0,.08L18.68,8ZM15.11,22l-.08.16.1-.16v0ZM2.36,17.39v.07h.1l0-.05ZM15.13,22l.11-.08.16-.1v-.06l-.21.16ZM2.28,17.36l.08,0h0Zm0,.29,0,.13.08,0-.08-.16ZM29.36,8.4l.08,0V8.35h0l0-.08ZM1.67,16.83l-.08,0,.08.1.19,0-.06,0Zm-.24,0,0,.1.1,0,0,0Zm27-6.71h0ZM17.94,8.69l-.08.06h.08Zm7.61,12.88v0h0Zm-5-12.21,0-.11h0l0,.11Zm-2.68-.53.08,0-.05,0-.08.08Zm3.24.34,0,0,0,0-.06,0ZM2.12,7l0,0h0ZM24.2,10.55l.05,0v-.05h-.08ZM19.82,9.7h0l0,0-.16.24.06.1.1-.21Zm5.65,11.71.1.14-.26-.4Zm1.43-7.79L27,13.3l-.1.35ZM2.15,7.08l0-.11V7ZM30,7.82,29.92,8l-.05,0-.06-.08v.14l0-.06v.06h0v0h-.08v0l0-.06v.06l-.06,0v.13l0-.08v.08l-.06-.08v.16l-.08-.1v0l-.08,0,.06,0-.06.08-.05-.08,0,.08h-.08l.08.13-.19,0,0-.08,0,.05V8.27h0v.05l-.06.08,0,0,0,.32-.05,0V8.69L29,8.75V8.67l-.08.18-.08,0V8.75l0,.08,0,.1-.06-.18,0,.05,0,0,0,.13-.05-.11L28.67,9l0-.06-.11.19.08,0-.08,0,0,.06-.11.16v.15l0,0,0,.24.08.08,0,0-.09.06,0,.07h0V10l0,0,.05,0,0,0,.09,0,.08.06v.05h.1l0,.11h.13l.11-.06V10.2h0l0,0h-.14l.14,0,.1.11,0,.11-.27.13-.08.08v-.13h-.08l0,.1h0v.05l-.08.06v-.06l-.08.08,0-.1,0-.08,0,0h0l-.08,0v.29l-.29.11-.08.05-.08,0,.05,0-.08.05-.24,0-.07.1-.27.22,0,.13-.08.05-.05.05-.05.06,0,.1.16.06v-.08l0,.16,0,.34h0v.08l0,.05v0l-.06.1h-.05v.08h0v0l0,.06-.08.05h0l-.07.24-.08.05v-.19l-.16,0-.25-.14.19.35.19.06v.08l0,0,0,.05,0,.05.08-.05,0,.19,0-.06,0,0,0,.05-.11.19-.05.42-.08.06v.16l0,.07-.05-.07v-.22l.05-.08v-.1l.05-.06-.05,0,.05,0-.13,0,0-.13H26.5l.05-.08H26.5v-.11l0,.11v-.06l-.06.11-.08-.11v.06l-.1-.11h0l.06-.05h-.06l0,0h.13l0-.08,0,.05-.13-.08,0,.08v-.13l.11.05-.06-.07.06,0-.08,0-.08.08V13h.1l.06-.08-.08.08-.08-.08.05-.13.16-.06h-.11l.06-.08h.05l0,0v-.05l-.08.07.06-.07-.08.05v.05l-.08.08v-.08l0,.11v0h-.08l0,0,0,.05,0,0-.06,0,.06.08H26l.08,0,0,.05H26l.11.08h-.08l0,0v.1l.16.27-.17,0v0l.16.08.08.13-.11,0v0l-.08,0H26L26,13.44v.13l-.1-.16-.08.11h-.06v-.14l.08-.1v-.14h0l0,.11-.1.05v.27h.08l.08-.08.1.11h.19l.05.07.16.06v0l0,0,0,.19-.11,0v0l.14,0-.06,0h.08v.14l-.08-.06.06.11h-.06L26.13,14v.05l.19.13h.08l.08.14-.08,0-.14-.1-.05,0-.08-.08-.05.08L26,14.2l-.13.06H26l0,0,.16,0,0,0,0,.06.11.08v.05l.05,0h.08l0-.08h.18l.11.24.13.19.18.26L27,15l0,0L27,15H27L27,15l-.24-.45v.11l0,0,0,.06-.08,0,0,0,.06.1v-.08l.13.27-.13-.16.05.08-.16-.08.08.1,0,.06-.08-.06.05.08-.16,0,.11,0-.13.08-.08,0,0-.14,0,0,.06.26.18-.08.08.06v-.06l.11,0v.1l0,0,.08.05-.08,0h.08v-.19h.08V15l.11.05v.24l-.08,0-.11.24-.13,0v0l0-.08-.05.08-.06-.08.06,0-.11,0,.05.08-.29,0,.08.05.32.06-.11.1.06,0v0l-.11.14-.18-.08.08.1h.15l0-.08.08.06-.05-.06h.08v.06l0-.06v0h0v.1l-.08.11-.08,0,.05.08-.08-.08,0,.08h.06l-.11,0-.13,0,.11,0h0l-.11,0,0,0v0l-.08.11h-.05l0,0-.08.08h0l0,.08v0l-.08.1-.05.29v-.16l0,0v.22h-.24l-.18.16-.19.26v.16l-.05-.05,0-.11,0,.08v.08l.05,0,0,.08,0,0v0l-.13,0,0,.08L25,17.7,25,17.62v.08l.05,0-.05.05-.1.08-.06-.05,0,.05,0,.06-.16,0-.05,0h.08l-.05,0h.1l-.08.08.08-.06v.06l-.1.05,0-.13v.1h0l-.05-.1-.05,0,.05.15.11.06-.06.1v-.1l-.08.13.08,0-.08,0v.08h-.1v0h.08l-.06.05h-.1l0,.05v0h.07v.08l0-.05-.06.05,0,.08.07-.08-.07.13,0,0,0,.06h-.08l.13,0-.08.11,0,0,0,.08,0,.08,0,0h0l0,.05,0,.11h0v.1l0,0v0l.08.08.13.37.32.51.24.29,0,0H25v-.1H25l.08.29.32.42,0,.11.14.19h0l.11.27.05.63-.05.16v.27l.05,0-.05.11-.11.18.1-.21h-.12l-.08.08h-.11l-.13,0-.05,0V23l0,0,0,0h.08l0,.05.06-.05-.16-.06L25,22.63l-.16-.05-.08,0,0-.06-.11,0-.05-.27-.11,0,.11-.18-.13.18-.08-.29.08-.05-.13.05-.08,0,.08.1h-.08l-.22-.34-.1,0v0l0,0v-.08h0l.13-.21-.05-.05-.08.05v-.05L24,21.25l-.06.06.08,0,0,.16,0,0v.05l-.08-.11,0-.45,0-.32-.13-.15h-.13l-.29-.22v-.1l-.08,0-.11-.1-.21-.11h-.13l-.14.11h.08v.05h-.1l-.17.14.09,0-.19.11-.05.05,0-.05.16-.07v-.07l-.08.08-.21.06,0-.14L21.89,20l.13.07L22,20l-.06,0L21.86,20l.06-.05v-.05l-.06.08,0,0-.08,0,.1.1L21.6,20l-.27,0,.19-.05h.05l-.05-.06-.11,0-.08,0,0,.11h0l-.4.11h0l.35-.11h0L21,20l.19-.05L21,19.88l0,0,0,0-.05.11-.08-.08.05.08-.1.11-.11,0,0,0H20.7l0,.07h0l-.24.06.16-.06L20.54,20h0l0-.1-.08-.08,0,.31L20.22,20l0,.07-.06-.05-.1.05-.1,0-.19.1-.06,0-.08.13-.07,0-.38-.13L19,20.3l0,.08.13,0,.11,0,.08-.08.08,0,.05,0,0,.08-.08,0,.11.1.1-.18h.08l.11-.06v.11l-.11-.05-.05.08h.05l-.05.05.08,0v.05h0l-.08,0-.07.06.1.07-.13,0,0,0-.06,0,.13.13v0h.11l.11,0v0l.05.08.08.05-.08.11L19.8,21l-.11.16.08-.19-.05.06-.06-.11h-.13v-.05l-.1,0,0,0,0-.06h-.08l-.16-.08,0,.08.16,0v.08l-.13.16,0-.11-.05-.05,0,.08,0-.11V21H19l-.06.11-.08,0L18.79,21v.05L18.5,21l.05-.08.08.11,0,0-.11-.13v-.11l-.05.11-.08-.06-.08,0-.05-.16-.14,0v-.08l-.21,0,0,.08,0,0v.08h.08l-.18.06-.24,0-.34-.11-.38.08,0-.08H17l.05-.1h-.08l-.07.1.07.11h-.15l-.22.13v-.05l-.18.05,0-.13,0,0-.05.06-.11,0,0,.05V21l.08,0-.06,0,.08.05-.18.13h0l0,.11-.27.21-.21.05v0l.13-.05-.29.15.13-.1-.13,0,.05,0h-.05l0,0-.11,0,0-.05h0l0,.05,0,0,0,0,0-.08-.13,0,0,.11.05,0,0,.06h.08l-.16.1-.05-.1v0h-.06l.06.14-.08,0-.06.06,0-.08-.08,0-.06.08.08.08L15,22l-.08.19-.24,0,.08,0v0l.1.06-.1.26-.08,0,0,0v0l-.16.08h.19l0,.18h0l0,.11,0,0v0l0,0,.08.22h-.05l.08.1,0,.16.08,0,0,.05.05-.05v.08l-.13,0v.05l-.21-.13-.35-.05-.13-.11H14l-.08-.08-.19,0-.1-.3-.13-.18,0-.35-.21-.13L13.14,22,13,21.92l0-.16-.16-.32,0-.11-.21-.26-.1-.05,0-.06,0,0-.08-.13-.4,0-.13-.08,0,.11h-.21l-.11.29v.08l-.08,0-.1.11-.14,0-.23-.16-.16,0-.29-.27-.11-.21,0-.16-.18-.32L9.94,20l-.35-.4-.13-.11-.1-.18L8.3,19.27l-.06.31-1.69-.13L4.37,18.34l.11-.13-1.43-.08L3,18.05l.08,0v0L3,18v-.23l-.07-.22L2.6,17.2l-.14,0,0-.21H2.25l-.18-.1L2,16.72l-.15-.13-.51-.11-.1-.1.08-.4-.11-.08,0-.16L1,15.56,1,15.32l-.16-.27,0-.18.1-.06,0-.13,0-.08-.1,0-.11-.11-.08-.31L.64,14h0v.13l.16.16h0L.82,14l0,0v-.06l0-.05,0,0,.06,0-.06-.06H.69v.18l0,0-.18-.27-.08.08.08-.15.05.07-.11-.23L.16,13l0-.13v-.19l0-.18,0-.27L0,12.06v-.13l.13-.16,0,0,.08-.1-.08,0,.08-.13V11.5l.1-.24V11.1L.29,11l.05-.13-.05-.08v-.18l.05-.21-.05-.14L.48,10l0,0,.06-.05,0,0V9.89l-.08,0,.08-.13.08,0h0l.1-.42.08-.08,0,0,.08-.08V9L1,8.56v0H1l0-.08.08-.06H1l0,0,.1-.18,0-.11.1.05,0,0h.18l.08.08-.08-.11-.1,0L1,8.06l.08-.27L1.17,8V8h0V7.82h.08l-.16-.05V7.63l.08.08,0,0,.1,0-.1-.1-.06,0V7.1L1,6.86,1,6.6l.35.24.34.1.08-.05L1.86,7l0,0,0,.08V7H2l0,0L2,7.13l-.13.1v0l-.08.08h.11L2,7.18V7.1l0,.13H2l0,.06v.08l0-.14,0,.06,0,.08H2l0-.06,0,.08.1,0v0l-.08.16,0,0,0,0V7.45l-.19.13h.11l0,0,0,.06,0-.08.06.08.07-.08,0,0,0,0,.06,0V7.21l.16-.11-.08-.16.05-.05-.08-.11L2,6.76l0,0,.08,0,0-.08H2.2V6.6H2.07l.05,0v0L2.07,6.6h0l0-.16,0,0L5,6.94l3,.37,1.94.14,1.83.08,1.85,0,1.86-.08,0,.08.13-.08.14.08,0,.11.4,0,0,.06.26-.06.27,0v0h.13l.05.13.05,0,.08,0,.3.18h.13l.18-.13.06.11.31-.08.08.1.08,0h.11l-.56.29-.61.58.08.08.27-.08.26-.1,0,0,0,.19,0,0v0L18,9l.32-.19.24-.08.19-.1.1-.16.06.05V8.43L19,8.27l.24,0,.05,0-.16,0,0,.05-.11.11L19,8.59h0v.16l.13-.16-.05.1.05-.08h.19l.11.06.1.16.24,0,.05,0,0,0,.08,0,.24-.18.32-.06.26-.1,0,.18.14.06.05-.06.05.06.14-.08h0l0-.06h.05v.16l-.1-.1.1.16h-.05l.1,0,.08.11-.26,0h0L21,9l-.05.16L20.8,9l-.29,0,0,.11-.14,0h-.18L20,9.43l-.05,0L20,9.2l-.16.05-.06.13,0-.18,0,.18-.24.4v.08l-.08.08-.08.18v.06l.06,0,.1-.21.13-.05.06.05-.06.35,0,.08-.11.21,0,.13-.1.32,0,.16.13.13v.4l.16.29.19.13.1-.08L20.3,12l.16-.42v-.35L20.38,11v0l0,0-.16-.24,0-.13,0-.16.11-.27,0-.21.08,0V9.83l.06,0h.08l.08-.19,0,.24,0,0,.07-.11v.11l.06-.16V9.54l.18-.11-.08,0,.06-.18,0,0,.08,0,.16.06h.13l.11.1.37.13.08.11h-.08v.05l.1.14V10l-.05.08-.05.11-.11.08,0,.18.13.06.1-.06.08-.15,0,0L22,10.2h.08l.13.14.19.55v.29l-.08,0V11.1h-.05l-.06.06v.16l-.1.1,0,.13,0,.06-.13.24.26.05.08,0,.11,0-.22,0h.24l0,0,.13,0,.21-.08.13,0,.22-.19.47-.32L24,11l.32-.34-.05-.16-.08,0,0-.1.48-.19.27,0,.34-.05.21-.24.11,0,0-.08-.1-.11.1-.11h-.05V9.54l-.08.05-.05-.08.15-.13,0,0,.05-.06v0l.06,0,.05-.16.19-.24L26,8.77l1.72-.42,0-.13.06-.08h.05l.08-.06.08,0V8l.11,0L28,7.92l.05,0,.08-.13,0-.16-.05-.16.05-.19,0-.18.26-.61h.08l0,.11.08,0,.24-.21h.08l.24.1.29.9h.18l.06.24.1,0,0,0,.11.11-.08,0,0,.08.05-.08ZM1.89,7.51l0,0v0Zm-.22-.09,0,0,.16,0H1.7l.1-.13Zm-.48,6.41-.1,0,.08-.08L1,13.83l0-.08-.11.08.24.08ZM19,8.59l0-.08h0V8.45l0,0H18.9ZM20.86,20l-.06,0V20ZM25,21.84l.16.1h.1l0-.18,0-.08-.1,0Zm.85-8.19.1,0-.08,0Zm.84-1.51-.05.1-.11.06-.07.18.07-.13.14-.11Zm.45-.82-.05-.11-.05-.05.1.19ZM2,7.53,2,7.47v0H2ZM14.89,22.34l-.05.29.05-.18.06-.11Zm-.05.58.13.48-.13-.58Zm1.33-1.67.23-.15h0Zm10.94-9.64v0l-.05,0v.1Zm.35-.08.08,0h0Zm-.3.08.11-.06,0,.06.14-.06-.08,0,.41-.2-.17.12v0l.07,0,.14-.14.1,0-.08,0,.31-.25h0v0H28l0,.11-.13,0L28,11l-.19.16-.5.16v.08l0-.05v.08l-.11.05-.05.08ZM16.38,21.07l.17-.11-.15,0ZM28.57,9.78l0,0h0Zm0,0h0ZM28.2,11l-.12.09h0Zm.45-.82h0l0,0Zm-1.46,2.2,0-.06,0,0ZM22.1,20.3l0,0-.05-.11ZM24.33,19h0l0,0Zm-7.77,2Zm9.17,1.49v0Zm-.61-1.57,0-.13,0-.11-.08.08Zm0-.24Zm.19.51-.13-.27,0-.16-.08-.08.06.27Z"/></svg>