<svg xmlns="http://www.w3.org/2000/svg" width="30" height="30" viewBox="0 0 30 30"><title>VA</title><path d="M28.4,17.49l.11-.13-.08.18Zm-.63,3.85h0v-.17l-.14.06Zm-.26-1.65.55,1.65-.46-.85v.85l-.29-.2.06.2-7.26.09H12.74L0,20.66l1.94-.55.26-.42.71-.15.75-1,1.23-.62L6.23,16.8l.08.74,1.23.77.77-.54.52.4,1.26-.28.08-.4.4.14.77-.34.26.2.57-.4.26-.49-.2-.29L14,13.74l.54-1.48.4.17.09.43.77.25,1-1.91.46.26L18.8,9.83l.29-1.26,1.65,1.26.43-.77.6.08.4.37L22,9.94l.8.35.77.65v.69l-.34.2-.06.28-.23,0-.25,1.05-.2-.14.31.29-.26.11,1.15-.26.08.26-.2.09L24,14l.74.29.49,0,.26.57,1,.49v.4l-.35-.15.15,1-.58-.28-.14.23-1.57-2-.43-.34-.26.06.69.34,1.49,1.94.85.29L26,17l.54.09-.05.82L26,17.34l-.11.55.25.17-.31.11L24.6,17l-.06.09,1,1.08.55.14.28.38-.08.17.23,0-.15.4-.37.14-.86-1.06-.31.14-.46-.6-.28.4-.26-.4-.11.19.08,0,.2.25.83.35.23-.15.08.63.66.4-.2.43.54-.14.29.14-.06-.43Zm-3.94-1.52.11-.06-.74-.28-.05.2Zm5.89-2.83h.14l.11-.08.29-.69Zm-.92,1.95,0,.07.09-.1Zm.09-2.49-.34.46.25.28-.43.15-.05.57-.4.31-.29,1.32.23.77.2-.35.11.2.05-.25h.15l0-.09v-.26l-.18.32.15-.94.32-.23L28.29,17l.14-.2.17.26.2-.17.57-1.69.2-.49Z"/></svg>