<svg xmlns="http://www.w3.org/2000/svg" width="30" height="30" viewBox="0 0 30 30"><title>WA</title><path d="M8,9.35l-.45.45L8,10l.12,1.08.15-.48.44.39-.05.59-.3-.44H8.1l-.18-.93H7.71L7.38,9.8l.36-.87L8,8.87l.27.6Zm0,4,.33.18v-.18l-.21-.6ZM7.53,7.89,7.71,8l0-.12-.18-.21Zm-1-.18.06-.18.18.21.24,0L6.9,7.14l.3.57.24-.33-.36-.3h-.3l-.3.36Zm1,3.32.15-.21-.15-.24,0-.09Zm.33-3.77L7.62,7v.12L8,7.44Zm.86,7.32-.23-.18-.12-.54-.18.3-.06.66.24-.36.09.06-.15.3Zm-1.49,1.2.18.18.12-.18-.12-.12ZM6.75,8.4l.39.35-.06-.26L7,7.92Zm.09,6.78L6.9,15l-.3.36.24.3Zm22.8,6.24.18-.35-.18-.54-.42-.6L28.54,5.29l-10.13.3L7.53,5.53l0,.18-.24.12L7.53,6l.21,1,.36-.21.3.15.18,1L8.49,8,8.1,7.8l.3.72-.3-.18v.18l-.21-.3-.27.09.09.39.09.14.3-.17L8.22,9l.53.42V9.8H8.58l.26.09,0,.75.6.36L9,11.44l-.35.81L8.52,13l.35.33,0,.18-.26,0,.29,1.19-.38.54-.39-.3-.18.6-.6.6L7,15.78,6.84,16v-.18l-.18.59-.12-.47-.29.3.29-.54L6,16.14l.24-.24H6l.06-.06.35-.18.66-1.2.12,1.26.18-1,.36-.36v.18L7.53,15l.45.24.24-1.44L8,13.45l-.48.3.18-.3-.21-.24,0-.18.36.42-.21-.87.21.27.18-.3.3-.06-.24-.87-.27-.21.15.72L7.8,12l-.54,1-.72.36-.65,1.13.24.12L7,14.22l-.89.48-.36-.06L7,12.49l-.06-.42.12.24L7.14,12v.9l.75-1.08-.63-1.13.06-.33-.42.12.18.42-.18.27-.15-.63-.45.33-.47-.6L6,10l-.54.36L3,10,.09,8.67.33,9,0,10l.15.87,1.08,2,.08,1.61.42,1v1.43l.36-.65.39.41.66.18-.87.3v.36L1.91,17l.15,1,.78,0,.48.36-.27,0-.21-.18-.06.56-.24-.14.15.41-.09.45.36.27-.3-.09L2.48,20l-.09-.43.15.07.06-.18-.12-.24-.1.29-.2-.91-.27,2,.36-.18.57.36.66-.27.32.24h.63L5,21.3l.72-.14.54.32.65.9.24,1.85,1.79.48,1.89-.84,2,.12.48.48.95-.12,1.08-.48,1.55-.06,1.14-.56,1.1-.21.36-.3,1.82-.18.36-.27L30,22ZM6.48,5.47H6.25v.12l.17-.06ZM6.6,8.52l-.06-.36-.35-.54-.3.09.12.6ZM8.34,10.4l.53.42-.38-.6.09-.42H8.31Z"/></svg>