<svg xmlns="http://www.w3.org/2000/svg" width="30" height="30" viewBox="0 0 30 30"><title>WI</title><path d="M11.21,1,10.88.86,11,.71l.22.15Zm.68-.07L12,.79,11.4,1l.49.12Zm.6-.94-.3.52.3-.11ZM11.06,1.91l.68-.37-.08-.23-.93.75Zm17.48,8.78-.15.45h.49l0-.41Zm-.23.78h-.22l-.42.64-.56.23-.11.78-.49.61,0,.48.34.45.72-.86,0-.26.63-.87-.26-.26.26.08,0-.68.3-.07ZM10.2.52,10.09.41,9.94.6l.15.08ZM26.29,14.21l-.6.27-.83,1.23-.75.75-.3.08-.3-.23.9-2.25.9-.52.23-.75-.6-.53L25.13,11l-.94.07.34-.79,0-1.27-.42-.41-1-.26.08-.53-.45-.49-1.61-.45-1.39-.07-1.28-.68L13.8,4.88l-.49-1.17-.71-.18-.11-.34-.75-.08-.83-.63-.11.41-.71.18.82-1.87L10.69.86l-.3-.18L10,.86l-.67.53L8.89,1.2,8,1.88,6.26,2.4l-.79.08-.59-.6-.57.71H4L3.94,6.41l-.34.3H3.26l-1.35.75L1.09,8.81v.87l.6,0,.37,1-.52.82V12.6l-.23.34.23,1L1.2,15.07l1,.94.9.19.49.71.86.3.75.68.6,1.2.71.64,1.17.33.52.6.19,1.28v1.72l.19.68.52.37-.37,1,.37,2.39.38.57,1.5.37.22.94H25.09l0-1.91-.64-1.58-.08-1.57.9-2.93-.18-1.54.41-1.08.67-.68-.3-.82.9-3.15Z"/></svg>