<svg xmlns="http://www.w3.org/2000/svg" width="30" height="30" viewBox="0 0 30 30"><title>WV</title><path d="M30,11.83l-.56,1.5-3-2.38L26,12.42l-.1.82-1,1.34-.59.49h-.42l-.72,1.07-.78-.42-1.74,3.33-1.4-.46-.2-.65-.62-.19-1,2.48-.69.69-.55,1.4-1.28,1.47-.55,1,.46.49-.56.4.07.42-.95.69-.52-.36-1.31.72-.65-.36-.23.75L8.5,28.1l-.75-.75-1.28,1-.65-.07-1.11-.65-.89-1.41L4,25.75l-1-.26L2,24.54l-1.08-2,.07-.3L0,20.82l.39-.72,0-1.37,1.54-.14.35-1.14.59-.16L2.75,16l1-1.7.32-.16.36.26.26.91.46-.58.36.13L5.2,13.69l.45-.19V13l.4-.72h.58l.27-.55.45-.49h.33L8,11.7l.89-.43L11,9.54l.32-.68-.22-.4.42-.78V7.25l.29-.06.14-1.14.81-1.9-.16-.52L12.71,3,12.35,1.9l.89-.3-.1,7.26h6.3l-.06,4,1.21-.79,1.08-1.24.36-.1.55.2.88-.88.2-.53.23.17-.07.29.43.16,1.34.17.16-.2-.1-.23.2-.1-.1-.19.88-.13.62-.56,1.25.85.78-.13.1.26-.26.1.13.42.13-.26.06.4.36-.07-.26.43.36.19Z"/></svg>