<svg xmlns="http://www.w3.org/2000/svg" width="30" height="30" viewBox="0 0 30 30"><path d="M21.45,17,19,19.81V0H18V2.32c-1.23-.07-8.74-.2-9.64,7C7.67,14.87,12.82,18.4,15.93,20h-8l-1-2H.28v1c.11,0,2.63,0,2.63,3.5C2.91,27.55,7.51,30,17,30c10.93,0,10.93-4.39,10.93-6.5A3.25,3.25,0,0,1,29.72,21l.28-.14V17Zm-8.18-6.68c0-3.48,3.84-7,4.73-7.82V20h-.51C16.14,18,13.27,13.33,13.27,10.32ZM29,20.21a4,4,0,0,0-2.09,3.29c0,1.92,0,5.5-9.93,5.5C8.19,29,3.91,26.87,3.91,22.5A4.57,4.57,0,0,0,2.65,19H6.24l1,2h12l2.61-3H29Z" /></svg>