<svg xmlns="http://www.w3.org/2000/svg" width="30" height="30" viewBox="0 0 30 30">
<path class="st0" d="M15.1,16.7c-2.8-2-3.5-3.2-0.8-5.3c1.5-1.1,2.4-2.8,2.5-4.6C16.9,4.9,16,3.1,14.3,2h2.3l1.9-2H10
	C4.5,0,2,3.3,2,6.8s2.5,6.5,7.3,6.5c-0.8,1.3-0.4,3,0.8,3.9C1.8,17.3,0,20.9,0,23.7c0,3.6,4.2,5.8,9.2,5.8c6.7,0,9.5-3.6,9.5-6.7
	C18.7,20.4,17.8,18.8,15.1,16.7z M10,12c-2.4-0.1-4.6-2.2-5-5.3c-0.4-3,1.2-5.4,3.5-5.3C10.8,1.5,12.9,4,13.3,7S12.3,12.1,10,12z
	 M9.1,27.8L9.1,27.8C5.5,27.8,3,25.6,3,23c0-2.6,3-4.8,6.4-4.8c3.9,0,6.2,2.5,6.2,4.9C15.7,25.8,13.5,27.8,9.1,27.8z M30,4v2h-4v4
	h-2V6h-4V4h4V0h2v4H30z"/>
</svg>
