<svg xmlns="http://www.w3.org/2000/svg" width="30" height="30" viewBox="0 0 30 30"><path d="M14.54,4V1a.5.5,0,0,1,.5-.5.5.5,0,0,1,.5.5V4a.5.5,0,0,1-.5.5A.5.5,0,0,1,14.54,4ZM24.8,19.25c0,.17-.05,1.61-.65,2.15,0,.08.05.19.07.28a2.53,2.53,0,0,1-.51,2.67l-.08.07-.21.14c-.27.17-.28.18-.23.57a2.81,2.81,0,0,1-.6,2.23c-.86,1-2.53,1.57-5.12,1.71-.31,0-.64,0-1,0A13.62,13.62,0,0,1,9,27a2,2,0,0,1-2,1.75H4a2,2,0,0,1-2-2V15a2,2,0,0,1,2-2H7a2,2,0,0,1,2,1.94c1.12-.78,4-3.09,4.58-6.28a11.77,11.77,0,0,0,.28-2.78.94.94,0,0,1,.64-.62l.1,0A2.32,2.32,0,0,1,17,5.66c.67.58,1.64,2,.63,5-.45,1.35-.48,2.34-.09,2.77a1.37,1.37,0,0,0,1.15.28c.45-.06,4.11-.53,5.39,1.11a2.49,2.49,0,0,1,.13,2.6h0s0,.25.11.35S24.82,18.12,24.8,19.25ZM8,15a1,1,0,0,0-1-1H4a1,1,0,0,0-1,1V26.74a1,1,0,0,0,1,1H7a1,1,0,0,0,1-1Zm15.71,3.58a1.36,1.36,0,0,1-.43-1.42c.32-.78.32-1.31,0-1.68-.78-1-3.53-.86-4.43-.74a2.3,2.3,0,0,1-2.06-.59c-.66-.74-.7-2-.12-3.76.82-2.47.15-3.53-.33-3.94A1.35,1.35,0,0,0,15,6.08l-.17.08a15.75,15.75,0,0,1-.32,2.65c-.69,3.87-4.27,6.46-5.24,7.1-.09,3.56-.16,9-.06,10.08h0a12.82,12.82,0,0,0,8.16,2.08c2.83-.16,4-.83,4.42-1.36a1.76,1.76,0,0,0,.36-1.47,1.34,1.34,0,0,1,.69-1.52l.13-.09a1.59,1.59,0,0,0,.25-1.69c-.11-.38-.26-1,.24-1.29A3.28,3.28,0,0,0,23.71,18.55ZM19.58,6.24a.51.51,0,0,0,.36-.15L22.06,4a.5.5,0,0,0-.71-.71L19.23,5.39a.5.5,0,0,0,.35.85Zm5,3.47h-3a.5.5,0,0,0-.5.5.5.5,0,0,0,.5.5h3a.5.5,0,0,0,.5-.5A.5.5,0,0,0,24.54,9.71ZM5.79,11h3a.5.5,0,0,0,.5-.5.5.5,0,0,0-.5-.5h-3a.5.5,0,0,0-.5.5A.51.51,0,0,0,5.79,11Zm4.43-4.69a.49.49,0,0,0,.35.15.51.51,0,0,0,.36-.15.51.51,0,0,0,0-.71L8.8,3.44a.5.5,0,0,0-.7,0,.5.5,0,0,0,0,.71ZM7.11,24.14a1.89,1.89,0,1,1-1.89-1.89A1.89,1.89,0,0,1,7.11,24.14Zm-1,0a.89.89,0,1,0-.89.88A.89.89,0,0,0,6.11,24.14Z" /></svg>