<svg xmlns="http://www.w3.org/2000/svg" width="30" height="30" viewBox="0 0 30 30"><path d="M21.07,16.52c-.33-.34-.84-.94-1.37-1.6l1.2-1.42a5.58,5.58,0,0,0,1.53.47h.08a2.25,2.25,0,0,0,.52.07,3.31,3.31,0,0,0,.63,0,6.61,6.61,0,0,0,4.46-2,6.66,6.66,0,0,0,1.66-4.65,1.18,1.18,0,0,0-.29-.72,1.14,1.14,0,0,0-.79-.39,1.12,1.12,0,0,0-.83.29l-2,1.8a1.22,1.22,0,0,1-1.67-.1L22.81,6.69A1.21,1.21,0,0,1,22.91,5l2-1.81a1.12,1.12,0,0,0-.58-2,5.39,5.39,0,0,0-1.15-.07,6.52,6.52,0,0,0-6.08,4.59,3.13,3.13,0,0,0-.15.81l-.07,1.19a5.58,5.58,0,0,0,.44,1.8v0a1.85,1.85,0,0,0-.28.28l-1.24,1.45a2.2,2.2,0,0,0-1.14.29L12.3,9.12a2.22,2.22,0,0,1-.38-.77,1.18,1.18,0,0,1,.14-.73.3.3,0,0,1,.34-.14l1.15.24A.39.39,0,0,0,14,7.58l1.22-1.22a1.34,1.34,0,0,0,0-1.84l-4-4a1.25,1.25,0,0,0-1.81,0L8.09,1.74A.5.5,0,0,0,8,2.17l.21,1A.66.66,0,0,1,8,3.72a.53.53,0,0,1-.49.14l-1-.21H6.31a.53.53,0,0,0-.24.14L2.9,7a7.48,7.48,0,0,0,0,10.58l0,0a.63.63,0,0,0,.8,0l1.43-1.08a.69.69,0,0,0,.21-.84,2.67,2.67,0,0,1,.52-3.1L6,12.45A2.43,2.43,0,0,1,9,12.38l0,0,3,2a2.17,2.17,0,0,0-.3,1.08,2,2,0,0,0,.11.65l-1.53,1.79a5.54,5.54,0,0,0-1.54-.45v0H8.6a3,3,0,0,0-.52-.06,3.3,3.3,0,0,0-.63,0A6.58,6.58,0,0,0,3,19.4a6.65,6.65,0,0,0-1.66,4.65,1.21,1.21,0,0,0,.29.72,1.1,1.1,0,0,0,.79.38,1.11,1.11,0,0,0,.83-.28l2.05-1.8a1.2,1.2,0,0,1,1.66.1L8.3,24.74a1.21,1.21,0,0,1-.1,1.66l-2,1.8a1.14,1.14,0,0,0-.33,1.17,1.12,1.12,0,0,0,.91.8,6.13,6.13,0,0,0,1.15.07A6.51,6.51,0,0,0,14,25.65a3.21,3.21,0,0,0,.15-.81l.07-1.15h0v0h0a8.94,8.94,0,0,0-.37-1.84l1.82-2.13c.38.32.72.6.94.81,2,1.89,7.42,8.24,7.5,8.33a2.16,2.16,0,0,0,3.07,0l2-2a2.14,2.14,0,0,0,.63-1.53,2.19,2.19,0,0,0-.66-1.57C29.05,23.68,22.9,18.44,21.07,16.52Zm-3.24-6,0,0a1.17,1.17,0,0,1,.8-.4h.05a7.45,7.45,0,0,1-.32-.71c0-.09-.08-.17-.1-.23a1,1,0,0,0-.07-.12,7.91,7.91,0,0,1-.28-1.45A3.59,3.59,0,0,1,18,6.8a5.43,5.43,0,0,1,6.14-4.56l.37.06L21.3,5.13a1,1,0,0,0-.09,1.37l3,3.37a1,1,0,0,0,1.38.08l3.19-2.82V7.5c0,.15,0,.3,0,.45A5.4,5.4,0,0,1,23.05,13l-.4,0-.37,0a4.43,4.43,0,0,1-.87-.22,3.74,3.74,0,0,1-.89-.46,1.33,1.33,0,0,1-.19.35L20,13l-1,1.13C18.17,13,17.37,12,17.34,12a2.24,2.24,0,0,0-.43-.33ZM5.41,11.79,5.2,12a3.63,3.63,0,0,0-.84,3.83l0,.1-1.05.8-.1-.1a6.66,6.66,0,0,1,.34-9l3-3,.77.18a1.52,1.52,0,0,0,1.39-.42A1.47,1.47,0,0,0,9.13,3L9,2.26l1-1a.34.34,0,0,1,.49,0l4,4a.36.36,0,0,1,0,.49l-1,1-.9-.17A1.27,1.27,0,0,0,11.29,7,2,2,0,0,0,11,8.56a2.58,2.58,0,0,0,.4.93l0,0,.23.24a.93.93,0,0,0,.13.15h0L14,12.25,12.5,13.72,9.71,11.85v0A3.35,3.35,0,0,0,5.41,11.79Zm7.93,9-.35.4a1,1,0,0,1-.41.3,2.87,2.87,0,0,1,.15.32c.08.18.14.3.17.35a1.87,1.87,0,0,1,.08.25c.07.31.15.81.21,1.26v0a3.23,3.23,0,0,1,0,.88A5.42,5.42,0,0,1,7,29.18l-.37-.06L9.81,26.3a1,1,0,0,0,.09-1.38l-3-3.36a1,1,0,0,0-1.37-.09L2.35,24.3v-.38c0-.14,0-.29,0-.44a5.41,5.41,0,0,1,5.73-5.07l.4,0a5.24,5.24,0,0,1,1.12.28,5.17,5.17,0,0,1,.91.46s0,0,0-.06l.6-.71L12.3,17l0,0s1.33,1,2.53,2Zm15.09,5.3-2,2a1.23,1.23,0,0,1-1.64,0c-.22-.26-5.51-6.45-7.55-8.38-1-1-4.19-3.39-4.28-3.45a1.16,1.16,0,0,1-.34-.83,1.17,1.17,0,0,1,.34-.83l2-2a1.17,1.17,0,0,1,1.62-.05c.11.14,2.73,3.52,3.76,4.59,1.87,2,7.86,7.07,8.08,7.26a1.16,1.16,0,0,1,.34.83A1.17,1.17,0,0,1,28.43,26.13Z" /></svg>