<svg xmlns="http://www.w3.org/2000/svg" width="30" height="30" viewBox="0 0 30 30"><path d="M2.65,17.35a7.48,7.48,0,0,1,0-10.58L5.82,3.6a.63.63,0,0,1,.24-.14h.21l1,.21a.51.51,0,0,0,.48-.14A.66.66,0,0,0,7.91,3L7.7,2a.54.54,0,0,1,.14-.44L9.09.33A1.25,1.25,0,0,1,10,0a1.22,1.22,0,0,1,.9.38l4,4a1.35,1.35,0,0,1,0,1.85L13.78,7.34a5.57,5.57,0,0,0-.71.14l-.91-.19a.32.32,0,0,0-.35.14,1.25,1.25,0,0,0-.13.56,7.27,7.27,0,0,0-.91.5s0-.08,0-.12A2,2,0,0,1,11,6.84a1.29,1.29,0,0,1,1.29-.49l.91.17,1-1a.34.34,0,0,0,0-.49l-4-4a.36.36,0,0,0-.49,0l-1,1,.17.73a1.49,1.49,0,0,1-.41,1.39,1.55,1.55,0,0,1-1.4.42l-.76-.17-3,2.95a6.65,6.65,0,0,0-.35,9l.1.1,1.05-.8,0-.1A3.65,3.65,0,0,1,5,11.78l.21-.18A3.39,3.39,0,0,1,8.34,11a7.75,7.75,0,0,0-.42.81,2.41,2.41,0,0,0-2.14.45l-.13.14a2.64,2.64,0,0,0-.53,3.09.68.68,0,0,1-.21.84L3.49,17.42a.63.63,0,0,1-.8,0Zm15-9.94a3.59,3.59,0,0,1,.05-.8,5.42,5.42,0,0,1,6.15-4.55l.36.06L21.05,4.94A1,1,0,0,0,21,6.32l3,3.36a1,1,0,0,0,1.38.08l3.19-2.82,0,.37c0,.15,0,.3,0,.45a5.4,5.4,0,0,1-5.72,5.06l-.36,0a7.53,7.53,0,0,1,.22,1h.11a2.66,2.66,0,0,0,.63,0,6.64,6.64,0,0,0,4.47-2,6.65,6.65,0,0,0,1.65-4.65,1.24,1.24,0,0,0-.28-.72,1.16,1.16,0,0,0-.8-.39,1.18,1.18,0,0,0-.83.29l-2,1.8a1.21,1.21,0,0,1-1.67-.1L22.56,6.5a1.21,1.21,0,0,1,.11-1.66l2-1.81A1.16,1.16,0,0,0,25,1.87a1.12,1.12,0,0,0-.92-.8A6,6,0,0,0,23,1a6.53,6.53,0,0,0-6.09,4.59,3.21,3.21,0,0,0-.15.81l-.06,1a9.08,9.08,0,0,1,1.05.31C17.71,7.63,17.7,7.52,17.68,7.41Zm4.58,10.32a7,7,0,0,1-.43,1c2.5,2.3,6.18,5.43,6.35,5.58a1.16,1.16,0,0,1,.35.83,1.18,1.18,0,0,1-.35.83l-2,2a1.23,1.23,0,0,1-1.64,0c-.16-.19-3.19-3.74-5.55-6.31a8.11,8.11,0,0,1-.92.49c2.4,2.6,5.68,6.43,5.74,6.5a2.17,2.17,0,0,0,1.54.64,2.15,2.15,0,0,0,1.53-.64l2-2a2.17,2.17,0,0,0,.64-1.54,2.2,2.2,0,0,0-.67-1.57C28.81,23.5,24.77,20.06,22.26,17.73Zm-8.32,5.73-.11-.79a7.39,7.39,0,0,1-1.06-.23c.06.3.12.71.17,1.08v0a3.34,3.34,0,0,1-.06.89A5.42,5.42,0,0,1,6.74,29l-.37-.06,3.2-2.82a1,1,0,0,0,.08-1.38l-3-3.36a1,1,0,0,0-1.38-.09L2.1,24.11v-.37c0-.15,0-.3,0-.45a5.42,5.42,0,0,1,5.73-5.07h.13a7.43,7.43,0,0,1-.39-1.06,2,2,0,0,0-.34,0,6.62,6.62,0,0,0-4.47,2,6.66,6.66,0,0,0-1.66,4.65,1.25,1.25,0,0,0,.29.72,1.1,1.1,0,0,0,.79.38A1.15,1.15,0,0,0,3,24.68l2-1.8A1.2,1.2,0,0,1,6.7,23l1.35,1.57A1.2,1.2,0,0,1,8,26.21L5.91,28a1.16,1.16,0,0,0-.33,1.16,1.11,1.11,0,0,0,.91.8,6.13,6.13,0,0,0,1.15.07,6.51,6.51,0,0,0,6.08-4.59,3.21,3.21,0,0,0,.15-.81l.07-1.15h0v0ZM15,22a7,7,0,1,1,7-7A7,7,0,0,1,15,22Zm6-7a6,6,0,1,0-6,6A6,6,0,0,0,21,15Zm-.8-1.29-3.14,2.45,1.16,3.53-3.22-2-3.22,2,1.16-3.53L9.8,13.71h4l1.21-4,1.21,4Zm-4.3,2.1,1.4-1.1H15.47L15,13.17l-.47,1.54H12.7l1.4,1.1-.52,1.6L15,16.53l1.42.88Z" /></svg>