<svg xmlns="http://www.w3.org/2000/svg" width="30" height="30" viewBox="0 0 30 30"><path d="M29.54,9V9a2,2,0,0,0-1.09-1,2.22,2.22,0,0,0-.91-1.35,2.24,2.24,0,0,0-2.3,0A2.16,2.16,0,0,0,24,8.42l-1.44.84a7,7,0,0,0-4,0C17,8.42,8.57,4.29,2.66,12c-1.81,2.38-2.11,4.6-.87,6.6C4,22,10.49,23.25,15.34,23.25a22,22,0,0,0,5.18-.56c3.73-.89,5.78-2.16,6.27-3.92s-.94-3.58-2.17-4.8l-.16-.24a5.29,5.29,0,0,0,.21-.81l.24-.27.42-.45a9.16,9.16,0,0,1,1-.6,2,2,0,0,0,2.1.51A2.35,2.35,0,0,0,29.54,9Zm-3.71,9.52c-.37,1.33-2.29,2.43-5.55,3.21a21.12,21.12,0,0,1-4.94.53c-5,0-10.82-1.31-12.7-4.23-1-1.62-.74-3.41.81-5.45a9.86,9.86,0,0,1,8.07-4.21,13.8,13.8,0,0,1,6.06,1.55A3.53,3.53,0,0,0,15.31,12a3.44,3.44,0,0,0,.4,3.24,4.4,4.4,0,0,0,3.5,1.66c2.43,0,3.67-.78,4.61-2.33l0,0C25,15.71,26.18,17.16,25.83,18.51ZM28,11.21c-.25.13-.65-.06-1.25-.59l-.25-.22-.3.15a8.78,8.78,0,0,0-1.52.94l-.46.49-.32.35-.12.12v.1c-1,2.47-1.88,3.35-4.51,3.35a3.48,3.48,0,0,1-2.7-1.25,2.49,2.49,0,0,1-.24-2.34c.64-2,4.71-2.14,6.28-2l.16,0L25,9l0-.33a1.13,1.13,0,0,1,.7-1.13A1.28,1.28,0,0,1,27,7.42a1.21,1.21,0,0,1,.53,1l0,.41.4.05a.92.92,0,0,1,.7.56A1.34,1.34,0,0,1,28,11.21Zm-17.42-.83a.5.5,0,0,1-.32.63C10,11.08,5,12.82,6.62,18a.5.5,0,0,1-.33.62.4.4,0,0,1-.15,0,.51.51,0,0,1-.48-.35c-1.55-4.89,2.09-7.53,4.24-8.24A.49.49,0,0,1,10.53,10.38Z" /></svg>