<svg xmlns="http://www.w3.org/2000/svg" width="30" height="30" viewBox="0 0 30 30"><path d="M11.94,18.06A3.06,3.06,0,1,0,15,15,3.06,3.06,0,0,0,11.94,18.06Zm5.12,0A2.06,2.06,0,1,1,15,16,2.06,2.06,0,0,1,17.06,18.06ZM16,22H14a5,5,0,0,0-5,5v3H21V27A5,5,0,0,0,16,22Zm4,7H10V27a4,4,0,0,1,4-4h2a4,4,0,0,1,4,4Zm-.06-13A3.06,3.06,0,1,0,23,13,3.06,3.06,0,0,0,19.94,16ZM23,14A2.06,2.06,0,1,1,20.94,16,2.06,2.06,0,0,1,23,14ZM7,19.1A3.06,3.06,0,1,0,4,16,3.05,3.05,0,0,0,7,19.1ZM7,14A2.06,2.06,0,1,1,5,16,2.05,2.05,0,0,1,7,14Zm8,0A7,7,0,1,0,8,7,7,7,0,0,0,15,14ZM15,1A6,6,0,1,1,9,7,6,6,0,0,1,15,1ZM14,7.5v-4a.5.5,0,0,1,1,0V7h2.83a.5.5,0,0,1,0,1H14.5A.5.5,0,0,1,14,7.5ZM2,25v2H8v1H1V25a5,5,0,0,1,5-5H8A5,5,0,0,1,11.6,21.5a7.59,7.59,0,0,0-.93.51A4,4,0,0,0,8,21H6A4,4,0,0,0,2,25Zm27,0v3H22V27h6V25a4,4,0,0,0-4-4H22a4,4,0,0,0-2.66,1,5.61,5.61,0,0,0-.93-.51A5,5,0,0,1,22,20h2A5,5,0,0,1,29,25Z" /></svg>