<svg xmlns="http://www.w3.org/2000/svg" width="30" height="30" viewBox="0 0 30 30"><path d="M9,9.79A4.4,4.4,0,1,0,4.61,5.4,4.38,4.38,0,0,0,9,9.79ZM9,2A3.4,3.4,0,1,1,5.61,5.4,3.4,3.4,0,0,1,9,2ZM28.4,18.44A2.05,2.05,0,0,0,27,18H16a1.62,1.62,0,0,0-1.49.51A1.5,1.5,0,0,0,14,19.9V26c0,1.31.67,1.9,2,2H27a2,2,0,0,0,2-2V19.9A2,2,0,0,0,28.4,18.44ZM16,19H27a1.34,1.34,0,0,1,.67.13l-5.79,4.65L15.55,19.1a.27.27,0,0,0-.11-.05A1.6,1.6,0,0,1,16,19Zm-1,7V20l3.57,2.64s0,0,0,0L15,26.21A1,1,0,0,1,15,26Zm12,1H16l-.23,0,3.53-3.52a.78.78,0,0,0,.1-.15l2.15,1.59h0a.43.43,0,0,0,.26.09.45.45,0,0,0,.27-.1h0l1.57-1.27L27,26.84a.42.42,0,0,0,.18.11A.79.79,0,0,1,27,27Zm1-1a1,1,0,0,1-.05.23.47.47,0,0,0-.12-.18l-3.18-3.13L28,20.22ZM17.89,17a7.17,7.17,0,0,0-7.07-6H7.18A7.19,7.19,0,0,0,0,18.18V22H13V19.09a1.68,1.68,0,0,1,.56-1.53A1.7,1.7,0,0,1,15.15,17Zm-5.05-.13A2.64,2.64,0,0,0,12,19.09V21H1V18.18A6.18,6.18,0,0,1,7.18,12h3.64a6.15,6.15,0,0,1,5.78,4H15.15A2.65,2.65,0,0,0,12.84,16.87Z" /></svg>