<svg xmlns="http://www.w3.org/2000/svg" width="30" height="30" viewBox="0 0 30 30"><path d="M4.61,5.4A4.39,4.39,0,1,1,9,9.79,4.39,4.39,0,0,1,4.61,5.4ZM22.05,24.9h0a.51.51,0,0,1-.27.09.44.44,0,0,1-.25-.08s0,0,0,0L19.28,23.4l-.06.09L15,27.78A3,3,0,0,0,16,28H27a2,2,0,0,0,1-.26L23.78,23.6Zm6.35-6.46A2.05,2.05,0,0,0,27,18H16a1.62,1.62,0,0,0-1.49.51A1.5,1.5,0,0,0,14,19.9V26a2.28,2.28,0,0,0,.2,1l4.19-4.24L15,20.41a.5.5,0,0,1,.56-.82l6.21,4.29,5.71-4.28a.51.51,0,0,1,.7.1.5.5,0,0,1-.1.7l-3.39,2.54,4.07,4A1.92,1.92,0,0,0,29,26V19.9A2,2,0,0,0,28.4,18.44ZM17.89,17a7.17,7.17,0,0,0-7.07-6H7.18A7.19,7.19,0,0,0,0,18.18V22H13V19.09a1.68,1.68,0,0,1,.56-1.53A1.7,1.7,0,0,1,15.15,17Z" /></svg>