<svg xmlns="http://www.w3.org/2000/svg" width="30" height="30" viewBox="0 0 30 30"><path d="M25.26,22a3.25,3.25,0,1,0-2.35,0A5,5,0,0,0,18,27v3H30V27A5,5,0,0,0,25.26,22Zm-3.4-3a2.26,2.26,0,1,1,2.25,2.26A2.26,2.26,0,0,1,21.86,19ZM29,29H19V27a4,4,0,0,1,4-4h2a4,4,0,0,1,4,4ZM6,21.74a2.26,2.26,0,1,0-2.25-2.26A2.26,2.26,0,0,0,6,21.74Zm0-3.51a1.26,1.26,0,1,1-1.25,1.25A1.25,1.25,0,0,1,6,18.23ZM6.58,22H5.42a2.65,2.65,0,0,0-2.26.5A3.15,3.15,0,0,0,2,25v2h8V25A3.15,3.15,0,0,0,8.84,22.5,2.65,2.65,0,0,0,6.58,22ZM9,26H3V25a2.15,2.15,0,0,1,.77-1.69A1.67,1.67,0,0,1,5.25,23h1.5a1.67,1.67,0,0,1,1.48.3A2.15,2.15,0,0,1,9,25ZM15,4.74a2.26,2.26,0,1,0-2.25-2.26A2.26,2.26,0,0,0,15,4.74Zm0-3.51a1.26,1.26,0,1,1-1.25,1.25A1.25,1.25,0,0,1,15,1.23ZM19,8A3.15,3.15,0,0,0,17.84,5.5,2.68,2.68,0,0,0,15.58,5H14.42a2.68,2.68,0,0,0-2.26.5A3.15,3.15,0,0,0,11,8v2h8ZM18,9H12V8a2.15,2.15,0,0,1,.77-1.69A1.67,1.67,0,0,1,14.25,6h1.5a1.67,1.67,0,0,1,1.48.3A2.15,2.15,0,0,1,18,8Zm-3,7.15-4,4-.71-.7,4.23-4.23V11.18h1v4.06l4.23,4.23-.71.7Zm11,9.41-.94.94.2,1.35-1.21-.67-1.15.67.21-1.35-.95-.94,1.28-.2.61-1.21.6,1.21Z" /></svg>