<svg xmlns="http://www.w3.org/2000/svg" width="30" height="30" viewBox="0 0 30 30"><path d="M15.11,6.85a3.26,3.26,0,1,0-3.25-3.26A3.26,3.26,0,0,0,15.11,6.85Zm0-5.52a2.26,2.26,0,1,1-2.25,2.26A2.26,2.26,0,0,1,15.11,1.33ZM21,12a5,5,0,0,0-5-5H14a5,5,0,0,0-5,5v3H21Zm-1,2H10V12a4,4,0,0,1,4-4h2a4,4,0,0,1,4,4ZM5.75,24.74A2.26,2.26,0,1,0,3.5,22.48,2.26,2.26,0,0,0,5.75,24.74Zm0-3.51A1.26,1.26,0,1,1,4.5,22.48,1.25,1.25,0,0,1,5.75,21.23ZM6.33,25H5.17a2.65,2.65,0,0,0-2.26.5A3.15,3.15,0,0,0,1.75,28v2h8V28A3.15,3.15,0,0,0,8.59,25.5,2.65,2.65,0,0,0,6.33,25Zm2.42,4h-6V28a2.15,2.15,0,0,1,.77-1.69A1.67,1.67,0,0,1,5,26H6.5a1.67,1.67,0,0,1,1.48.3A2.15,2.15,0,0,1,8.75,28ZM24,24.74a2.26,2.26,0,1,0-2.25-2.26A2.26,2.26,0,0,0,24,24.74Zm0-3.51a1.26,1.26,0,1,1-1.25,1.25A1.25,1.25,0,0,1,24,21.23Zm2.84,4.27a2.65,2.65,0,0,0-2.26-.5H23.42a2.65,2.65,0,0,0-2.26.5A3.15,3.15,0,0,0,20,28v2h8V28A3.15,3.15,0,0,0,26.84,25.5ZM27,29H21V28a2.15,2.15,0,0,1,.77-1.69,1.67,1.67,0,0,1,1.48-.3h1.5a1.67,1.67,0,0,1,1.48.3A2.15,2.15,0,0,1,27,28ZM15.5,20.24l4.23,4.23-.71.7-4-4-4,4-.71-.7,4.23-4.23V16.18h1ZM17,10.16l-.94.95.2,1.34-1.21-.67-1.15.67.21-1.34-1-.95,1.28-.2.61-1.21.6,1.21Z" /></svg>