<svg xmlns="http://www.w3.org/2000/svg" width="30" height="30" viewBox="0 0 30 30"><path d="M6,14.5H4.43a2,2,0,1,0,0,1H6ZM2.5,16a1,1,0,1,1,1-1A1,1,0,0,1,2.5,16ZM7,14.5H9v1H7ZM14.5,4.43V6h1V4.43a2,2,0,1,0-1,0ZM15,1.5a1,1,0,1,1-1,1A1,1,0,0,1,15,1.5ZM21.72,9,23,7.73a1.45,1.45,0,0,0,.51.1,1.42,1.42,0,0,0,1-2.42,1.44,1.44,0,0,0-1-.41,1.4,1.4,0,0,0-1.25,2.05L21,8.28Zm1.47-2.87a.42.42,0,1,1,.3.71.42.42,0,0,1-.3-.71ZM8.28,21,7,22.27a1.45,1.45,0,0,0-.51-.1,1.42,1.42,0,0,0-1,2.42,1.44,1.44,0,0,0,1,.41A1.4,1.4,0,0,0,7.76,23L9,21.72ZM6.81,23.88a.42.42,0,1,1,.12-.29A.45.45,0,0,1,6.81,23.88ZM6.41,7.93a1.42,1.42,0,0,0,.64-.17L8.28,9,9,8.28,7.73,7a1.42,1.42,0,0,0-.32-1.51,1.41,1.41,0,0,0-1-.41,1.44,1.44,0,0,0-1,.41,1.42,1.42,0,0,0,1,2.42ZM6.12,6.22a.42.42,0,1,1,0,.59A.42.42,0,0,1,6.12,6.22ZM27.5,13a2,2,0,0,0-1.93,1.5H24v1h1.57A2,2,0,1,0,27.5,13Zm0,3a1,1,0,1,1,1-1A1,1,0,0,1,27.5,16Zm-4.75-.5h-2v-1h2ZM15.5,25.57V24h-1v1.57a2,2,0,1,0,1,0ZM15,28.5a1,1,0,1,1,1-1A1,1,0,0,1,15,28.5Zm.5-5.89h-1v-2h1Zm-1-15.3h1v2h-1Zm9.09,14.76a1.42,1.42,0,0,0-.64.17L21.72,21l-.71.71L22.27,23a1.42,1.42,0,0,0,.32,1.51,1.41,1.41,0,0,0,1,.41,1.44,1.44,0,0,0,1-.41,1.42,1.42,0,0,0-1-2.42Zm.29,1.71a.42.42,0,1,1,0-.59A.42.42,0,0,1,23.88,23.78Zm-6.8-10.36A2.08,2.08,0,1,0,15,15.5,2.08,2.08,0,0,0,17.08,13.42ZM15,14.5a1.08,1.08,0,1,1,1.08-1.08A1.08,1.08,0,0,1,15,14.5Zm4.6-4.8L18.27,11a5.06,5.06,0,0,0-6.54,0L10.4,9.7l-.7.7L11,11.73A5.11,5.11,0,0,0,9.83,15,5,5,0,0,0,11,18.27L9.7,19.6l.7.7L11.74,19l0,.05a5.47,5.47,0,0,0,.63.44,5,5,0,0,0,5.16,0,5.47,5.47,0,0,0,.63-.44l.05-.05L19.6,20.3l.7-.7L19,18.27A5,5,0,0,0,20.17,15,5.11,5.11,0,0,0,19,11.73L20.3,10.4Zm-2.39,8.79a3.93,3.93,0,0,1-4.42,0v-.41a1.57,1.57,0,0,1,1.57-1.58h1.28a1.57,1.57,0,0,1,1.57,1.58Zm2-3.49a4.08,4.08,0,0,1-1,2.67,2.56,2.56,0,0,0-2.53-2.17H14.36a2.56,2.56,0,0,0-2.53,2.17,4.08,4.08,0,0,1-1-2.67,4.17,4.17,0,0,1,8.34,0Z" /></svg>