<svg xmlns="http://www.w3.org/2000/svg" width="40" height="40" viewBox="0 0 40 40">
  <title>outline-performyard</title>
  <path d="M34,11.35V24.67c0,.62-.42,1.27-.71,1.27h-8l-7.27,4v-4H7a1.12,1.12,0,0,1-1-1L5.94,11.35c0-.45.78-1.41,1.29-1.41H33.31C33.6,9.94,34,10.73,34,11.35Z" fill="#fff"/>
  <path d="M28.14,15.93H32l-3,2.41L30.11,22l-3.09-2-3.09,2,1.12-3.61-3-2.41H25.9L27,12Z" fill="#96e58a"/>
  <path d="M33.31,8H7.23A3.63,3.63,0,0,0,4,11.35V24.67a3.51,3.51,0,0,0,3.2,3.24l8.81,0,0,5,9.68-5h7.57c1.64,0,2.63-1.63,2.63-3.27V11.35C35.94,9.7,35,8,33.31,8ZM34,24.67c0,.62-.42,1.27-.71,1.27h-8l-7.27,4v-4H7a1.12,1.12,0,0,1-1-1L5.94,11.35c0-.45.78-1.41,1.29-1.41H33.31c.29,0,.71.79.71,1.41ZM11.79,15a3,3,0,1,1,3,3A3,3,0,0,1,11.79,15Zm9.15,7.94H9c0-2.71,2.67-4.57,5.76-4.57S20.94,20.23,20.94,22.94Z" fill="#26a977"/>
</svg>
