<svg xmlns="http://www.w3.org/2000/svg" width="40" height="40" viewBox="0 0 40 40"><path d="M31.82,8.4A3.77,3.77,0,0,0,29,7.33c-3.35,0-7.8,2.93-10.19,4.7l-1.95.85a33.64,33.64,0,0,0-8.19,4.68c-1.07,1-1.54,1.76-1.5,2.48a2.36,2.36,0,0,0,.89,2,1.76,1.76,0,0,0,1,.29,1.67,1.67,0,0,0,.57-.09l1.8-.89-2.13,3a11,11,0,0,0,2.63,3.63,29.61,29.61,0,0,0,3.53,2.45L19,28l-1,2.23a1.81,1.81,0,0,0,.2,1.55,2.36,2.36,0,0,0,2,.9h.07c.7,0,1.45-.47,2.41-1.51a53.39,53.39,0,0,0,6.3-11C31.65,16.54,34.32,11,31.82,8.4ZM9.21,20.19a.79.79,0,0,1,0-.17c.39-1,4.67-3.95,6.66-4.87l-2.11,2.94Zm6.2,7.8a26,26,0,0,1-2.2-1.61,7.49,7.49,0,0,1-1.57-1.93l7-9.71C21.19,12.58,26.13,9.33,29,9.33a1.74,1.74,0,0,1,1.37.47c.12.12.49.5.41,1.66-.23,3.4-3.85,8.45-5.75,10Zm4.71,2.67-.18,0,2.22-4.84,2.89-2C24.19,25.81,21.17,30.26,20.12,30.66Z" fill="#26a977"/><path d="M29,8.83c-3.87,0-9.9,4.83-10.79,5.57l-7.18,10a8.36,8.36,0,0,0,1.84,2.35,27.66,27.66,0,0,0,2.53,1.82l9.92-6.77c2.17-1.68,5.73-7,6-10.33a2.54,2.54,0,0,0-.55-2A2.29,2.29,0,0,0,29,8.83Z" fill="#fff"/><path d="M25.19,17.54a2.55,2.55,0,0,1-1.87-4.29l1-1.09a2.62,2.62,0,0,1,1.78-.81,2.57,2.57,0,0,1,1.83.68,2.51,2.51,0,0,1,.81,1.78,2.57,2.57,0,0,1-.68,1.83l-1,1.09A2.55,2.55,0,0,1,25.19,17.54Zm1.14-4.92h0a1.13,1.13,0,0,0-.79.37l-1.27,1.35a1.2,1.2,0,0,0-.3.83,1.12,1.12,0,0,0,.36.79,1.26,1.26,0,0,0,.83.31,1.12,1.12,0,0,0,.79-.36l1.27-1.36a1.17,1.17,0,0,0,.3-.82,1.13,1.13,0,0,0-.36-.8A1.15,1.15,0,0,0,26.33,12.62Z" fill="#96e58a"/></svg>