<svg xmlns="http://www.w3.org/2000/svg" width="40" height="40" viewBox="0 0 40 40"><path d="M28,12.64H26v-.72a3.28,3.28,0,0,0-.95-2.31,3.24,3.24,0,0,0-2.3-1H17.26A3.26,3.26,0,0,0,14,11.89v.75H12v-.75a5.28,5.28,0,0,1,5.26-5.25h5.49A5.28,5.28,0,0,1,28,11.92Z" fill="#26a977"/><path d="M28.85,11.64H11.15A2.15,2.15,0,0,0,9,13.79v10.7a2.15,2.15,0,0,0,2.15,2.15h3.67l5.29,5.3,5.29-5.3h3.45A2.15,2.15,0,0,0,31,24.49V13.79A2.15,2.15,0,0,0,28.85,11.64Z" fill="#fff"/><path d="M20.11,33.36l-5.7-5.72H11.15A3.15,3.15,0,0,1,8,24.49V13.79a3.16,3.16,0,0,1,3.15-3.15h17.7A3.16,3.16,0,0,1,32,13.79v10.7a3.15,3.15,0,0,1-3.15,3.15h-3Zm-9-20.72A1.16,1.16,0,0,0,10,13.79v10.7a1.16,1.16,0,0,0,1.15,1.15h4.09l4.87,4.89L25,25.64h3.86A1.16,1.16,0,0,0,30,24.49V13.79a1.16,1.16,0,0,0-1.15-1.15Z" fill="#26a977"/><circle cx="14.5" cy="19.14" r="1.5" fill="#96e58a"/><circle cx="20" cy="19.14" r="1.5" fill="#96e58a"/><circle cx="25.5" cy="19.14" r="1.5" fill="#96e58a"/></svg>