<svg xmlns="http://www.w3.org/2000/svg" width="40" height="40" viewBox="0 0 40 40"><path d="M29.84,7.16l-2.27-.83-2.46-.89L20.85,3.89,17.43,5.13l-1.6.59-4,1.44L7.09,15.44l.42,2.41.34,1.9.9,5.1.26.22.32.27L16.07,31h9.56L33,24.85l1.66-9.41Zm-4.52.49,3.15,1.14,2.89,5L21.75,9.73ZM22.06,12l8.85,3.75-3.64,4.55Zm3.57,9.45-4.1-.64-7.1-1.52,5.07-7.61ZM21.92,7.31l-2.05,1.2-.8-1.31Zm-5,.15.17.28-.07,0,.48.76-2.23-.41Zm-3,2.4,3.91.72-5.66,8.5ZM9.62,18.3l-.44-2.49,2.38-4.11-1.29,6.74Zm1.1,5.6,1.14-1.17,2,3.79Zm2.56-2.78,7.89,1.68,3,.47L16.87,28ZM24.91,29H19l7.81-5,3.26.69Zm6.37-6.15-2.82-.8,3.8-4.75Z" fill="#26a977"/></svg>