<svg xmlns="http://www.w3.org/2000/svg" width="40" height="40" viewBox="0 0 40 40"><path d="M29.6,18.8a1.82,1.82,0,0,0,.08-.52,1.88,1.88,0,0,0-3-1.52,8.52,8.52,0,0,0-14.3.89l-.42,0a5.82,5.82,0,1,0,0,11.63,5.72,5.72,0,0,0,2.7-.68,8.52,8.52,0,0,0,11.74-1.37A4.66,4.66,0,1,0,29.6,18.8Z" fill="#fff"/><path d="M19.84,31.32a9.4,9.4,0,0,1-5.26-1.58,6.81,6.81,0,1,1-2.73-13.11A9.52,9.52,0,0,1,27,15.52a2.79,2.79,0,0,1,.81-.12A2.88,2.88,0,0,1,30.66,18a5.67,5.67,0,0,1-1.49,11.14,5.53,5.53,0,0,1-2.56-.62A9.49,9.49,0,0,1,19.84,31.32ZM14.78,27.4l.51.39a7.52,7.52,0,0,0,10.36-1.22l.6-.73.76.56a3.59,3.59,0,0,0,2.16.71,3.67,3.67,0,0,0,.34-7.32l-1.2-.11.33-1.16a.8.8,0,0,0,0-.24.89.89,0,0,0-.89-.88.88.88,0,0,0-.51.17l-.8.58-.59-.8a7.51,7.51,0,0,0-12.61.79l-.31.55-.64,0-.35,0a4.82,4.82,0,1,0,0,9.63,4.77,4.77,0,0,0,2.24-.56Z" fill="#26a977"/><path d="M23.65,20.62c-2.06.08-4.76.16-4.76.16l4-5.4-.24-.71L15,22.29V23h4.92l-2.38,5h.79l6.43-7.06S25.71,20.54,23.65,20.62Z" fill="#96e58a"/></svg>