<svg xmlns="http://www.w3.org/2000/svg" width="40" height="40" viewBox="0 0 40 40"><circle cx="10.65" cy="18.89" r="1.43" fill="#96e58a"/><circle cx="12.94" cy="15.12" r="1.43" fill="#96e58a"/><circle cx="16.72" cy="12.43" r="1.43" fill="#96e58a"/><path d="M25.83,29.57a1,1,0,0,1-.69-.28l-3.83-3.7a1,1,0,0,1-.31-.72V17a1,1,0,0,1,2,0v7.45l3.53,3.4a1,1,0,0,1-.7,1.72ZM21.88,10.18a1,1,0,0,0,0,2A11.77,11.77,0,1,1,10.29,26l2.55,2.55a1,1,0,0,0,1.42,0,1,1,0,0,0,0-1.42L10.16,23h0a1,1,0,0,0-.71-.29,1,1,0,0,0-.71.29h0l-.05.06a1,1,0,0,0-.48.47L4.65,27.08a1,1,0,0,0,0,1.42,1,1,0,0,0,1.41,0l2.26-2.26A13.76,13.76,0,1,0,21.88,10.18Z" fill="#26a977"/></svg>