<svg xmlns="http://www.w3.org/2000/svg" width="40" height="40" viewBox="0 0 40 40"><path d="M36,16H21a1,1,0,0,1,0-2H36a1,1,0,0,1,0,2Z" fill="#96e58a"/><circle cx="33.5" cy="16" r="2.5" fill="#fff"/><path d="M33.5,19.5A3.5,3.5,0,1,1,37,16,3.5,3.5,0,0,1,33.5,19.5Zm0-5A1.5,1.5,0,1,0,35,16,1.5,1.5,0,0,0,33.5,14.5Z" fill="#26a977"/><path d="M36,23H18a1,1,0,0,1,0-2H36a1,1,0,0,1,0,2Z" fill="#96e58a"/><circle cx="25.5" cy="22" r="2.5" fill="#fff"/><path d="M25.5,25.5A3.5,3.5,0,1,1,29,22,3.5,3.5,0,0,1,25.5,25.5Zm0-5A1.5,1.5,0,1,0,27,22,1.5,1.5,0,0,0,25.5,20.5Z" fill="#26a977"/><path d="M36,29H17a1,1,0,0,1,0-2H36a1,1,0,0,1,0,2Z" fill="#96e58a"/><circle cx="31.5" cy="28" r="2.5" fill="#fff"/><path d="M31.5,31.5A3.5,3.5,0,1,1,35,28,3.5,3.5,0,0,1,31.5,31.5Zm0-5A1.5,1.5,0,1,0,33,28,1.5,1.5,0,0,0,31.5,26.5Z" fill="#26a977"/><path d="M12.79,32A1.68,1.68,0,0,1,11,30.45V21.18L3.87,10.71C4,10.37,4.3,10,4.6,10H22.1c.3,0,.62.37.73.72L16,21.19v9.26A1.68,1.68,0,0,1,14.21,32Z" fill="#fff"/><path d="M21.45,11l-6.13,9.4-.32.49v9.56c0,.26-.32.55-.79.55H12.79c-.47,0-.79-.29-.79-.55V20.87l-.35-.51L5.28,11H21.45m.65-2H4.6A2,2,0,0,0,2.83,11L10,21.49v9A2.68,2.68,0,0,0,12.79,33h1.42A2.68,2.68,0,0,0,17,30.45v-9L23.87,11A2,2,0,0,0,22.1,9Z" fill="#26a977"/></svg>