<svg xmlns="http://www.w3.org/2000/svg" width="40" height="40" viewBox="0 0 40 40"><path d="M21.18,31.89a12.12,12.12,0,0,1-1.59-.1,12.12,12.12,0,0,1-9.78-10,11.6,11.6,0,0,1,2.83-9.11,11,11,0,0,1,7.45-3.61V21.49H32.58a11.21,11.21,0,0,1-3.31,7.17,11.48,11.48,0,0,1-8.09,3.23Z" fill="#fff"/><path d="M19.09,10.25V22.48H31.44a10.15,10.15,0,0,1-10.26,8.41,12,12,0,0,1-1.46-.09,11,11,0,0,1-8.91-9.07,10.61,10.61,0,0,1,2.57-8.34,10,10,0,0,1,5.71-3.14m2-2.18A12.22,12.22,0,0,0,8.82,21.94,13.07,13.07,0,0,0,19.47,32.78a12.47,12.47,0,0,0,1.71.11A12.23,12.23,0,0,0,33.62,20.48H21.09V8.07Z" fill="#26a977"/><path d="M35.2,18.63c0-6.38-5.88-12-12.26-12v12Z" fill="#96e58a"/></svg>