<svg xmlns="http://www.w3.org/2000/svg" width="40" height="40" viewBox="0 0 40 40"><path d="M19.24,27.53l-.91-.11a.58.58,0,0,1-.48-.42c0-.07,0-.13-.05-.19a.57.57,0,0,1,.2-.6l.74-.56a.56.56,0,0,0,.15-.73l-.31-.54a.57.57,0,0,0-.71-.23l-.85.36a.57.57,0,0,1-.63-.13l-.13-.13a.56.56,0,0,1-.12-.63l.36-.85a.58.58,0,0,0-.24-.71l-.54-.31a.56.56,0,0,0-.73.15l-.56.74a.52.52,0,0,1-.27.19.45.45,0,0,1-.16,0,.47.47,0,0,1-.17,0l-.19-.05a.57.57,0,0,1-.42-.48l-.11-.91a.57.57,0,0,0-.56-.5h-.62a.57.57,0,0,0-.56.5l-.11.91a.57.57,0,0,1-.42.48l-.19.05a.57.57,0,0,1-.6-.2l-.56-.74a.56.56,0,0,0-.73-.15l-.54.31a.56.56,0,0,0-.23.71l.36.85a.57.57,0,0,1-.13.63,1.59,1.59,0,0,0-.13.13.57.57,0,0,1-.63.13l-.85-.36a.57.57,0,0,0-.71.23l-.31.54a.56.56,0,0,0,.15.73l.74.56a.57.57,0,0,1,.2.6c0,.06,0,.12,0,.19a.58.58,0,0,1-.48.42l-.91.11a.57.57,0,0,0-.5.56v.62a.57.57,0,0,0,.5.56l.91.11a.58.58,0,0,1,.48.43c0,.06,0,.12,0,.18a.57.57,0,0,1-.2.6l-.74.56a.56.56,0,0,0-.15.73l.31.54a.58.58,0,0,0,.71.24l.85-.36a.57.57,0,0,1,.63.12l.13.14a.55.55,0,0,1,.13.62L8,34a.56.56,0,0,0,.23.71l.54.31a.56.56,0,0,0,.73-.15l.56-.74a.57.57,0,0,1,.6-.2l.19,0a.58.58,0,0,1,.42.48l.11.92a.57.57,0,0,0,.56.49h.62a.57.57,0,0,0,.56-.49l.11-.92a.58.58,0,0,1,.42-.48l.19,0,.17,0a.45.45,0,0,1,.16,0,.58.58,0,0,1,.27.19l.56.74a.56.56,0,0,0,.73.15l.54-.31A.57.57,0,0,0,16.5,34l-.36-.85a.55.55,0,0,1,.12-.62l.13-.14A.57.57,0,0,1,17,32.3l.85.36a.58.58,0,0,0,.71-.24l.31-.54a.56.56,0,0,0-.15-.73L18,30.59a.57.57,0,0,1-.2-.6c0-.06,0-.12.05-.18a.58.58,0,0,1,.48-.43l.91-.11a.57.57,0,0,0,.5-.56v-.62A.57.57,0,0,0,19.24,27.53Z" fill="#fff"/><path d="M33.15,14.24a.82.82,0,0,0-.72-.82l-1.3-.16a.81.81,0,0,1-.68-.6,2.5,2.5,0,0,0-.07-.26.81.81,0,0,1,.29-.86l1-.79a.82.82,0,0,0,.22-1.06L31.5,9a.82.82,0,0,0-1-.34l-1.2.5a.81.81,0,0,1-.89-.17,1.7,1.7,0,0,0-.19-.19A.8.8,0,0,1,28,7.86l.51-1.21a.82.82,0,0,0-.35-1l-.73-.42a.82.82,0,0,0-1.07.21l-.78,1a.77.77,0,0,1-.39.28.59.59,0,0,1-.23,0,.5.5,0,0,1-.24,0l-.26-.07a.8.8,0,0,1-.6-.68l-.17-1.3A.8.8,0,0,0,22.9,4H22a.8.8,0,0,0-.8.71L21.07,6a.81.81,0,0,1-.6.68l-.27.07a.79.79,0,0,1-.85-.29l-.79-1a.82.82,0,0,0-1.07-.21l-.73.42a.82.82,0,0,0-.35,1l.51,1.21a.8.8,0,0,1-.18.89c-.06.06-.13.12-.19.19a.81.81,0,0,1-.89.17l-1.2-.5a.82.82,0,0,0-1,.34L13,9.69a.81.81,0,0,0,.21,1.06l1,.79a.81.81,0,0,1,.29.86,2.5,2.5,0,0,0-.07.26.8.8,0,0,1-.68.6l-1.29.16a.81.81,0,0,0-.72.82v.84a.81.81,0,0,0,.72.82l1.29.16a.8.8,0,0,1,.68.6,2,2,0,0,0,.07.26.81.81,0,0,1-.29.86l-1,.79A.81.81,0,0,0,13,19.63l.42.74a.82.82,0,0,0,1,.34l1.2-.5a.8.8,0,0,1,.89.18l.19.19a.78.78,0,0,1,.18.88l-.51,1.21a.82.82,0,0,0,.35,1l.73.42a.82.82,0,0,0,1.07-.21l.79-1a.79.79,0,0,1,.85-.29l.27.07a.81.81,0,0,1,.6.68l.16,1.3a.8.8,0,0,0,.8.71h.87a.8.8,0,0,0,.8-.71l.17-1.3a.8.8,0,0,1,.6-.68l.26-.07a1,1,0,0,1,.24,0,.59.59,0,0,1,.23,0,.83.83,0,0,1,.39.28l.78,1a.82.82,0,0,0,1.07.21l.73-.42a.82.82,0,0,0,.35-1L28,21.46a.78.78,0,0,1,.18-.88l.19-.19a.8.8,0,0,1,.89-.18l1.2.5a.82.82,0,0,0,1-.34l.43-.74a.82.82,0,0,0-.22-1.06l-1-.79a.81.81,0,0,1-.29-.86,2,2,0,0,0,.07-.26.81.81,0,0,1,.68-.6l1.3-.16a.82.82,0,0,0,.72-.82Z" fill="#fff"/><path d="M22.9,26.23H22a1.7,1.7,0,0,1-1.68-1.49l-.16-1.24L20,23.45l-.75,1a1.71,1.71,0,0,1-2.22.45l-.74-.42a1.73,1.73,0,0,1-.72-2.15l.49-1.15L16,21.05l-1.15.48a1.7,1.7,0,0,1-2.15-.72l-.43-.73a1.72,1.72,0,0,1,.45-2.22l1-.75c0-.06,0-.12,0-.17l-1.24-.16a1.7,1.7,0,0,1-1.49-1.69v-.85a1.7,1.7,0,0,1,1.5-1.7l1.23-.16c0-.05,0-.11,0-.17l-1-.75a1.72,1.72,0,0,1-.45-2.22l.43-.73a1.7,1.7,0,0,1,2.15-.72L16,8.27l.12-.12L15.59,7a1.73,1.73,0,0,1,.72-2.15l.74-.42a1.71,1.71,0,0,1,2.22.45l.75,1,.17,0,.16-1.25A1.7,1.7,0,0,1,22,3.09h.87a1.71,1.71,0,0,1,1.69,1.49l.15,1.25.17,0,.75-1a1.71,1.71,0,0,1,2.22-.45l.74.42A1.73,1.73,0,0,1,29.34,7l-.49,1.15.13.12,1.15-.48a1.7,1.7,0,0,1,2.14.72l.43.73a1.71,1.71,0,0,1-.45,2.22l-1,.75c0,.06,0,.12,0,.17l1.24.16a1.71,1.71,0,0,1,1.5,1.7v.85a1.71,1.71,0,0,1-1.5,1.69l-1.24.16s0,.11,0,.17l1,.75a1.71,1.71,0,0,1,.45,2.22l-.43.73a1.7,1.7,0,0,1-2.14.72L29,21.05l-.13.12.49,1.15a1.73,1.73,0,0,1-.72,2.15l-.74.42a1.71,1.71,0,0,1-2.21-.44l-.76-1-.17.05-.15,1.25A1.7,1.7,0,0,1,22.9,26.23Zm-.8-1.78h.73L23,23.22a1.72,1.72,0,0,1,1.27-1.44l.23-.06a2.22,2.22,0,0,1,.51-.06,1.35,1.35,0,0,1,.5.09,1.74,1.74,0,0,1,.81.58l.75,1,.63-.36-.49-1.15a1.71,1.71,0,0,1,.38-1.87l.17-.18a1.71,1.71,0,0,1,1.87-.37l1.15.48.37-.63-1-.75a1.69,1.69,0,0,1-.61-1.81l.06-.24A1.69,1.69,0,0,1,31,15.18L32.26,15V14.3L31,14.14a1.69,1.69,0,0,1-1.43-1.26l-.06-.23a1.7,1.7,0,0,1,.61-1.82l1-.75-.37-.63-1.14.49a1.74,1.74,0,0,1-1.88-.38l-.17-.18a1.71,1.71,0,0,1-.38-1.87l.49-1.15L27.05,6,26.3,7a1.66,1.66,0,0,1-.82.58,1.24,1.24,0,0,1-.48.09,1.43,1.43,0,0,1-.51-.06l-.25-.07A1.7,1.7,0,0,1,23,6.1l-.15-1.23H22.1L22,6.1a1.72,1.72,0,0,1-1.27,1.44l-.22.06A1.71,1.71,0,0,1,18.64,7l-.75-1-.63.36.48,1.15a1.69,1.69,0,0,1-.38,1.87l-.17.18a1.73,1.73,0,0,1-1.87.38l-1.15-.49-.36.63,1,.75a1.73,1.73,0,0,1,.61,1.81l-.07.24a1.69,1.69,0,0,1-1.43,1.26l-1.23.16V15l1.23.16a1.69,1.69,0,0,1,1.43,1.26l.06.23a1.7,1.7,0,0,1-.61,1.82l-1,.75.36.63,1.15-.48a1.69,1.69,0,0,1,1.87.38l.17.17a1.69,1.69,0,0,1,.38,1.87L17.26,23l.63.36.75-1a1.7,1.7,0,0,1,1.81-.61l.24.07A1.7,1.7,0,0,1,22,23.22Zm-1.85-.94Zm4.44,0Zm-8.57-2.3Zm12.69,0ZM15.91,21h0ZM29,21h0Zm2.19-3.93Zm-17.59-.19Zm17.7,0Zm-17.7-4.44h0Zm17.7,0Zm-17.6-.19Zm2.2-3.94h0Zm13.1,0h0Zm-12.9-.2Zm12.69,0ZM25,5.89Zm-4.74-.08Zm4.44,0Z" fill="#26a977"/><path d="M22.47,20.44a5.78,5.78,0,1,1,5.78-5.78A5.79,5.79,0,0,1,22.47,20.44Zm0-9.78a4,4,0,1,0,4,4A4,4,0,0,0,22.47,10.66Z" fill="#96e58a"/><path d="M12.54,36.91h-.62a1.47,1.47,0,0,1-1.45-1.28l-.05-.41-.25.33a1.47,1.47,0,0,1-1.9.38l-.53-.31a1.45,1.45,0,0,1-.62-1.83l.16-.39-.38.17A1.48,1.48,0,0,1,5.06,33l-.3-.54a1.45,1.45,0,0,1,.38-1.89l.33-.25-.41-.06a1.46,1.46,0,0,1-1.28-1.45v-.62A1.46,1.46,0,0,1,5.06,26.7l.41-.06-.33-.25a1.46,1.46,0,0,1-.38-1.9L5.07,24a1.46,1.46,0,0,1,1.83-.62l.38.17-.16-.39a1.45,1.45,0,0,1,.62-1.83L8.27,21a1.46,1.46,0,0,1,1.9.38l.25.33.05-.41A1.47,1.47,0,0,1,11.92,20h.62A1.46,1.46,0,0,1,14,21.28l0,.41.26-.33A1.46,1.46,0,0,1,16.19,21l.54.31a1.46,1.46,0,0,1,.61,1.83l-.16.39.39-.17A1.46,1.46,0,0,1,19.4,24l.31.54a1.46,1.46,0,0,1-.38,1.89l-.34.25.42.06a1.46,1.46,0,0,1,1.28,1.44v.62a1.46,1.46,0,0,1-1.28,1.45l-.42.06.34.25a1.46,1.46,0,0,1,.38,1.89L19.4,33a1.46,1.46,0,0,1-1.83.62l-.39-.17.16.39a1.46,1.46,0,0,1-.61,1.83l-.54.31a1.46,1.46,0,0,1-1.89-.38L14,35.22l0,.41A1.46,1.46,0,0,1,12.54,36.91Zm-.34-1.78h.06l.08-.65a1.45,1.45,0,0,1,1.09-1.23l.16,0a1.49,1.49,0,0,1,.43-.06,2,2,0,0,1,.43.07,1.46,1.46,0,0,1,.7.51l.39.52.05,0-.25-.6A1.44,1.44,0,0,1,15.67,32l.12-.12a1.45,1.45,0,0,1,1.61-.33l.6.26,0-.05-.52-.4A1.45,1.45,0,0,1,17,29.81l.05-.15a1.48,1.48,0,0,1,1.23-1.1l.65-.08v-.05l-.65-.09A1.45,1.45,0,0,1,17,27.25L17,27.1a1.44,1.44,0,0,1,.53-1.56l.52-.4,0-.05-.6.26A1.48,1.48,0,0,1,15.78,25l-.12-.12a1.46,1.46,0,0,1-.32-1.61l.25-.6-.05,0-.39.52a1.51,1.51,0,0,1-1.12.58,1.63,1.63,0,0,1-.45-.06l-.15,0a1.45,1.45,0,0,1-1.09-1.24l-.08-.64H12.2l-.08.65A1.45,1.45,0,0,1,11,23.66l-.16,0a1.45,1.45,0,0,1-1.56-.52l-.39-.52-.05,0,.25.6A1.44,1.44,0,0,1,8.8,24.9L8.68,25a1.46,1.46,0,0,1-1.61.33l-.6-.26,0,.05.52.4a1.45,1.45,0,0,1,.52,1.56l0,.15A1.46,1.46,0,0,1,6.2,28.34l-.64.09v.05l.64.08a1.49,1.49,0,0,1,1.24,1.1l0,.15A1.46,1.46,0,0,1,7,31.37l-.52.4,0,.05.6-.26a1.46,1.46,0,0,1,1.61.33L8.8,32a1.44,1.44,0,0,1,.32,1.61l-.25.6.05,0,.39-.52a1.45,1.45,0,0,1,1.56-.52l.16,0a1.45,1.45,0,0,1,1.09,1.23Zm1.88-.21Zm-.35-.11Zm2.11-.73Zm-7.22,0h0Zm-2-2Zm12.58-3.6Zm-1.33-3.61Zm-2-2Zm-7.21,0Zm5.1-.73h0Z" fill="#26a977"/><path d="M12.31,32.46a3.93,3.93,0,1,1,3.93-3.93A3.93,3.93,0,0,1,12.31,32.46Zm0-6.08a2.15,2.15,0,1,0,2.15,2.15A2.15,2.15,0,0,0,12.31,26.38Z" fill="#96e58a"/></svg>