<svg xmlns="http://www.w3.org/2000/svg" width="40" height="40" viewBox="0 0 40 40"><rect x="20.59" y="21.45" width="14.68" height="3.53" rx="1.76" transform="translate(18.54 -11.87) rotate(35.28)" fill="#fff"/><path d="M32.48,29.21a2.76,2.76,0,0,1-1.59-.51l-9.11-6.45a2.78,2.78,0,0,1-.66-3.85A2.78,2.78,0,0,1,25,17.74l9.1,6.44A2.77,2.77,0,0,1,34.74,28,2.71,2.71,0,0,1,33,29.16,2.5,2.5,0,0,1,32.48,29.21Zm-9.1-10a.76.76,0,0,0-.62.33.71.71,0,0,0-.13.57.73.73,0,0,0,.31.49l9.11,6.45h0a.76.76,0,0,0,.57.12.73.73,0,0,0,.49-.31.77.77,0,0,0-.18-1.06l-9.11-6.45A.77.77,0,0,0,23.38,19.23Z" fill="#26a977"/><circle cx="17.5" cy="14.5" r="11.5" fill="#fff"/><path d="M17.5,27A12.5,12.5,0,1,1,30,14.5,12.52,12.52,0,0,1,17.5,27Zm0-23A10.5,10.5,0,1,0,28,14.5,10.51,10.51,0,0,0,17.5,4Z" fill="#26a977"/><path d="M17.32,15.78A3.83,3.83,0,1,1,21.15,12,3.82,3.82,0,0,1,17.32,15.78Zm0-5.65A1.83,1.83,0,1,0,19.15,12,1.83,1.83,0,0,0,17.32,10.13Z" fill="#96e58a"/><path d="M23.79,19.87h-2c0-2-1.92-3.63-4.29-3.63s-4.29,1.63-4.29,3.63h-2c0-3.11,2.82-5.63,6.29-5.63S23.79,16.76,23.79,19.87Z" fill="#96e58a"/></svg>