<svg xmlns="http://www.w3.org/2000/svg" width="40" height="40" viewBox="0 0 40 40"><path d="M29.8,11.87,29,11.41l.12.92s.23,1.92.41,3.75a16.16,16.16,0,0,0-6.1,3v-9c1.78.17,3.56.4,3.58.4l.92.11-.47-.81C25.82,6.92,21.85.33,20.36.33S14.9,6.92,13.27,9.76l-.47.8.93-.11s1.8-.23,3.57-.4v9a16,16,0,0,0-6.81-3.14c.18-1.8.4-3.58.4-3.59l.12-.92-.81.46C7.37,13.51.78,17.48.78,19s6.59,5.46,9.42,7.09l.81.47-.12-.93s-.2-1.64-.37-3.36a9.91,9.91,0,0,1,6.78,9.39v8h6.12v-8a9.93,9.93,0,0,1,6-9.11c-.16,1.61-.34,3.08-.34,3.08l-.12.93.81-.47c2.83-1.64,9.42-5.61,9.42-7.09S32.63,13.5,29.8,11.87Z" fill="#26a977"/><path d="M20.36,2.32A45.34,45.34,0,0,1,24.59,8.4l-1.51-.15-1.42-.14V23L23.82,21a14.15,14.15,0,0,1,6.48-3.32l1.12-.25-.11-1.14c0-.53-.1-1.08-.16-1.59A45.61,45.61,0,0,1,37.24,19a45.44,45.44,0,0,1-6.09,4.24c.05-.41.09-.83.13-1.26l.2-2-1.91.65a11.68,11.68,0,0,0-7.91,11V37.9h-2.6V31.63a11.67,11.67,0,0,0-8.75-11.29l-1.79-.46.18,1.84c0,.5.09,1,.15,1.49A44.52,44.52,0,0,1,2.76,19a46.41,46.41,0,0,1,6.09-4.24c0,.47-.11,1-.15,1.45l-.11,1.2,1.18.2A14.16,14.16,0,0,1,16.9,21L19.06,23V8.11l-1.41.14c-.51,0-1,.1-1.53.15a43.62,43.62,0,0,1,4.24-6.08" fill="#fff"/></svg>