<svg xmlns="http://www.w3.org/2000/svg" width="40" height="40" viewBox="0 0 40 40"><path d="M38.5,28.88s-5-1.67-17.08,1.32S1.5,31.73,1.5,31.73V11A77.7,77.7,0,0,0,21.86,9.43C32.1,7.1,38.5,8.15,38.5,8.15Z" fill="#fff"/><path d="M6.8,33.09a32.36,32.36,0,0,1-5.48-.38L.5,32.56V9.92L1.58,10A76.62,76.62,0,0,0,21.64,8.45c10.3-2.35,16.75-1.33,17-1.29l.84.14v23l-1.31-.45c-.12,0-5-1.5-16.53,1.34A62.15,62.15,0,0,1,6.8,33.09ZM2.5,30.86a54.64,54.64,0,0,0,18.68-1.63C30.09,27,35.26,27.31,37.5,27.65V9A51.06,51.06,0,0,0,22.08,10.4,77.57,77.57,0,0,1,2.5,12.05Z" fill="#26a977"/><path d="M7,20.14H6.87a1,1,0,0,1-1-1,1,1,0,0,1,1-1,.48.48,0,0,1,.12,0,49.46,49.46,0,0,0,12.53-1.67l1.61-.36a1,1,0,1,1,.43,2L20,18.42A51,51,0,0,1,7,20.14Z" fill="#96e58a"/><path d="M7.64,25.1H7.32a1,1,0,0,1-1-1,1,1,0,0,1,1-1h.3a38.89,38.89,0,0,0,9.78-1.35c1.23-.29,2.62-.61,4.2-.92a1,1,0,0,1,1.18.78A1,1,0,0,1,22,22.79c-1.55.31-2.87.61-4.14.91A40.44,40.44,0,0,1,7.64,25.1Z" fill="#96e58a"/><path d="M31.69,18.79a3.09,3.09,0,0,0-.81-.76,5.7,5.7,0,0,0-1-.49c-.33-.12-.63-.24-.91-.36a3.46,3.46,0,0,1-.64-.32c-.11-.09-.11-.15-.11-.18a.35.35,0,0,1,.14-.31,1.79,1.79,0,0,1,1.4,0,3.65,3.65,0,0,1,.76.48l.29.21L32,15.67l-.23-.25a5,5,0,0,0-.94-.73,3.33,3.33,0,0,0-.95-.34V12.63H28.12v1.74a2.84,2.84,0,0,0-1.37.7,2.16,2.16,0,0,0-.66,1.63,1.94,1.94,0,0,0,.35,1.18,3,3,0,0,0,.81.74,4.73,4.73,0,0,0,1,.49l.9.37a2.74,2.74,0,0,1,.62.36.3.3,0,0,1,.14.25.36.36,0,0,1-.16.32,1.17,1.17,0,0,1-.68.16,2.73,2.73,0,0,1-1.05-.2,5.73,5.73,0,0,1-1-.57l-.32-.22-1,1.61.25.22a5,5,0,0,0,1.19.73,4.76,4.76,0,0,0,1.06.32v1.92h1.75v-2a3,3,0,0,0,1.49-.77A2.27,2.27,0,0,0,32,20,2,2,0,0,0,31.69,18.79Z" fill="#96e58a"/></svg>