<svg xmlns="http://www.w3.org/2000/svg" width="40" height="40" viewBox="0 0 40 40"><path d="M21.4,29a2.62,2.62,0,0,1-1.84-.76h0a2.61,2.61,0,0,1-.75-2.07l-5-7.34,7.37,5A2.6,2.6,0,1,1,21.4,29Zm-11-2-4.26-.11L6.23,26l.41-.06-.4,0,.18-1.44A14.2,14.2,0,0,1,7,22.13a14.68,14.68,0,0,1,1.27-2.76,15,15,0,0,1,2.16-2.84,13.74,13.74,0,0,1,1.44-1.3c.21-.17.44-.34.67-.5l.13-.09.3-.2.12-.09.45-.27a14.6,14.6,0,0,1,3.86-1.61,14.13,14.13,0,0,1,2.12-.39h.08c.33,0,.67-.06,1-.06a4.87,4.87,0,0,1,.54,0L22,12a6.68,6.68,0,0,1,.74.06c.32,0,.64.08,1,.14h.09a14.4,14.4,0,0,1,2.05.54,14,14,0,0,1,3.62,1.84l.4.29L30,15l.26.2.13.12a7.31,7.31,0,0,1,.59.52,12.55,12.55,0,0,1,1.25,1.32A13.94,13.94,0,0,1,35,22.56a13.39,13.39,0,0,1,.36,2.09l0,.79c0,.23,0,.43,0,.59v.46l-.81,0,0-.47c0-.15,0-.33-.05-.53l-.11-.73a11.72,11.72,0,0,0-.49-1.9,13.08,13.08,0,0,0-1.07-2.31A12.8,12.8,0,0,0,31,18.22a12.13,12.13,0,0,0-1.2-1.08c-.17-.14-.34-.26-.51-.38l-.17-.12a1.64,1.64,0,0,0-.22-.14l-.13-.09-.35-.22a12.86,12.86,0,0,0-3.23-1.33,13.79,13.79,0,0,0-1.76-.31c-.32,0-.6-.05-.86-.05H21.41v0l1,0V14l-.1-.32,0,.43-.37,0-.42,0c-.33,0-.6.08-.87.13l-.12,0a14.26,14.26,0,0,0-1.79.48,12.5,12.5,0,0,0-3.18,1.66,2.3,2.3,0,0,0-.34.25l-.52.42c-.15.13-.31.26-.45.4a12.67,12.67,0,0,0-2.68,3.67,12.11,12.11,0,0,0-.83,2.32,11.51,11.51,0,0,0-.31,1.85l-.05.87v.22Z" fill="#26a977"/></svg>