<svg xmlns="http://www.w3.org/2000/svg" width="40" height="40" viewBox="0 0 40 40"><polygon points="37.84 11.55 21.99 15.64 19.85 18.56 17.71 15.64 1.86 11.55 9.47 19.49 14.79 20.88 12.87 22.02 15.04 23.69 17.71 23.69 16.86 25.43 19.85 28 22.84 25.43 21.99 23.69 24.66 23.69 26.83 22.02 24.91 20.88 30.23 19.49 37.84 11.55" fill="#fff"/><polygon points="19.42 28.5 16.04 25.6 16.65 24.35 14.82 24.35 11.69 21.94 13.08 21.12 9.12 20.09 -0.23 10.32 18.11 15.06 20.39 18.17 19.31 18.95 17.32 16.23 3.96 12.78 9.82 18.89 16.5 20.64 14.05 22.09 15.27 23.02 18.78 23.02 17.68 25.26 20.28 27.49 19.42 28.5" fill="#26a977"/><polygon points="20.28 28.5 19.42 27.49 22.02 25.26 20.92 23.02 24.43 23.02 25.64 22.09 23.19 20.64 29.88 18.89 35.74 12.78 22.38 16.23 20.39 18.95 19.31 18.17 21.59 15.06 39.93 10.32 30.58 20.09 26.61 21.12 28.01 21.94 24.88 24.35 23.05 24.35 23.66 25.6 20.28 28.5" fill="#96e58a"/></svg>