<svg xmlns="http://www.w3.org/2000/svg" width="40" height="40" viewBox="0 0 40 40"><circle cx="20" cy="17.46" r="2.72" fill="#26a977"/><path d="M14.89,25c0-2.46,2.29-4.46,5.11-4.46s5.11,2,5.11,4.46Z" fill="#26a977"/><path d="M26.66,32H13.34A5.23,5.23,0,0,1,8,26.91V13.32a5.25,5.25,0,0,1,5.4-5.08,1,1,0,0,1,0,2A3.26,3.26,0,0,0,10,13.32V26.91A3.22,3.22,0,0,0,13.34,30H26.66A3.22,3.22,0,0,0,30,26.91V13.32a3.26,3.26,0,0,0-3.4-3.08,1,1,0,0,1,0-2A5.25,5.25,0,0,1,32,13.32V26.91A5.23,5.23,0,0,1,26.66,32Z" fill="#26a977"/><polygon points="25.13 12 14.88 12 15.63 8 24.38 8 25.13 12" fill="#26a977"/></svg>