<svg xmlns="http://www.w3.org/2000/svg" width="40" height="40" viewBox="0 0 40 40"><rect x="9" y="15" width="22" height="15" rx="2.1" fill="#fff"/><path d="M28.9,31H11.1A3.1,3.1,0,0,1,8,27.9V17.1A3.1,3.1,0,0,1,11.1,14H28.9A3.1,3.1,0,0,1,32,17.1V27.9A3.1,3.1,0,0,1,28.9,31ZM11.1,16A1.1,1.1,0,0,0,10,17.1V27.9A1.1,1.1,0,0,0,11.1,29H28.9A1.1,1.1,0,0,0,30,27.9V17.1A1.1,1.1,0,0,0,28.9,16Z" fill="#26a977"/><rect x="19" y="15" width="2" height="15" fill="#96e58a"/><rect x="9" y="22" width="22" height="2" fill="#96e58a"/><path d="M18.55,12.34h0a.74.74,0,0,1-1-.18l-2-2.12c-.23-.33.21-1.06.55-1.29h0c.33-.24,1.17-.41,1.4-.08l1.31,2.63A.74.74,0,0,1,18.55,12.34Z" fill="#26a977"/><path d="M21.4,12.34h0a.74.74,0,0,0,1-.18l2-2.12c.23-.33-.21-1.06-.55-1.29h0c-.33-.24-1.17-.41-1.4-.08L21.22,11.3A.74.74,0,0,0,21.4,12.34Z" fill="#26a977"/></svg>