<svg xmlns="http://www.w3.org/2000/svg" xmlns:xlink="http://www.w3.org/1999/xlink" width="40" height="40" viewBox="0 0 40 40"><defs><clipPath id="a"><path d="M13.7,6.48h.07L29.4,6.05l2.38,3.23,1.31-.86L31.78,5.5l2.77-1.11-.86-2.12L29.86,3H14.39A5.21,5.21,0,0,0,9.12,7.58a5,5,0,0,0,5,5.48l12.81-.23H27A1.59,1.59,0,0,1,27,16h0v1.4l-13.4.34a5.09,5.09,0,0,0-5.25,4.91,5.09,5.09,0,0,0,5.25,4.91l13.34-.23H27a1.55,1.55,0,1,1,0,3.1h0v0L18.68,31H9.43s-4.88.82-3.64,6.21L7,35.72s.15-1.64,3.39-1.62,8.17,0,8.17,0l8.82-.28a5.08,5.08,0,0,0,5.24-4.91A5.08,5.08,0,0,0,27.4,24L14,24.18V24h0a1.65,1.65,0,0,1,0-3.29h.07l13.25-.31a5.21,5.21,0,0,0,0-10.41L14,10.19v-.13h0a1.63,1.63,0,1,1,0-3.25" fill="none" clip-rule="evenodd"/></clipPath></defs><g clip-path="url(#a)"><rect y="-2" width="39" height="45" fill="#26a977"/></g></svg>