<svg xmlns="http://www.w3.org/2000/svg" width="40" height="40" viewBox="0 0 40 40"><rect x="14.75" y="27.5" width="10.5" height="3" fill="#fff"/><rect x="27.5" y="14.75" width="3" height="10.5" fill="#fff"/><rect x="14.75" y="9.5" width="10.5" height="3" fill="#fff"/><rect x="9.5" y="14.75" width="3" height="10.5" fill="#fff"/><path d="M26,16.75a3.4,3.4,0,0,1-1-.15c-1.19-.37-1.87-1.42-2-3.1H16.53a4.67,4.67,0,0,1-.14,1.21,2.63,2.63,0,0,1-2.88,2.05h0v6.66a3.55,3.55,0,0,1,1.09.16,2.93,2.93,0,0,1,1.95,2.92h6.68a4,4,0,0,1,.28-1,3.24,3.24,0,0,1,3-1.94V16.7A5.16,5.16,0,0,1,26,16.75Z" fill="#fff"/><path d="M26.5,13.75V15.7a3.5,3.5,0,0,1-.54.05,2.36,2.36,0,0,1-.72-.11c-.75-.23-1.19-1-1.31-2.14h2.32v-5H13.75v5h1.78a3.6,3.6,0,0,1-.1.95c-.19.68-.54,1.31-1.92,1.31h0v-2h-5v12.5h5V24.42a2.85,2.85,0,0,1,.79.11c.29.1,1.1.37,1.24,2H13.75v5h12.5v-5h-2a3.3,3.3,0,0,1,.18-.56A2.21,2.21,0,0,1,26.5,24.6v1.65h5V13.75Zm-15,10.5h-1v-8.5h1ZM15.75,10.5h8.5v1h-8.5Zm8.5,18v1h-8.5v-1Zm2.25-5.9a4.23,4.23,0,0,0-3.92,2.53,5.67,5.67,0,0,0-.39,1.37H17.54c-.14-2.09-1.1-3.38-2.65-3.87a4.47,4.47,0,0,0-1.39-.21V17.76h0A3.63,3.63,0,0,0,17.36,15a5.68,5.68,0,0,0,.17-1.47h4.39c.18,2.22,1.17,3.57,2.73,4.05a4.21,4.21,0,0,0,1.31.2,4.93,4.93,0,0,0,.54-.05Zm3,1.65h-1v-8.5h1Z" fill="#26a977"/></svg>