<svg xmlns="http://www.w3.org/2000/svg" width="40" height="40" viewBox="0 0 40 40"><path d="M20.07,9.17a14.8,14.8,0,0,0,8.35,2.74c.2,1.09.51,2.93.7,5,.14,1.57.57,6.34-.78,9-1,1.73-4,3.34-5,3.88A33.16,33.16,0,0,1,20,31.36a35.14,35.14,0,0,1-3.45-1.66c-2.63-1.43-4.27-2.73-4.87-3.84-1.37-2.62-.93-7.42-.79-9,.19-2,.5-3.86.7-5a15.31,15.31,0,0,0,8.49-2.74m0-2.64h0a.62.62,0,0,0-.5.31c-1.14,1.64-4.8,3.09-9,3.09h-.13a.61.61,0,0,0-.63.51,56.81,56.81,0,0,0-.95,6.25c-.31,3.47-.38,7.44,1,10.1,1,1.89,3.47,3.47,5.68,4.67a30,30,0,0,0,4,1.89.66.66,0,0,0,.76,0,31.08,31.08,0,0,0,4-1.89c2.2-1.2,4.67-2.78,5.74-4.67,1.39-2.66,1.32-6.63,1-10.1a56.81,56.81,0,0,0-.95-6.25.68.68,0,0,0-.69-.51c-4,0-7.58-1.39-8.78-3a.73.73,0,0,0-.63-.44Z" fill="#26a977"/><path d="M23.93,19.43H16.07v-4a2.29,2.29,0,0,1,2.29-2.3h3.28a2.29,2.29,0,0,1,2.29,2.3Zm-5.87-2.3h3.82V15H18.05Z" fill="#26a977"/><path d="M25.16,19.79a1.59,1.59,0,0,0-1.64-1.51h-7a1.59,1.59,0,0,0-1.64,1.51V24.7a1.59,1.59,0,0,0,1.64,1.52h7a1.59,1.59,0,0,0,1.64-1.52Z" fill="#fff"/><path d="M23.52,27.37h-7a2.73,2.73,0,0,1-2.79-2.67V19.79a2.73,2.73,0,0,1,2.79-2.66h7a2.73,2.73,0,0,1,2.79,2.66V24.7A2.73,2.73,0,0,1,23.52,27.37Zm-7-7.94a.45.45,0,0,0-.49.36V24.7a.45.45,0,0,0,.49.37h7A.45.45,0,0,0,24,24.7V19.79a.45.45,0,0,0-.49-.36Z" fill="#26a977"/></svg>