<svg xmlns="http://www.w3.org/2000/svg" width="105.14" height="90" viewBox="0 0 105.14 90"><path d="M10.64,22.24H97.76s-.22,47.3-.22,62.59c0,.27-4.69.12-4.69.12H13.76S10.64,79,10.64,78.67Z" fill="#fff" stroke="#ccc" stroke-linejoin="round" stroke-width="1" fill-rule="evenodd"/><path d="M7.46,17.28H94.31s.1,42.41.1,44.75c0,.29-8.38,9-8.38,9s-9.87,9.53-8.37,9.53l-70.19.23V17.28Z" fill="#fff" stroke="#ccc" stroke-linejoin="round" stroke-width="1" fill-rule="evenodd"/><rect x="5.61" y="9.36" width="93.83" height="13.45" rx="2.5" fill="#339967"/><rect x="47.32" y="6" width="10.39" height="9.73" fill="#fff"/><rect x="23.31" y="6" width="10.36" height="9.73" fill="#fff"/><rect x="73.89" y="6" width="10.34" height="9.73" fill="#fff"/><path d="M76,61.47H95l-19,19Z" fill="#e9e9e9" fill-rule="evenodd"/><path d="M77.48,59.47s-6.29-2.12-21.58,1.66-25.17,1.93-25.17,1.93V36.86a97.82,97.82,0,0,0,25.73-2c12.93-3,21-1.62,21-1.62Z" fill="#fff"/><path d="M37.43,64.79a42.2,42.2,0,0,1-6.94-.48l-1-.2V35.5l1.36.1a97.37,97.37,0,0,0,25.36-2c13-3,21.17-1.69,21.51-1.63l1.06.17v29l-1.66-.55c-.15-.05-6.37-1.91-20.88,1.68A78.63,78.63,0,0,1,37.43,64.79ZM32,62c2.88.33,11.58.92,23.61-2.06,11.26-2.78,17.79-2.43,20.62-2V34.39a64.39,64.39,0,0,0-19.48,1.72A98.32,98.32,0,0,1,32,38.2Z" fill="#26a977"/><path d="M37.66,48.41h-.15a1.27,1.27,0,0,1,0-2.53h.15c6.37,0,9.94-.79,15.83-2.1l2-.45a1.26,1.26,0,0,1,1.5,1,1.25,1.25,0,0,1-1,1.5l-2,.46C48,47.59,44.31,48.41,37.66,48.41Z" fill="#339967"/><path d="M38.48,54.69h-.4a1.27,1.27,0,0,1,0-2.53c.09,0,.26,0,.38,0a49.05,49.05,0,0,0,12.36-1.71c1.55-.36,3.32-.77,5.31-1.17a1.26,1.26,0,1,1,.5,2.48c-2,.39-3.63.78-5.24,1.15A50.9,50.9,0,0,1,38.48,54.69Z" fill="#339967"/><path d="M68.87,46.71a3.6,3.6,0,0,0-1-1,6.93,6.93,0,0,0-1.25-.62l-1.15-.45a4.54,4.54,0,0,1-.8-.41c-.15-.11-.15-.19-.15-.23a.43.43,0,0,1,.18-.39,2.24,2.24,0,0,1,1.78,0,4.71,4.71,0,0,1,1,.59l.36.28,1.48-1.77-.3-.3a5.75,5.75,0,0,0-1.18-.93,4,4,0,0,0-1.2-.43V38.92H64.37v2.2a3.62,3.62,0,0,0-1.73.89,2.71,2.71,0,0,0-.84,2.06,2.42,2.42,0,0,0,.45,1.49,3.68,3.68,0,0,0,1,.94,7.45,7.45,0,0,0,1.23.62c.41.15.78.31,1.14.46a4.35,4.35,0,0,1,.79.45.38.38,0,0,1,.17.33.47.47,0,0,1-.2.4,1.47,1.47,0,0,1-.86.2,3.39,3.39,0,0,1-1.33-.26A7.16,7.16,0,0,1,62.92,48l-.4-.29-1.31,2,.31.27a5.91,5.91,0,0,0,1.51.92,6.07,6.07,0,0,0,1.34.41v2.42h2.21V51.3a3.73,3.73,0,0,0,1.88-1,2.85,2.85,0,0,0,.86-2.09A2.51,2.51,0,0,0,68.87,46.71Z" fill="#339967"/></svg>